<?xml version="1.0" standalone="no"?>
<!DOCTYPE svg PUBLIC "-//W3C//DTD SVG 1.1//EN" "http://www.w3.org/Graphics/SVG/1.1/DTD/svg11.dtd" >
<svg>
<metadata>
Created by FontForge 20110222 at Sun Sep 15 22:44:35 2013
 By Orthosie Webhosting
2009 H. A. Simon published by FSI FontShop International GmbH
</metadata>
<defs>
<font id="MarketRegular" horiz-adv-x="510" >
  <font-face 
    font-family="MarketRegular"
    font-weight="400"
    font-stretch="normal"
    units-per-em="1000"
    panose-1="3 1 5 4 2 1 1 1 1 1"
    ascent="750"
    descent="-250"
    x-height="448"
    cap-height="638"
    bbox="-142 -438 914 877"
    underline-thickness="64"
    underline-position="-96"
    unicode-range="U+0020-2122"
  />
<missing-glyph horiz-adv-x="364" 
d="M298 0h-265v666h265v-666zM66 633v-600h199v600h-199z" />
    <glyph glyph-name=".notdef" horiz-adv-x="364" 
d="M298 0h-265v666h265v-666zM66 633v-600h199v600h-199z" />
    <glyph glyph-name=".null" horiz-adv-x="0" 
 />
    <glyph glyph-name="nonmarkingreturn" horiz-adv-x="333" 
 />
    <glyph glyph-name="space" unicode=" " horiz-adv-x="246" 
 />
    <glyph glyph-name="exclam" unicode="!" horiz-adv-x="320" 
d="M344 626q11 -3 18.5 -10.5t7.5 -14.5q0 -22 -15 -57t-16 -37q-12 -37 -30 -101.5t-34.5 -116t-36.5 -96.5q-4 -12 -13 -12q-19 0 -21 12q-3 15 -15.5 26t-12.5 17q0 10 3 18q2 7 11 43q8 33 23 87t26 97.5t18 87.5q4 23 7 36.5t12.5 28.5t23.5 15q5 0 12 -4t10 -5
q7 -2 13 -7.5t9 -6.5zM201 82q14 -1 14 -15q0 -19 -7 -38q-14 -39 -32 -39q-1 0 -13 -0.5t-26 -0.5q-11 0 -21 23t-10 39q0 13 9 28q1 1 2.5 8.5t5.5 11.5t13 4q14 0 33.5 -10t31.5 -11z" />
    <glyph glyph-name="quotedbl" unicode="&#x22;" horiz-adv-x="350" 
d="M327 461l24 96q19 73 19 96q0 18 24 18q27 0 36 -11q4 -5 11 -11.5t9.5 -10.5t2.5 -11q0 -14 -26 -101l-36 -141q-2 -6 -9.5 -11.5t-11.5 -5.5q-18 0 -34 6q-14 5 -21 20q-2 6 -2 8q0 1 3 12.5t6.5 26t4.5 20.5zM168 435l35 141q8 35 14 83q2 20 25 20q5 0 14 -6t18 -8
q28 -4 28 -29q0 -7 -3.5 -21t-10.5 -38t-11 -42l-32 -137q-2 -8 -12 -14t-17 -6q-6 0 -17 3.5t-16 3.5t-14 9t-9 15q0 7 3.5 14.5t4.5 11.5z" />
    <glyph glyph-name="numbersign" unicode="#" horiz-adv-x="650" 
d="M496 252h82q42 0 42 -7q2 -8 6.5 -11t4.5 -6q0 -8 -4 -17t-4 -14q-1 -8 -6.5 -13t-11.5 -5q-21 0 -50.5 1.5t-33.5 1.5q-8 0 -27 -0.5t-22 -0.5q-8 0 -12 -3t-9 -15q-4 -11 -58 -137q-26 -59 -34 -64q-3 -2 -5 -2q-26 0 -32 5q-3 2 -7.5 5.5t-6.5 5t-4 4.5t-2 6
q0 11 8 33q4 11 10.5 21.5t7.5 14.5l38 97q5 13 5 16q0 6 -9 6q-3 0 -36.5 -2t-36.5 -2q-13 0 -20 -15q-5 -11 -24 -57.5t-31 -71.5q-4 -8 -8.5 -18t-6.5 -15t-5.5 -11.5t-5.5 -9.5t-4 -6.5t-4.5 -4.5t-4.5 -1q-11 0 -18 2.5t-14 2.5q-20 0 -20 21q0 12 8 33q2 5 13 28.5
t21 48.5l21 53q5 13 5 16q0 6 -9 6q-34 0 -64.5 -3t-36.5 -3q-15 0 -15 15v6q0 3 2 7q0 1 1 3t1 3q0 2 -1.5 5t-1.5 5q0 8 7 17q10 13 24 14h15q15 1 27 1h61q7 0 11.5 1t8 5t4.5 6t5 9l26 62q5 13 5 16q0 6 -9 6q-30 0 -52.5 -1.5t-32.5 -1.5q-26 0 -33.5 3t-7.5 13
q0 3 5 16t6 19q4 25 28 25q22 0 46.5 -1.5t60.5 -1.5q14 0 18.5 4t10.5 18l54 137q20 52 28 60q11 11 30 11q3 0 11 -3t14 -3q11 0 17.5 -8.5t6.5 -16.5q0 -16 -5 -22l-26 -38q-2 -4 -51 -115q-5 -13 -5 -16q0 -6 9 -6q3 0 35.5 1.5t36.5 1.5q11 0 15 3.5t9 17.5l53 133
q5 11 15.5 31.5t12.5 30.5q1 9 23 9q23 0 38 -11q19 -12 19 -20q0 -16 -5 -22q-28 -41 -33 -52q-41 -89 -43 -95q-5 -15 -5 -17q0 -5 9 -5q2 0 35.5 2t48.5 2q37 0 38 -4q7 -16 7 -26q0 -8 -7.5 -13t-8.5 -10q-8 -20 -18 -20h-33q-13 0 -47.5 -1t-42.5 -1q-11 0 -18 -15
q-15 -34 -26 -64q-5 -13 -5 -16q0 -6 9 -6zM316 243q5 0 37.5 2.5t35.5 2.5q9 0 12.5 3.5t8.5 15.5l24 60q5 8 5 16q0 6 -9 6l-33 -1q-33 -2 -40 -2q-10 0 -13 -2.5t-8 -14.5l-24 -63q-5 -13 -5 -16q0 -7 9 -7z" />
    <glyph glyph-name="dollar" unicode="$" horiz-adv-x="462" 
d="M439 513q-6 6 -8.5 9.5t-3 4.5t-2.5 6t-7 12q-6 9 -11 9q-3 0 -6 -8l-18 -55q-6 -20 -17.5 -52t-18 -52.5t-6.5 -27.5q0 -5 6 -17l26 -57q34 -72 46.5 -111t12.5 -89q0 -57 -61 -93q-17 -10 -69 -10q-18 0 -34 2t-25 4.5t-10 2.5q-5 0 -6 -7q0 -4 -1 -8l-1 -13
q0 -5 -0.5 -12.5t-0.5 -8.5q0 -16 -12.5 -25t-24.5 -9q-9 0 -19 2.5t-18 2.5q-15 0 -15 24q0 14 19 69l2 8q0 5 -8 10q-40 21 -70 58q-5 6 -17.5 18t-20 21t-14 28.5t-6.5 44.5q0 7 7.5 18.5t15.5 12.5q16 2 22 2q3 0 29 -7q14 -4 26.5 -12.5t12.5 -18.5q0 -8 -2 -14.5
t-2 -17.5q0 -13 13 -32q11 -15 28 -28q8 -5 12 -5q2 0 5 10q8 30 30.5 99.5t32.5 102.5q4 9 4 19q0 7 -8 26q-26 57 -34 77t-17.5 50t-9.5 51q0 30 9.5 53t19.5 33t31 28q25 21 68 21q15 0 31 -3l15 -3q9 0 12 11q14 40 16 52q2 17 51 17q9 0 21 -4.5t12 -13.5q0 -7 -5 -19
t-5 -18q0 -8 -13.5 -28t-13.5 -24q0 -5 7 -9q54 -32 90 -85q3 -5 3 -11q0 -11 -10 -21q-5 -5 -14.5 -10.5t-12.5 -8.5q-2 -2 -6 -2q-3 0 -9 2.5t-9 2.5q-9 0 -14.5 4t-11.5 12t-8 10zM296 214q-10 -28 -25 -78t-19 -59t-4 -19q0 -3 4.5 -6t16 -5.5t26.5 -2.5q49 0 49 39
q0 62 -33 140q-3 8 -7 8q-1 0 -8 -17zM265 535q0 -18 20 -71q5 -14 10 -14h1.5t1.5 3.5l3 10.5q8 30 37 109q3 8 3 14q0 4 -10.5 8t-23.5 4q-42 0 -42 -64z" />
    <glyph glyph-name="percent" unicode="%" horiz-adv-x="780" 
d="M445 561q-3 0 -3 -2v-8q0 -101 -65 -180q-43 -52 -91 -52q-63 0 -107 59q-27 37 -27 73q0 42 39 119q20 38 54 65t76 27q31 0 42 -11q9 -9 27 -14q61 -18 93 -18q106 0 130 30q10 12 17 12q25 0 37 -9q10 -7 13 -11t3 -15q0 -22 -3 -29t-14 -16q-23 -20 -51 -63
l-280 -443l-58 -88q-10 -14 -32 -14q-19 0 -33 12q-9 6 -9 29q0 26 9 30q10 3 19 17q12 19 21.5 25.5t30.5 39.5q155 255 262 422q4 4 4 9q0 4 -3 4q-4 0 -21 -3q-10 -2 -15 -2h-21q-7 0 -17 1t-18 2.5t-9 1.5zM741 213q0 -86 -57 -175q-35 -51 -104 -51q-63 0 -92 32
q-37 40 -37 76q0 65 40 135q31 52 55.5 71.5t63.5 19.5q36 0 87 -28q44 -23 44 -80zM356 578q-8 3 -11 8t-3 9t-3.5 7.5t-12.5 3.5q-17 0 -28 -15q-67 -92 -67 -153q0 -66 43 -66q11 0 18.5 6t18.5 25q34 56 44.5 86.5t10.5 62.5q0 22 -10 26zM652 247q-5 2 -11.5 12
t-15.5 10q-16 0 -28 -18q-66 -98 -66 -166q0 -52 34 -52q27 0 41 27q34 67 46.5 99.5t12.5 59.5q0 22 -13 28z" />
    <glyph glyph-name="ampersand" unicode="&#x26;" horiz-adv-x="528" 
d="M247 357q-13 61 -13 99q0 24 5 46q14 62 48 94t75 32q37 0 52 -8q6 -3 10 -7t8 -8.5t7 -6.5q31 -24 31 -54q0 -26 -17 -74q-9 -28 -107 -126q-9 -9 -9 -16q0 -4 4 -16q8 -27 46 -144q3 -9 7 -9t11 7q8 6 17 14.5t13 11.5q14 12 33 23q15 11 28 11q11 0 14 -9q4 -12 4 -32
q0 -23 -6 -34t-22 -19q-7 -3 -18.5 -13.5t-34.5 -23.5q-13 -8 -13 -14t2 -12q19 -51 20 -54q7 -15 7 -23t-7 -8q-5 0 -14.5 3t-13.5 3q-2 0 -5 -2t-9 -2q-11 0 -22 7t-12 13q-2 6 -5.5 14t-5.5 13q-5 12 -9 12t-14 -5q-38 -20 -61 -26q-59 -14 -87 -14q-32 0 -53 7
q-13 4 -22.5 13t-18 22.5t-11.5 17.5q-17 19 -17 45q0 24 9 43q30 62 102 131q8 10 24.5 24.5t30.5 27t15 13.5q4 5 4 13zM235 234q-8 -8 -57 -70q-32 -38 -32 -69q0 -24 36 -24q44 0 127 37q13 5 13 11q0 1 -0.5 3t-2 6.5t-2.5 8.5l-39 120q-3 9 -6 9q-5 0 -37 -32z
M324 418q41 41 57 72q5 9 9 21.5t4 13.5q8 18 8 27q0 20 -17 20q-31 0 -50 -28q-2 -3 -9.5 -15.5t-10.5 -18.5t-6 -18.5t-3 -26.5q0 -25 3 -41q1 -13 5 -13q3 0 10 7z" />
    <glyph glyph-name="quotesingle" unicode="'" horiz-adv-x="232" 
d="M183 442l29 119q11 48 16 96q1 13 5.5 18t20.5 5q9 0 19.5 -8t14.5 -9q28 -5 28 -33q0 -11 -12.5 -50.5t-17.5 -66.5l-24 -114q-2 -8 -13 -15.5t-18 -7.5q-3 0 -15 4t-19 4q-5 0 -14 10.5t-9 17.5q0 8 4 16t5 14z" />
    <glyph glyph-name="parenleft" unicode="(" horiz-adv-x="330" 
d="M353 694q7 8 17 13.5t20 15.5t27 10q16 0 25 -15t9 -28t-14 -66q-4 -16 -26 -16q-15 0 -21 -3t-18 -18q-40 -51 -78 -120.5t-58 -117.5q-56 -137 -56 -269v-13q0 -30 4 -50q2 -14 16 -34.5t14 -33.5q0 -45 -35 -45q-4 0 -13.5 6t-13.5 6q-20 2 -31.5 49.5t-11.5 91.5
q0 111 24 208q23 90 78 206.5t142 222.5z" />
    <glyph glyph-name="parenright" unicode=")" horiz-adv-x="330" 
d="M263 632q-3 12 -14 27.5t-11 31.5q0 19 10 23q5 1 15 10t24 9q24 0 43 -23q12 -14 18 -70q5 -45 5 -100q0 -114 -28.5 -231.5t-89.5 -212.5q-69 -108 -161 -178q-13 -11 -30 -11q-11 0 -21 7t-10 14q0 9 -7 20t-7 16q0 6 5.5 10.5t14 9t11.5 7.5q30 30 41 30q9 0 26 17
q33 33 52 59.5t51 86.5q71 133 71 311q0 89 -8 137z" />
    <glyph glyph-name="asterisk" unicode="*" horiz-adv-x="414" 
d="M274 540q-2 5 -8.5 23.5t-11.5 27.5q-14 28 -14 40q0 8 4 12q4 5 14 11t11 7q8 8 10 9t11 1t17 -22q5 -11 13 -45q1 -4 3.5 -13t4.5 -13q5 -17 7 -17q4 0 12 13q4 7 21.5 28.5t19.5 24.5q20 31 35 31h20q14 0 19 -3q1 0 5.5 -2t6.5 -3t4 -3t2 -5q0 -11 -11 -24
q-9 -11 -17.5 -19.5l-9.5 -9.5l-18 -20q-7 -8 -21 -26q-10 -12 -10 -14t2 -2h4q1 0 9 2q50 12 78 12q31 0 31 -13q0 -7 1.5 -10t1.5 -8q0 -1 -8 -22q-10 -13 -17 -13q-9 0 -17.5 -0.5t-9.5 -0.5q-14 0 -30.5 -2t-30.5 -5t-17 -3q-13 -1 -13 -4t6 -11q3 -4 11.5 -19.5
t16.5 -28.5t11 -15q10 -7 10 -23q0 -7 -10 -17l-11 -9q-7 -10 -18 -10q-8 0 -14 8q-30 42 -48 76q-9 17 -11 17t-14 -20q-25 -41 -29 -51q-6 -14 -23 -23q-7 -4 -29 -4q-8 0 -19 7.5t-11 15.5q0 2 7 14l58 86q5 5 5 9q0 3 -27 4q-55 2 -70 4q-10 1 -14 4q-8 5 -8 18
q0 10 2 17t2 11q0 2 7 11q5 8 16 8q5 0 7 -1.5t5 -1.5q8 -1 21 -2t27.5 -2t18.5 -1q3 0 6.5 -0.5t6 -0.5t4.5 -0.5t3 -0.5h2q2 0 2 3z" />
    <glyph glyph-name="plus" unicode="+" horiz-adv-x="590" 
d="M381 304q4 1 11 1h11q10 0 58 5.5t55 5.5q23 0 37 -14q4 -4 4 -12q0 -6 -13 -40q-4 -10 -10 -10q-2 0 -7 1t-8 1q-13 0 -29 -2q-18 -2 -49.5 -5l-52.5 -5t-29 -3q-10 -2 -11 -8q-19 -51 -34 -147q-2 -12 -4 -17.5t-9 -9.5t-21 -4q-3 0 -9.5 -3t-8.5 -3q-28 0 -28 14
q0 24 3.5 43t12 46t12.5 44l7 31q0 6 -5 6h-38q-74 0 -94 10q-18 7 -18 57q0 6 9 13q7 7 18 7h6q2 0 8 -2q18 -6 71 -6h46q23 0 24 7q18 48 30 99q12 50 23 55q9 3 18.5 6.5t14.5 5t9 1.5q21 0 27 -6q5 -5 5 -10q0 -2 -2 -7t-2 -6l-42 -135q-1 -4 4 -4z" />
    <glyph glyph-name="comma" unicode="," horiz-adv-x="260" 
d="M-7 -108l68 117q19 32 38 71l12 24q7 13 13 17t20 4q19 0 33 -20q4 -7 10 -13.5t8.5 -11t2.5 -11.5q0 -5 -3 -9l-130 -198q-5 -7 -13 -13.5t-11 -6.5q-10 0 -19 3q-12 4 -19 4q-6 0 -11.5 8.5t-5.5 14.5q0 8 7 20z" />
    <glyph glyph-name="hyphen" unicode="-" horiz-adv-x="456" 
d="M423 243q-3 -3 -11 -4.5t-21 -3t-23 -4.5q-12 -3 -51 -3h-19q-35 0 -91 4t-60 4q-11 0 -23 28q-6 16 -6 26q0 7 3 13q7 12 36 12q30 0 84 -2t84 -2q11 0 38.5 2t36.5 2q37 0 37 -18q0 -40 -14 -54z" />
    <glyph glyph-name="period" unicode="." horiz-adv-x="284" 
d="M218 74q0 -15 -8 -39q-9 -23 -21 -32q-11 -9 -37 -9q-28 0 -50 35q-8 10 -8 23q0 12 8 20q12 12 13 27q2 15 10 25q8 8 33 8q35 0 52 -31q8 -15 8 -27z" />
    <glyph glyph-name="slash" unicode="/" horiz-adv-x="400" 
d="M523 653q0 -18 -13 -31q-11 -12 -23.5 -22t-17.5 -17q-45 -66 -102 -162.5t-131 -229t-101 -178.5q-23 -40 -42.5 -65.5t-25.5 -25.5q-21 0 -32 7q-22 13 -22 28t18 46q3 6 16 24t18 26l316 547q22 42 62 82q18 13 31 13q12 0 30.5 -15t18.5 -27z" />
    <glyph glyph-name="zero" unicode="0" horiz-adv-x="440" 
d="M386 577q8 0 37 -14t36 -28q24 -47 24 -112q0 -76 -46 -193q-1 -2 -6.5 -17t-12 -29.5t-24 -46t-42.5 -70.5q-29 -46 -70 -72.5t-76 -26.5q-23 0 -68.5 27t-62.5 64q-2 2 -5.5 13.5t-6.5 31t-3 37.5q0 36 15 98.5t40 113.5q43 93 162 232q7 8 41 8q12 0 31 -13
q14 -8 20 -8q3 0 6.5 2.5t10.5 2.5zM403 452q0 27 -17 51t-38 24q-10 0 -21 -11q-111 -125 -165 -269q-7 -19 -10 -35l-3 -16q-14 -54 -14 -80q0 -7 3.5 -28t6.5 -26q1 -1 3.5 -5.5t5 -7.5t6 -6.5t7.5 -5.5t9 -2q55 0 125 119q2 4 8 13t11 17t8 16q4 9 20.5 46.5t22 52.5
t15.5 45t13.5 55.5t3.5 52.5z" />
    <glyph glyph-name="one" unicode="1" horiz-adv-x="440" 
d="M346 422l-6 -6q-88 -107 -145 -170t-74.5 -79t-18.5 -17q-5 -8 -27 -8q-10 0 -14 2l-4 5q-16 9 -20 14q-15 17 -15 25q0 4 21 24q32 29 58 48t45 39q125 139 197 228q15 18 42.5 57.5t32.5 48.5q4 9 6.5 10.5t13.5 1.5q49 0 63 -30q2 -6 2 -9q0 -6 -3 -13
q-23 -57 -44.5 -128t-33.5 -117t-34 -138t-30 -124q-11 -44 -11 -62q0 -13 -5.5 -28.5t-19.5 -15.5q-7 0 -14.5 -1.5t-11.5 -1.5q-28 0 -45 14q-4 4 -4 16q0 20 5 38q3 15 10.5 31.5t9.5 24.5q6 25 34.5 132t41.5 165q4 9 4 20q0 5 -3 5q-2 0 -3 -1z" />
    <glyph glyph-name="two" unicode="2" horiz-adv-x="440" 
d="M164 223q236 226 236 341q0 15 -25 15q-33 0 -76.5 -34t-43.5 -49q0 -2 -5.5 -7.5t-12.5 -13.5t-10 -14q-9 -20 -30 -20q-6 0 -13.5 -2t-9.5 -2q-3 0 -10 4t-14.5 15t-7.5 25q0 17 3.5 25t21.5 32q26 34 90 72q33 20 57.5 25.5t66.5 5.5q24 0 61.5 -31.5t37.5 -52.5
q0 -56 -25.5 -113t-67.5 -107t-84 -92.5t-88 -88t-68 -73.5q-10 -13 -10 -17q0 -5 13 -11t70 -6q49 0 72 5t39 21q12 12 21 33.5t16 30.5q10 14 43 14q11 0 30 -18q5 -5 5 -16q0 -14 -12.5 -55t-23.5 -54q-14 -17 -51 -23.5t-127 -6.5q-148 0 -172 19q-38 32 -38 64
q0 25 142 160z" />
    <glyph glyph-name="three" unicode="3" horiz-adv-x="440" 
d="M461 588q6 -13 6 -18q0 -13 -11 -38q-8 -23 -9 -24q-52 -92 -114 -152q63 0 91 -49q14 -26 14 -65q0 -51 -37 -127q-33 -70 -74.5 -110t-105.5 -40q-44 0 -91 35t-84 79q-5 6 -6.5 8.5t-2 5t-1.5 5.5q-4 8 -4 14q0 20 24 20q4 0 13 -0.5t15 -0.5q1 0 5 1t6 1q9 0 16 -7
q4 -5 13.5 -13t14.5 -14t5 -12q0 -11 25.5 -31.5t49.5 -20.5q13 0 21 5q58 36 92 115q27 69 27 83q0 25 -12 40q-11 16 -31 16q-19 0 -31 -7q-1 0 -10 -1.5t-20 -8.5q-3 -2 -19.5 -11t-23 -12t-19.5 -7t-24 -4q-18 0 -23 5q-17 17 -17 38q0 7 46 34q8 5 13.5 9.5t8.5 7.5
l4 4q118 78 170 212q3 9 3 13q0 3 -3 3q-14 0 -26 -7q-32 -16 -66.5 -40t-34.5 -37q0 -8 -4 -13t-11.5 -9t-11.5 -8q-6 -6 -38 -6q-7 0 -17.5 18t-10.5 23q0 19 9 32t29 28t26 21q4 4 13 5q9 2 16 5.5t15.5 8.5t13.5 8q68 33 98 33q28 0 42 -10q13 -8 20 -10q19 -5 28 -23z
" />
    <glyph glyph-name="four" unicode="4" horiz-adv-x="440" 
d="M420 184q-52 -8 -74 -13q-11 -24 -18.5 -71t-7.5 -71q0 -4 -2 -9.5t-2 -8.5q-3 -18 -12 -18t-18.5 3t-14.5 6t-14.5 9t-13.5 8q-9 5 -9 21q0 3 9 59q2 11 4.5 23t4 19t1.5 8q0 8 -8 8q-13 1 -40 1.5t-41.5 1t-37 5t-42.5 12.5q-8 5 -12 9q-15 15 -27.5 35t-12.5 30
q0 1 1 5.5t1 9.5t9 16q12 14 77.5 89t115.5 127t104 97q15 11 22 22q14 21 29 21q12 0 23 -4q29 -12 29 -24q0 -24 -8 -47t-8 -28q0 -22 -32 -127.5t-38 -146.5q-1 -3 -1 -9v-5q0 -3 5 -3q7 0 33 5t64 5q14 0 22 -8.5t17 -29.5q2 -8 2 -9q0 -18 -23 -18q-31 0 -56 -5z
M339 496q-3 0 -11 -8q-70 -70 -201 -232q-4 -4 -4 -9q0 -9 5 -11q24 -14 80 -14q22 0 54 5q6 1 8 3t3 9q17 98 63 237l5 17q0 3 -2 3z" />
    <glyph glyph-name="five" unicode="5" horiz-adv-x="440" 
d="M456 540h-8q-10 0 -17 -1q-92 -6 -172 -26q-7 -1 -9 -10q-3 -11 -14 -45t-15 -50q-3 -11 -3 -16q0 -3 6 -3l12 5q12 6 32 11.5t39 5.5q79 0 113 -51q21 -30 21 -85q0 -62 -55 -164q-39 -71 -84.5 -107t-82.5 -36q-88 0 -177 95q-18 19 -21.5 24.5t-3.5 13.5q0 5 7 9
q3 2 10 9t15.5 12.5t16.5 5.5q21 0 31 -10q15 -9 27.5 -30.5t19.5 -28.5q36 -37 67 -37q9 0 27 16q54 49 88 138q3 8 6.5 23t9.5 31q12 33 12 54q0 45 -19 55q-5 3 -19 3q-53 0 -130 -77q-11 -11 -19 -11q-22 0 -50 16q-13 6 -13 13l2 8q81 260 82 264q3 12 24 21.5t34 9.5
q6 0 12.5 -3.5t8.5 -3.5q16 0 110 15q74 10 103 10q13 0 32.5 -10.5t30.5 -24.5q6 -8 6 -17q0 -11 -9.5 -19t-23.5 -8l-23 3q-23 3 -37 3z" />
    <glyph glyph-name="six" unicode="6" horiz-adv-x="440" 
d="M464 583q4 -13 4 -23q0 -15 -21 -15q-6 0 -11 0.5t-6 0.5l-5 1q-1 1 -8 1q-5 0 -19 -11q-68 -55 -122 -125.5t-76 -123.5q-9 -22 -9 -27q0 -4 3 -4q4 0 12 5q40 29 60 36q15 4 35.5 11.5t34.5 11.5t29 4q35 0 49 -17q30 -38 36 -49q2 -6 2 -7q0 -3 -1 -4l-1 -6
q-46 -152 -193 -251q-25 -17 -70 -17q-15 0 -27.5 2.5t-22 6.5t-15 7.5t-11.5 8.5t-7 5q-2 1 -10 7t-10.5 8t-9.5 7.5t-10 9t-7.5 10t-7 11.5t-4 12.5t-1.5 14.5q0 31 9 58q87 264 219 379q3 2 32.5 31.5t53.5 44.5t48 15q18 0 37 -11t21 -18zM354 221q6 11 6 23q0 5 -8 5
q-21 0 -109 -49q-21 -12 -47 -33t-34 -33q-4 -5 -14.5 -18.5t-14.5 -23t-4 -21.5q0 -10 12.5 -23t23.5 -13q14 0 43.5 16.5t54.5 42.5q45 48 91 127z" />
    <glyph glyph-name="seven" unicode="7" horiz-adv-x="440" 
d="M202 246q7 9 7 12q0 5 -9 5q-60 0 -71 11q-5 5 -11 23q-2 6 -2 16q0 1 -1 5t-1 6q0 17 16 17q13 0 22 -4q20 -8 50 -8q56 0 61 8q24 35 55.5 76t47.5 66t29 59q3 8 3 13q0 10 -38 10q-87 0 -125 -17t-38 -56q0 -7 -8.5 -11t-15.5 -4q-26 0 -37 15q-6 7 -9 27.5t-6 28.5
q-4 8 -4 27q0 26 136 43q11 1 16 2q45 5 96 5q65 0 84 -9q7 -4 16.5 -11t22.5 -21t13 -24q0 -18 -6 -31t-36 -56q-10 -16 -30 -42t-37 -48t-18 -23q-2 -4 -2 -6q0 -4 11 -4q4 0 12.5 1t11.5 1q39 0 59 -21q9 -9 9 -15q0 -29 -9 -29q-3 0 -10.5 1.5t-19.5 1.5q-30 0 -48.5 -3
t-38 -8.5t-41.5 -8.5q-139 -200 -139 -268q0 -12 -8 -12q-5 0 -12 -8.5t-16 -8.5q-21 0 -36 19q-3 4 -9 10t-9 10t-3 7q0 21 24.5 68t101.5 163z" />
    <glyph glyph-name="eight" unicode="8" horiz-adv-x="440" 
d="M202 354q0 7 -0.5 16t-0.5 13q0 217 111 257q11 4 27 4q22 0 53 -11q10 -3 17 -12.5t13 -12.5q31 -13 57.5 -48.5t42.5 -76.5q5 -8 5 -30q0 -38 -37 -59q-136 -70 -205 -100q-2 -6 -2 -23v-14q0 -10 1 -17q6 -83 6 -137q0 -125 -40 -130q-1 0 -10.5 -3t-18.5 -3
q-35 0 -58 13q-52 33 -92.5 81t-40.5 100q0 26 10 47.5t30 38.5t37 27.5t44 25t39 21.5q9 5 10.5 9.5t1.5 23.5zM393 543q-7 0 -16 26q-2 8 -4 8q-3 0 -9 -2q-36 -16 -57 -51q-9 -13 -16 -48.5t-7 -75.5q0 -18 6 -18q9 0 46 20q3 1 41 18t59 33q14 11 14 25q0 35 -18 51
q-19 18 -30 18q-2 0 -4 -2t-5 -2zM196 52q11 34 11 80q0 23 -1.5 47t-2.5 39t-1 17q0 8 -5 8q-3 0 -10 -3q-35 -15 -56 -39t-21 -52q0 -32 16 -54q40 -55 60 -55q7 0 10 12z" />
    <glyph glyph-name="nine" unicode="9" horiz-adv-x="440" 
d="M530 555q0 -25 -22 -56q-9 -13 -13 -24q-14 -38 -56 -117t-59 -135q-7 -23 -24 -70t-27.5 -82.5t-15.5 -69.5q-1 -8 -14 -16q-11 -7 -20 -7q-10 0 -19 5q-37 24 -37 37q0 4 8 25q14 38 87 242q7 20 7 24q0 3 -3 3t-25 -12q-35 -18 -41 -20q-13 -4 -24 -5t-16 -3
q-26 -8 -43 -8q-23 0 -38 11q-2 2 -12.5 7.5t-16.5 12t-15 19.5q-2 3 -8 10.5t-9 14t-3 15.5q0 17 6 29q17 32 41 58.5t56.5 49t55.5 36.5t65 36t59 31q9 6 35.5 14.5t42.5 8.5q21 0 29 -6q5 -4 17 -11.5t22 -15.5q30 -24 30 -31zM437 552q-3 0 -10 -3q-11 -5 -49 -23
t-53.5 -26t-47 -26t-50 -32.5t-41.5 -36.5t-40 -47q-8 -13 -8 -14q0 -13 17 -13q13 0 31 6q89 30 161.5 92.5t90.5 109.5q2 8 2 10q0 3 -3 3z" />
    <glyph glyph-name="colon" unicode=":" horiz-adv-x="290" 
d="M258 105q6 -4 11 -20t5 -32q0 -34 -10 -38q-30 -14 -43 -14q-5 0 -9 0.5t-7.5 2t-5.5 2.5t-4.5 3.5t-3 3.5t-3 4.5t-3.5 4.5q-4 6 -11 12t-10.5 10.5t-3.5 11.5q0 2 1 5.5t2.5 11l3.5 17.5q3 17 13.5 31t24.5 14q10 0 19 -4.5t19 -13.5t15 -12zM315 335
q-5 -17 -13.5 -28.5t-14 -15.5t-8.5 -4q-13 0 -32 7q-40 12 -40 39q0 14 2.5 25t4.5 16t7 12.5t6 9.5q8 18 12.5 21t20.5 3t38 -18q22 -17 22 -30q0 -24 -5 -37z" />
    <glyph glyph-name="semicolon" unicode=";" horiz-adv-x="280" 
d="M179 107q17 -5 17 -28v-13q0 -10 -3.5 -16.5t-9 -11t-6.5 -6.5q-20 -32 -64 -107t-74 -120q-8 -12 -26 -12q-7 0 -17.5 2.5t-15.5 2.5q-20 1 -20 33q0 3 1.5 5.5t4.5 6.5l6 8q43 64 89 152.5t54 102.5t13 16q8 5 9 5q8 0 16.5 -4t16 -9.5t9.5 -6.5zM290 354q0 -24 -3 -31
q-12 -35 -26 -35q-5 0 -24 -0.5t-27 -0.5q-21 0 -31.5 9.5t-10.5 19.5q0 39 20 68q17 26 32 26q22 0 38 -19q8 -9 17 -16.5t12 -11t3 -9.5z" />
    <glyph glyph-name="less" unicode="&#x3c;" horiz-adv-x="590" 
d="M451 115q10 0 19 -8t9 -17q0 -4 -1.5 -7.5t-4 -6t-8.5 -9t-11 -12.5q-13 -16 -34 -16t-82 34q-23 12 -45 25.5t-63.5 40.5t-81.5 52q-18 12 -18 28q0 6 7 25q1 3 3 5l3 3q3 3 8 14q2 8 11 14t50 31q105 59 164 94q80 48 104 57q3 1 12 5t16 4q11 0 19.5 -9t8.5 -18
q0 -4 4.5 -13t4.5 -12q0 -4 -3.5 -13.5t-6.5 -9.5q-12 0 -51 -25q-5 -3 -18 -7t-34 -15q-76 -41 -153 -87q-43 -26 -43 -29q0 -4 13 -12l46 -29q46 -30 68 -41q66 -36 88 -36z" />
    <glyph glyph-name="equal" unicode="=" horiz-adv-x="590" 
d="M320 366l78 4q8 0 69 6.5t69 6.5q24 0 34 -10q4 -4 4 -17q0 -20 -9 -40q-3 -8 -16 -8q-29 0 -64 -3l-157 -14q-5 -1 -16 -1h-16q-33 0 -81 4t-59 7q-17 5 -17 56q0 2 9 15q4 6 15 6h6q2 0 10 -2q48 -11 105 -11h17q12 0 19 1zM358 239q41 0 101 9q34 5 60 5q20 0 29 -8
q11 -9 11 -16q0 -5 -11 -45q-1 -7 -9 -7q-4 0 -12 1t-12 1h-10q-7 0 -10 -1q-76 -14 -189 -14h-28q-121 0 -127 6q-10 7 -19.5 22t-9.5 35q0 3 3 6q3 4 4 7q3 8 18 8q4 0 23 -3t51 -5.5t69 -2.5q6 0 30 1t38 1z" />
    <glyph glyph-name="greater" unicode="&#x3e;" horiz-adv-x="590" 
d="M296 373q-24 13 -39 22.5t-26 14.5q-18 7 -18 32q0 9 5 19q4 7 7.5 14t5 10.5t3.5 6.5t5 4t7 1q5 0 12 -6.5t19 -12.5q20 -10 26.5 -17t20.5 -15q61 -34 208 -126q18 -12 18 -28q0 -13 -7 -25q-4 -5 -7 -9l-4.5 -6t-3 -3.5l-2.5 -2.5q-4 -9 -13.5 -16.5t-42.5 -27.5
q-20 -11 -61 -34.5t-83 -48.5t-44 -26q-49 -31 -63 -36.5t-41 -5.5q-32 0 -36 16q-2 7 -6 15t-4 11q0 11 11 19q6 4 13 6.5t26 11.5t49 25q10 6 79 44t92 52q30 16 36.5 21t6.5 10q0 4 -18 14q-112 68 -131 77z" />
    <glyph glyph-name="question" unicode="?" horiz-adv-x="360" 
d="M440 572q0 -41 -15.5 -66t-93.5 -102q-27 -26 -51 -53.5t-35.5 -44.5t-11.5 -21q0 -17 39 -17q6 0 17.5 1t17.5 1q18 0 30 -4t17.5 -8t6.5 -4q9 0 14 -13q6 -10 6 -21q0 -13 -17 -15q-1 0 -12.5 -3t-17.5 -3q-92 0 -140 20q-14 6 -19.5 11t-13.5 19q-9 16 -9 23q0 2 -1 5
t-1 5q0 11 6 17q2 1 3 5t3 6q30 55 128 156q74 78 74 96q0 14 -15.5 24.5t-28.5 10.5q-20 0 -42 -22q-8 -8 -8 -24q0 -2 1 -10.5t1 -12.5q0 -21 -24 -21t-40 22q-7 8 -7 37q0 42 22 62q34 31 84 31q46 0 84 -21q49 -28 49 -66zM256 45q0 -27 -9 -36q-26 -26 -50 -26
q-26 0 -37 15q-2 2 -8 8.5t-9 11.5t-3 9q0 16 5 28q7 27 16.5 35t23.5 8q11 0 41 -20.5t30 -32.5z" />
    <glyph glyph-name="at" unicode="@" horiz-adv-x="700" 
d="M482 603q-20 0 -43.5 -6t-55.5 -21t-67 -49.5t-65 -84.5q-68 -111 -68 -228q0 -76 43.5 -122.5t116.5 -46.5q82 0 153 51q14 10 26 10q36 0 48 -30q2 -4 5.5 -7t5 -8t1.5 -16q0 -6 -16 -11l-13 -4q-2 0 -9 -4q-85 -58 -188 -58q-33 0 -76.5 14.5t-67.5 33.5
q-57 45 -80.5 94.5t-23.5 117.5q0 142 87 280q54 86 127.5 125t135.5 39q65 0 110.5 -17.5t88.5 -60.5q26 -28 39.5 -47t25 -55.5t11.5 -84.5q0 -114 -77 -213q-40 -53 -95 -53q-27 0 -64 22q-18 11 -27 41q-2 10 -5 10q-2 0 -11 -11q-15 -21 -39.5 -39t-47.5 -18
q-20 0 -56 27q-38 25 -38 78q0 42 22 98t52 90q68 76 119 76q19 0 46 -18.5t35 -31.5q8 -10 8 -22q0 -7 16 -16q9 -5 9 -13q0 -12 -4 -21q-35 -80 -43 -105t-8 -53q0 -8 5 -16t13 -8q35 0 75 68t40 151q0 52 -16 88t-43.5 53.5t-55.5 24.5t-61 7zM512 439q0 5 -7.5 11.5
t-11.5 6.5q-31 0 -72.5 -51t-52.5 -84q-3 -9 -12 -27t-11 -29q-3 -9 -3 -35q0 -14 11 -14q13 0 26 12q39 35 70 75.5t31 50.5q0 2 -3 5.5t-3 7.5q0 12 9 21q29 31 29 50z" />
    <glyph glyph-name="A" unicode="A" 
d="M460 -73q0 -4 -2 -8t-4.5 -6t-7 -6t-6.5 -5q-5 -4 -11 -4q-33 0 -51 18q-19 19 -19 127q0 22 2 66t2 68q0 4 -6 4q-142 -53 -203 -61q-9 -1 -15 -14q-16 -36 -16 -70q0 -15 0.5 -26t1 -15.5t1 -8.5t0.5 -6q0 -3 -5 -6q-3 -2 -11 -9t-14 -10t-13 -3q-3 0 -19 9
q-17 10 -22.5 23.5t-5.5 44.5q0 18 3 38.5t6.5 34t3.5 14.5q0 4 -6 7q-20 11 -26 16.5t-6 14.5q0 15 6 33.5t9 21.5q4 4 11 4q8 0 22.5 -8.5t20.5 -8.5q4 0 12 14q120 222 272 451q17 25 22 25q4 0 27.5 6t36.5 6q29 0 34 -9q2 -6 5 -9t3 -7t-7.5 -48.5t-7.5 -46.5
q0 -14 -3 -33q-6 -34 -11.5 -95t-8 -103t-2.5 -47q0 -6 6 -6q1 0 18 2t34 2q44 0 61 -19q6 -7 6 -11q0 -6 -4 -13q-16 -26 -72 -26q-28 0 -44 -10q-10 -8 -11 -20l-5 -100q0 -3 -0.5 -13.5t-0.5 -17.5v-32q0 -36 5 -61.5t10 -36.5zM365 267q24 178 24 268q0 16 -3 16
q-4 0 -9 -8q-100 -159 -180 -309q-12 -21 -12 -26q0 -4 6 -4q8 0 43 9.5t57 18.5q16 6 32 11.5t24.5 8.5t10.5 4q6 4 7 11z" />
    <glyph glyph-name="B" unicode="B" horiz-adv-x="574" 
d="M389 665q27 15 69 15q59 0 97 -33q21 -18 21 -36q0 -46 -87 -148l-20 -24q-9 -10 -18 -23l-12 -17q-1 -2 -3 -5q-2 -2 -2 -3q0 -3 4 -4q10 -5 32.5 -6.5t31.5 -4.5q51 -19 76 -67q7 -11 7 -34q0 -21 -4.5 -42.5t-9 -36.5t-17 -39t-19 -35t-25 -39.5t-25.5 -39.5
q-47 -76 -161 -76q-76 0 -105 18q-4 2 -13 6t-19 9.5t-18 13.5q-4 -2 -7 -2h-8q-7 0 -13 2t-13.5 7t-10.5 7.5t-12 10.5t-10 9q-6 4 -6 12t-21 30.5t-21 27.5q-1 9 -9 21.5t-8 23.5q0 10 11.5 13.5t44.5 3.5q4 0 10.5 -2t8.5 -2q8 0 11 13q43 185 93 316q0 3 -3 7
q-9 14 -9 33q0 9 6 13q20 8 31.5 25t23.5 53q11 28 19 37.5t18 9.5q12 0 34.5 -13t35.5 -13q10 0 24 8zM440 330q-45 0 -129 -55q-49 -33 -82 -33q-7 0 -10 -8q-1 -1 -1 -2q-31 -112 -31 -140q0 -8 7 -15q63 -63 132 -63q38 0 67 38.5t72 127.5q25 52 25 106q0 18 -10 32
q-9 12 -40 12zM478 612q0 6 -5 6q-71 0 -143 -52q-9 -6 -12 -14l-10 -22q-1 -4 -4 -11t-5 -11q-4 -13 -21 -57.5t-28.5 -79.5t-11.5 -47q0 -4 4 -4q6 0 23.5 12t29.5 28q2 3 7 9.5t9 12t7 8.5q8 9 32 35t43 47.5t33 41.5q18 24 30.5 47t17 35t4.5 16z" />
    <glyph glyph-name="C" unicode="C" horiz-adv-x="472" 
d="M520 656q3 -5 14.5 -15.5t20.5 -22.5t12 -24q1 -3 1 -11t-8 -28q-30 -71 -35 -88q-5 -19 -31 -19q-5 0 -16.5 2t-12.5 2q-7 0 -20 11t-13 19q0 21 16.5 45.5t18.5 35.5q0 2 6 12.5t6 17.5q0 15 -9 15q-17 0 -43.5 -13t-41.5 -27q-45 -42 -112 -135q-76 -104 -127 -271
q-5 -11 -5 -48v-10q0 -8 4 -20t9 -15q4 -3 11.5 -10.5t11 -10t9 -5.5t11.5 -3q72 0 198 126q13 13 19 16.5t19 3.5h16q23 0 34 -19q6 -10 6 -16q0 -2 -13 -15l-36 -36t-39 -38t-37.5 -31.5t-43 -29t-43.5 -17t-51 -7.5q-48 0 -78 14q-26 11 -53 34.5t-28 42.5q-5 38 -5 61
q0 26 5 60t8 40q112 316 305 428q8 6 35.5 11.5t47.5 5.5q24 0 43 -9q9 -4 14 -9z" />
    <glyph glyph-name="D" unicode="D" horiz-adv-x="554" 
d="M602 547q20 -26 20 -82q0 -44 -27 -95q-4 -7 -8 -19t-10 -23q-32 -66 -58 -112.5t-63 -97.5t-81.5 -86.5t-96.5 -54.5q-11 -4 -32 -4q-32 0 -75 13q-1 -9 -27 -9q-13 0 -30 11.5t-25 25.5q-85 35 -85 71q0 17 20 17q4 0 16 -1.5t21 -1.5q7 0 15 -5.5t12 -5.5t6 3
q44 173 122 365q0 5 -0.5 5.5t-3.5 0.5t-20.5 -11.5t-27.5 -11.5q-7 0 -13.5 6.5t-6.5 15.5q0 36 9.5 50t61.5 50q111 74 211 74q63 0 96 -23l19.5 -13t21.5 -14.5t19 -15.5t20 -22zM523 540q-25 35 -67 35q-23 0 -64 -14t-42 -14q4 -4 4 -7q0 -10 -8 -17.5t-11 -14.5
q-6 -14 -33 -73t-35.5 -79.5t-29 -71t-30 -80.5t-20 -72.5t-15.5 -80.5v-2q0 -4 5 -6q0 -1 1 -1q7 -3 31 -3q54 0 96 42q125 124 207 326q23 59 23 81q0 31 -12 52z" />
    <glyph glyph-name="E" unicode="E" horiz-adv-x="508" 
d="M679 608q0 -19 -15 -19q-4 0 -12 -3t-13 -3q-3 0 -14 5t-22 5q-111 0 -252 -47q-9 -4 -12 -12q-9 -24 -27 -70t-28 -71q0 -4 4 -4q7 3 26.5 10t30.5 11t28 9t32 7t30 2q37 0 75 -20q13 -8 13 -32q0 -8 -19 -14t-29 -6q-6 0 -17.5 1.5t-15.5 1.5q-27 0 -57 -8t-63.5 -20.5
t-50.5 -16.5l-17 -6q-10 -3 -13 -10q-28 -63 -40.5 -92t-24 -67t-11.5 -63q0 -12 8.5 -23t16.5 -11q37 0 81 19l37.5 15t30.5 13q17 8 49 28t59 32t54 12q9 0 10 -3q1 -1 16 -12.5t15 -18.5q0 -11 -6 -13q-13 -4 -22 -13q-19 -15 -27 -20q-47 -25 -72.5 -37.5t-70.5 -30.5
t-89 -25.5t-92 -7.5q-11 0 -38 11t-39 30q-8 13 -8 51q0 29 7 62t13.5 52.5t22.5 59.5t20 52q-13 13 -13 31v6q0 4 2 6q2 4 29 12q10 4 15 14q42 94 50 126q0 5 -4 5q-2 0 -15 -4t-22 -4q-12 0 -19 4q-10 6 -18 22.5t-8 27.5q0 6 6 7q55 14 181 62q38 16 121 33.5t150 17.5
q20 0 34 -6q49 -24 49 -50z" />
    <glyph glyph-name="F" unicode="F" horiz-adv-x="446" 
d="M639 615q4 -5 4 -21q0 -13 -4 -15q-1 0 -2 -1q-20 -11 -42 -11q-1 0 -13.5 11t-33.5 11q-13 0 -35.5 -5.5t-30.5 -6.5q-25 -3 -65 -14t-53 -14q-11 -4 -11 -16v-8q0 -3 -2 -7q-3 -6 -17.5 -33t-19.5 -37t-15 -31t-15.5 -38t-10.5 -35q0 -5 7 -5q39 9 169 34q11 3 19 3
q2 0 8 -2l10 -4q26 -11 33 -18t7 -19t-11 -14q-198 -39 -260 -54q-9 -3 -12 -10q-11 -22 -22.5 -67t-20.5 -65q-5 -12 -7 -20q-9 -33 -9 -69q0 -11 1 -17.5t1 -9.5q0 -7 -5 -10.5t-9 -3.5q-35 0 -66 18q-7 4 -7 12q0 18 2.5 37.5t7.5 42t8.5 36.5t12 41.5t10.5 35.5q2 6 2 7
v5q0 10 -15 10q-14 0 -23.5 9t-9.5 21q0 1 -3 7t-3 10q0 5 6 6q15 6 36.5 10t29.5 7q7 1 10 9q12 29 37 91t37 92q0 5 -4 5t-45 -19t-50 -19q-13 0 -26 13.5t-13 20.5q0 8 6.5 19.5t7.5 13.5q1 5 7 7q58 13 155 53q7 3 16.5 6t12.5 4q12 3 56 15t66 17t56 10.5t60 5.5
q62 0 90 -37z" />
    <glyph glyph-name="G" unicode="G" horiz-adv-x="596" 
d="M616 627q30 -23 30 -54q0 -25 -5.5 -48.5t-12.5 -41.5t-7 -20q-5 -11 -18.5 -25t-24.5 -14q-5 0 -13 4.5t-9 4.5q-24 5 -28 15q-1 3 -5.5 9t-4.5 8q0 9 11.5 21t13.5 21t12 23.5t10 45.5q0 25 -31 25q-13 0 -30 -4q-22 -5 -44.5 -18t-34.5 -23.5t-35.5 -33t-28.5 -27.5
l-27 -26q-65 -64 -112.5 -151t-68.5 -175q-6 -28 -6 -44q0 -20 1.5 -30.5t3 -13t5 -7t5.5 -10.5q5 -14 35 -14q17 0 48 13.5t60 38.5q45 39 79.5 67.5t48.5 40t24 21.5q42 45 42 57q0 5 -7 5q-9 0 -44.5 -11.5t-42.5 -11.5q-32 0 -41 8q-22 17 -23 24q-1 3 -1 7q0 15 3 20
t16 7q10 2 23.5 3t21.5 3q56 16 62 18q33 11 64 11q10 0 33 -21.5t23 -36.5q0 -12 -16 -45q-37 -78 -52.5 -150.5t-15.5 -116.5q0 -6 -14.5 -14.5t-22.5 -8.5q-11 0 -17 3.5t-15 3.5q-10 0 -13 3.5t-3 12.5q0 16 5.5 43t10.5 48t5 22q0 3 -3 3q-4 0 -34 -28
q-53 -49 -83.5 -66t-78.5 -30q-23 -6 -40 -6q-55 0 -91 38q-46 49 -46 83q0 32 6.5 70.5t24.5 96t59.5 127t101.5 135.5q45 49 108.5 95t109.5 55q11 3 35 3q23 0 57.5 -12t51.5 -25z" />
    <glyph glyph-name="H" unicode="H" horiz-adv-x="562" 
d="M611 380q20 0 34 -7q6 -3 10 -3q15 0 30 -24q2 -3 4.5 -6t3 -4.5t1 -5t0.5 -9.5q0 -14 -8 -14q-24 0 -49.5 -3t-42 -6t-45 -9.5t-40.5 -8.5q-12 -3 -16 -10q-8 -14 -14.5 -31t-12.5 -40.5t-10 -34.5q-21 -63 -38 -204q-2 -13 -23 -13q-17 0 -39 8q-14 6 -20 36
q-2 14 -2 15q0 15 4 28q7 24 22 89t25 95q4 9 4 23q0 11 -11 11l-140 -28q-11 -3 -15 -9q-12 -22 -24 -74t-14 -56q-4 -5 -4 -25q0 -10 2.5 -25t2.5 -19q0 -11 -1 -16.5t-5.5 -9t-13.5 -3.5q-20 0 -28 6q-6 6 -14.5 9t-13.5 7q-11 11 -14 11q-6 0 -6 10q0 22 4 37l3 16
q1 12 10 53.5t9 48.5q0 5 -4 5q-2 0 -20.5 -3t-30.5 -3q-42 0 -62 24q-3 5 -7 22t-4 22q0 14 16 14q6 0 21 -4.5t23 -4.5q9 0 40.5 5t47.5 10q6 3 10 8q9 19 20.5 59.5t19.5 59.5q75 177 129 276q7 12 30 12q5 0 9 -2t12.5 -6.5t18.5 -7.5q15 -5 15 -17q0 -10 -3 -15
q-39 -55 -82.5 -162t-61.5 -143q-6 -10 -6 -23q0 -10 6 -10q93 14 153 33q10 4 14 13q26 55 45 114l40 119q1 6 7 10q2 1 5 4t5 4.5t6.5 3t9.5 1.5t15.5 -1.5t18.5 -1.5q11 0 20 -6.5t9 -16.5q0 -18 -10 -47q-10 -27 -33 -79.5t-33 -81.5q0 -8 7 -8t39 9.5t40 9.5z" />
    <glyph glyph-name="I" unicode="I" horiz-adv-x="254" 
d="M352 609q0 -25 -5.5 -37.5t-24.5 -31.5q-7 -7 -13 -24q-41 -105 -156 -453q-2 -8 -2 -10t1 -6.5t1 -8.5q0 -26 -19 -61q-3 -4 -13 -4q-6 0 -12 -10q-5 -8 -9 -8t-8 5t-9 5q-7 0 -18 7.5t-13 7.5q-6 0 -6 6t6.5 35t12.5 40q5 9 9 24q24 93 78.5 255t62.5 188
q3 8 15.5 33.5t24.5 64.5q3 12 40 12q17 0 37 -9t20 -20z" />
    <glyph glyph-name="J" unicode="J" horiz-adv-x="400" 
d="M324 140q-24 -73 -57 -128q-26 -43 -60 -71t-65 -28q-16 0 -38.5 12.5t-29.5 14.5q-35 12 -53.5 55t-18.5 102q0 51 9 88q5 21 15.5 38t19.5 17t18.5 -2t12.5 -2q13 0 24 -11t11 -25q0 -9 -8 -23.5t-11 -25.5q-2 -9 -5 -15.5t-4.5 -9.5t-2.5 -14t-1 -32q0 -31 7.5 -53
t15.5 -30t15 -8q20 0 36.5 11t37.5 46q34 58 61 137q54 153 81 219.5t83 192.5q0 4 -6 4q-21 -4 -57 -14t-47 -12q-9 -3 -17 -8q-19 -13 -56 -13q-21 0 -36 3q-12 3 -15 14q-1 5 -3 6l-4 3q0 1 -1.5 2.5t-2 3.5t-0.5 5q0 12 7 38q2 8 11 8q32 0 135.5 22.5t148.5 22.5
q10 0 37 -18q22 -16 22 -26q0 -17 -6.5 -29t-18.5 -26.5t-19 -27.5q-104 -216 -165 -413z" />
    <glyph glyph-name="K" unicode="K" horiz-adv-x="532" 
d="M382 627q7 -7 7 -21q0 -5 -7 -15q-64 -95 -111 -203q0 -5 7 -5q6 0 21 5l6 1q20 8 22 9q201 100 318 240q4 6 10 6q30 0 52 -19q3 -2 8 -3.5t6 -2.5q6 -6 6 -11q0 -4 -9 -15q-92 -112 -235 -199q-36 -21 -149 -79q-14 -8 -14 -18q0 -9 8 -27q6 -12 9.5 -25.5t7.5 -21.5
q21 -45 69.5 -111.5t95.5 -113.5q20 -20 29 -24q42 -20 42 -42q0 -17 -15 -19q-8 -1 -12.5 -4t-14.5 -3q-63 0 -114 66q-9 11 -32.5 37t-34.5 39q-78 97 -121 232q-2 5 -4 5q-4 0 -5 -4q-74 -147 -95 -270q-1 -10 -19 -21q-10 -6 -18 -6q-5 0 -7.5 2.5l-7 7t-11.5 7.5
q-29 11 -29 24t5 29q86 270 233 553q7 14 14 19q4 2 10.5 9t13 11.5t14.5 4.5q5 0 11 -2q3 -2 6 -5.5t10 -6.5q2 -1 7 -2t9.5 -3t7.5 -5z" />
    <glyph glyph-name="L" unicode="L" horiz-adv-x="450" 
d="M405 628q0 -15 -7 -30t-7 -21q0 -5 -6 -9q-27 -22 -51 -85q-4 -10 -12.5 -26.5t-14.5 -29.5q-71 -152 -136 -342q-4 -9 -4 -21q0 -7 4.5 -13t10.5 -6q10 0 42 8q83 22 201 69q6 2 18 2q9 0 26 -7.5t28 -18.5q7 -7 7 -12q0 -1 3 -6t3 -11q0 -9 -3 -14q-6 -10 -42 -10h-10
q-1 0 -9 -2q-37 -9 -92.5 -29.5t-104.5 -33.5t-97 -13q-38 0 -82 58q-4 4 -4 14q0 14 17 56q1 4 3 18t10 35q27 79 61 158t88 192t72 153q5 11 31 11q4 0 10.5 -5t17.5 -8q10 -2 19.5 -8.5t9.5 -12.5z" />
    <glyph glyph-name="M" unicode="M" horiz-adv-x="654" 
d="M396 657q0 -6 -25 -103q-9 -33 -9 -105q0 -1 0.5 -14.5t1 -44.5t0.5 -75q0 -12 6 -12q3 0 12 11q38 43 139.5 135.5t143.5 147.5q8 10 14 10q15 0 28 -4t16 -4q2 0 7.5 -5t11 -15t5.5 -21q0 -2 -5 -10q-81 -122 -125 -264t-64 -350q-3 -23 -7 -23q-3 0 -10.5 4t-12.5 4
q-3 0 -5 -2t-6 -2q-18 0 -40 19l-7 7q-1 1 -1 5q0 6 17.5 113.5t22.5 128.5q6 38 51 173q0 4 -4 4q-2 0 -5 -3q-98 -98 -141 -151q-8 -10 -13 -10q-1 0 -5 1.5t-12.5 3.5t-18.5 4q-35 6 -46 23q-16 25 -21 91v97q0 5 -3 5t-12 -17q-36 -68 -76 -179q-62 -169 -62 -236
q0 -5 -7 -11t-12 -6q-8 0 -14 -5t-9 -5q-4 0 -19 8t-18 8q-6 0 -13 12.5t-7 24.5q0 22 16.5 54t17.5 38q30 117 128 326t107 232q9 19 11 19q4 0 6.5 -0.5t4.5 -1t6.5 -1.5t9.5 -2q37 -7 46 -16q6 -6 6 -11z" />
    <glyph glyph-name="N" unicode="N" horiz-adv-x="598" 
d="M426 -22q-15 0 -36 11q-26 13 -35.5 25t-16.5 34q-21 68 -43 215t-27 170q-4 14 -8 14q-3 0 -8 -14q-4 -14 -22.5 -73.5t-33 -107.5t-29 -113t-19.5 -112q-3 -31 -3 -36q0 -18 -37 -18q-11 0 -17.5 1t-9 2.5t-6 4t-6.5 4.5q-15 7 -15 15q0 12 10.5 54t26.5 98t30.5 104.5
t28.5 94.5l14 46l9 34q28 108 41 162q2 9 11 11t9 7q0 3 -7.5 20t-7.5 37q0 7 10 11q25 9 60 9q9 0 14 -14q34 -103 56 -296.5t47 -283.5q4 -15 8 -15q1 0 9 15q16 34 30 68.5t28 77.5t22.5 69t24.5 80.5t22 73.5q3 11 8.5 26.5t9.5 28.5q4 16 7.5 52.5t9.5 55.5q4 15 7 18
t14 3q8 0 22 -3t19 -3q9 0 22.5 -14t13.5 -19q0 -18 -11 -38l-14 -40q-7 -21 -64.5 -200t-106.5 -300q-8 -20 -14 -26q-26 -26 -47 -26z" />
    <glyph glyph-name="O" unicode="O" horiz-adv-x="490" 
d="M448 601q71 -64 71 -175v-15q0 -21 -10 -57q-52 -216 -133 -317q-49 -61 -139 -61q-30 0 -60 9q-32 10 -57 48q-32 49 -32 114q0 177 121 351q60 88 117 122q19 11 26 11q8 0 22 -6q32 -16 52 -16q13 0 22 -8zM381 546q0 10 -7 10q-12 0 -41 -30q-104 -109 -147 -247
l-8 -25q-4 -13 -4 -37q0 -2 -2.5 -29t-2.5 -40q0 -62 34 -96q9 -9 33 -9q19 0 38.5 10.5t30.5 26.5q67 103 96 209t29 152v21q0 8 -1 12q-9 53 -42 64q-6 2 -6 8z" />
    <glyph glyph-name="P" unicode="P" horiz-adv-x="490" 
d="M573 442q-64 -118 -175 -204q-11 -8 -42.5 -18.5t-58.5 -10.5q-13 0 -23.5 3t-14.5 5.5t-13 9.5t-12 9q-5 4 -8 4q-4 0 -8 -13q-20 -64 -40.5 -145.5t-20.5 -94.5q0 -7 -7 -11q-11 -8 -23 -8q-10 0 -13 3q-8 8 -19 12.5t-18 11.5q-3 3 -3 6q0 4 4 19q2 8 8.5 37.5t13 54
t12.5 38.5q6 10 6 19q0 13 17.5 63.5t19.5 62.5q0 5 -4 8q-19 17 -19 25q0 10 6 11q1 0 6 3.5t11.5 6t14.5 2.5q3 0 4 4q7 21 14.5 40.5t11 32t7.5 28.5q-3 5 -6 5q-5 0 -13 5t-12 9t-6.5 8.5t-4.5 6.5q-7 7 -7 11q0 20 35 42q66 43 103 64t99.5 43t119.5 22q18 0 26.5 -1
t20 -5.5t23.5 -14.5q19 -16 26.5 -29.5t7.5 -41.5q0 -26 -7.5 -52t-14 -39t-24.5 -47zM534 588q0 4 -1 6t-6.5 3t-17.5 1q-7 0 -18 -3q-9 -3 -42 -10.5t-47 -12.5t-37 -17t-39 -28q-6 -16 -20.5 -53t-22 -58t-17.5 -52t-15 -56q43 -37 58 -37q7 0 15 6q102 67 162 178
q48 88 48 133z" />
    <glyph glyph-name="Q" unicode="Q" horiz-adv-x="554" 
d="M568 576q36 -30 36 -128q0 -54 -38.5 -135.5t-104.5 -169.5q-3 -4 -3 -10q31 -60 77 -121t81 -86q13 -9 13 -13q0 -17 -30 -17q-44 0 -69 20q-62 52 -122 139q-5 7 -8 7q-4 0 -7 -4q-32 -34 -75 -55.5t-69 -21.5q-41 0 -57 7q-5 1 -16 8t-23.5 16t-16.5 11q-31 16 -44 70
q-10 41 -10 83q0 59 19 122q9 29 11 33q72 146 156 217q9 7 22.5 15t18.5 12q35 23 78 36.5t63 13.5q16 0 40 -11q2 -1 31.5 -12t46.5 -26zM486 561q-33 0 -71 -18q-102 -50 -179 -168q-68 -101 -68 -205q0 -121 51 -121q47 0 131 84q5 5 5 13q-65 127 -68 143q-5 15 -5 25
q0 18 26 18q12 0 26.5 -6t24.5 -6q13 0 18 -15q20 -64 22 -67q9 -16 12 -16t12 11q39 50 69 119.5t30 123.5q0 46 -8 65.5t-28 19.5z" />
    <glyph glyph-name="R" unicode="R" horiz-adv-x="494" 
d="M532 576q15 -28 15 -71q0 -88 -78 -172q-18 -20 -45.5 -35t-48.5 -22.5t-68 -20.5q-9 -7 -9 -9q8 -19 36 -62.5t32 -50.5q4 -6 10 -14q24 -28 31 -35l25 -24q33 -31 74 -40q9 -2 19.5 -21t10.5 -34t-31 -15q-32 0 -85 33q-25 15 -47.5 35.5t-37 36.5t-33.5 44.5t-27.5 43
t-28 49.5t-26.5 47q-4 7 -8 7q-6 0 -9 -10q-19 -60 -31 -126.5t-12 -95.5q0 -18 -41 -18q-6 0 -8 0.5t-7 3.5l-10 6q-22 9 -22 22q24 169 102 393q9 23 13 27q5 7 13 30t11 29q0 4 -4 4q-6 0 -21 18t-15 26q0 6 2 8l5 5q98 71 209 71q51 0 81 -11q17 -6 28 -14
q19 -13 24.5 -19.5t11.5 -18.5zM456 566q-14 14 -44 14q-29 0 -63 -12q-10 -3 -13 -9q-58 -101 -99 -225q0 -6 3 -7q10 -7 26 -7q13 0 34 7q6 2 13 3t14.5 3.5t19.5 10.5q50 32 83 82t33 112q0 21 -7 28z" />
    <glyph glyph-name="S" unicode="S" horiz-adv-x="432" 
d="M451 596q27 -29 36 -82l4 -18q2 -12 2 -14q0 -13 -21 -13q-7 0 -17 3q-21 6 -44 35l-10 33q-10 32 -28 42q-10 6 -22 6q-4 0 -9.5 -9t-10 -28t-4.5 -42q0 -40 14 -99q5 -21 21.5 -79.5t30 -112.5t19.5 -89q7 -37 7 -66q0 -30 -17 -54t-45 -35q-8 -3 -39 -3
q-66 0 -128.5 35t-111.5 96q-1 1 -10.5 11t-13.5 15.5t-11.5 17t-12.5 25t-8 29.5q-2 10 -2 15v15q0 8 7 18.5t15 10.5q28 0 51 -14q13 -8 24 -19.5t11 -15.5q0 -7 -3.5 -18t-3.5 -22q0 -2 6 -16q20 -35 59.5 -67.5t81.5 -46.5q11 -4 26 -4q13 0 23.5 11t10.5 26q0 44 -5 77
q-9 61 -38 163t-39 151q-9 33 -9 77q0 19 1 22t4.5 21t6.5 26t9 20.5t17 18t26 5.5q97 0 150 -58z" />
    <glyph glyph-name="T" unicode="T" horiz-adv-x="388" 
d="M618 581q0 -24 -13 -30q-2 -1 -7 -4t-10.5 -5t-12.5 -2q-4 0 -8.5 5t-12.5 8q-30 11 -32 11q-68 0 -149 -15q7 -7 7 -12l-2 -6q-131 -221 -175 -456q-5 -27 -5 -35q0 -4 0.5 -12t0.5 -12q0 -32 -27 -32q-17 0 -51 19q-4 2 -8.5 10.5t-4.5 13.5q0 24 5 42q63 261 159 458
q0 4 -6 4q-4 0 -18.5 -1.5t-29 -2.5t-25.5 -1q-40 0 -56 16q-2 2 -2 6v23q0 16 7.5 25.5t14.5 9.5q2 0 8 -2t23 -3.5t46 -1.5q47 0 143 16t149 16q25 0 58.5 -20t33.5 -30z" />
    <glyph glyph-name="U" unicode="U" horiz-adv-x="600" 
d="M336 624q5 -12 5 -26q0 -4 -9 -25q-17 -42 -60 -136.5t-67 -161t-33 -131.5q-4 -20 -4 -55q0 -15 5 -15q19 0 39 20q223 223 343 420q4 7 8.5 18.5t15.5 27.5q6 9 15.5 19t13.5 10l11 -2q11 -2 22 -2q7 0 11 -9l14 -22q6 -10 6 -14q0 -7 -7 -22q-8 -22 -31 -62t-31 -61
q-72 -195 -72 -397q0 -10 0.5 -17t0.5 -9.5v-3.5q0 -10 -14 -10q-7 0 -10 1t-6 3t-7 3q-6 2 -35 19l-6 3t-6 3.5t-4 4.5t-2 8q0 12 5 21q3 4 5 16q3 22 6 64t7 73.5t11 58.5q3 12 3 16q0 5 -5 5q-3 0 -8 -5q-159 -185 -233 -248q-18 -16 -46 -16q-26 0 -41 15q-8 8 -28 13.5
t-27 18.5q-5 12 -5 63q0 70 27 158q21 68 70 190.5t61 155.5q2 6 6 13t5 9q15 27 30 27q2 0 4 -1t4.5 -2t7.5 -3.5t12 -5.5q19 -7 23 -15z" />
    <glyph glyph-name="V" unicode="V" horiz-adv-x="470" 
d="M273 625q6 -14 7 -28v-10q0 -7 -1 -11q-6 -44 -31 -199t-34 -240q-1 -5 -1 -13v-10q0 -17 5 -17q6 0 16 7t31.5 34.5t46.5 71.5q9 17 60 108t79 143q39 72 39 123q0 9 -1 15.5t-1 7.5q0 15 22 15q6 0 15 -0.5t13 -0.5q5 0 7 -2t5 -6.5t7 -7.5q22 -16 22 -31
q0 -20 -14 -66.5t-31 -72.5q-32 -51 -82.5 -147t-95 -169.5t-89.5 -118.5q-19 -19 -26 -19q-4 0 -12 3t-16 3q-7 0 -12 -3t-8 -3q-23 0 -54 31q-6 6 -6 15q0 5 -6.5 17.5t-6.5 20.5q0 2 1.5 7.5t1.5 9.5q0 9 2 23q6 61 31.5 223t28.5 234q0 10 3.5 20t3.5 34q0 26 22 26
q2 0 13 -1t20 -1q17 0 26 -15z" />
    <glyph glyph-name="W" unicode="W" horiz-adv-x="684" 
d="M713 639q11 -24 13 -54t2 -40q0 -53 -20 -150q-50 -226 -169 -395q-23 -33 -51 -33q-1 0 -9.5 3t-19.5 4q-18 1 -31 14q-2 2 -19 8.5t-21 15.5q-7 14 -11.5 32t-6 28.5t-5 38.5t-4.5 37q-3 18 -7 18t-9 -8q-18 -26 -35 -42q-18 -16 -45 -50.5t-48.5 -54.5t-41.5 -20
q-10 0 -36 23q-3 3 -10 5l-11 3q-13 6 -14 11q-2 8 -2 11v23q0 18 10 86q1 6 1 14l1 10q2 14 6 30q18 83 63 238t52 180q2 7 3.5 9.5t8 5t19.5 2.5q9 0 31 -6q2 0 6 -4l8 -9q11 -8 11 -13q0 -1 -3 -10q-76 -183 -134 -465q-5 -24 -5 -32q0 -5 3 -5q6 0 26 20
q111 116 160 226q9 18 16 47q6 29 16 50q3 8 8 8t14.5 -2.5t11.5 -2.5q12 -2 21 -12q17 -20 17 -37q0 -16 -3 -23q-29 -90 -29 -180q0 -64 13 -126q2 -9 7 -9q3 0 15 14q104 140 162 392q6 25 6 44q0 11 1 27t1 30q0 16 -10 34t-10 33q0 35 13 35q3 0 12.5 -1t17.5 -1
q32 0 44 -25z" />
    <glyph glyph-name="X" unicode="X" horiz-adv-x="482" 
d="M660 646q8 -2 16 -11.5t8 -15.5q0 -9 -3 -13q-18 -24 -63 -55.5t-71 -56.5q-11 -11 -26.5 -24.5t-16.5 -14.5q-151 -130 -164 -141q-12 -12 -12 -20q9 -51 32 -141.5t29 -115.5q1 -9 14.5 -27.5t13.5 -29.5q0 -9 -8 -17q-6 -6 -23 -6q-19 0 -54 14q-9 3 -14 14
q-17 32 -26 71t-16 89.5t-12 72.5q-1 13 -7 13q-3 0 -21 -18q-44 -48 -67 -74.5t-49.5 -69t-35.5 -79.5q-2 -10 -15 -14q-8 -3 -12.5 -8t-7.5 -5q-32 0 -59 27q-6 6 -6 19q0 12 6 25t16.5 29t14.5 25q3 6 14 24q22 36 54 70.5t73 73t61 60.5q14 14 14 23q-28 149 -28 252
q0 10 3.5 16.5t3.5 11.5q0 2 -1.5 9t-1.5 11q0 9 9 16q7 5 27 5q29 0 35 -10q3 -5 13 -18t10 -19q0 -3 -2.5 -12t-4.5 -25.5t-2 -37.5q0 -51 11 -114q4 -18 10 -18q10 0 22 12q32 32 120.5 108t131.5 125q9 10 16 10q10 0 28 -7t23 -8z" />
    <glyph glyph-name="Y" unicode="Y" horiz-adv-x="502" 
d="M257 668q5 -1 9 -10.5t4 -18.5q0 -15 -9.5 -35t-13.5 -37q-45 -229 -45 -320q0 -10 19 -10q17 0 30 8q71 46 113 88q51 51 109 165q41 80 64 110q7 10 11 10q38 0 60 -22q3 -3 7 -14t4 -15q0 -6 -6 -14q-204 -288 -282 -864q-2 -11 -4 -19t-2 -11q0 -8 -6 -8q-4 0 -26 5
q-42 6 -47 26q-2 10 -2 30t3.5 39t10 44.5t8.5 34.5t11 60q22 117 92 352l-8 -9q-59 -65 -133 -65q-6 0 -28 12t-40 28q-40 37 -40 58q0 37 5 107q0 5 2.5 15t2.5 21q0 12 4 25.5t5 19.5q17 109 47 214q3 9 8 9q6 0 63 -9z" />
    <glyph glyph-name="Z" unicode="Z" horiz-adv-x="560" 
d="M659 555q0 -27 -8 -41.5t-40 -48.5q-15 -17 -50 -49t-50 -43q-5 -4 -5 -8q0 -5 9 -5q71 0 98 -34q5 -7 5 -17q0 -9 -5 -15.5t-11 -6.5q-1 0 -5.5 0.5t-16 1t-30.5 0.5q-48 0 -129.5 -17t-94.5 -19q-22 -18 -71.5 -52t-83.5 -64.5t-52 -66.5q-6 -14 -6 -18
q0 -6 19.5 -15.5t35.5 -9.5q8 0 25.5 -4t30.5 -4q74 0 241 62q24 8 28 8q29 0 36 -10q4 -7 12.5 -17.5t14 -19t5.5 -16.5t-7 -8q-6 0 -9 2t-8 2q-4 0 -7 -3.5t-7 -5.5q-141 -62 -269 -62q-112 0 -200 55q-8 5 -25 31t-17 39q0 18 3 25q14 36 134 134q6 5 6 7q0 4 -7 5
q-33 5 -45 17q-8 10 -8 20q0 3 1.5 8.5t1.5 17.5q0 10 8.5 16.5t16.5 6.5q10 0 22 -5q41 -14 60 -14q10 0 40 5t37 9q208 127 271 220q7 9 7 14q0 14 -40.5 21t-82.5 7q-106 0 -136 -57q-5 -7 -23 -7q-11 0 -27 7q-14 8 -20.5 20t-12.5 40q0 10 4 13q77 52 200 52
q104 0 184 -45q13 -9 33 -28.5t20 -29.5z" />
    <glyph glyph-name="bracketleft" unicode="[" horiz-adv-x="326" 
d="M441 810h37q79 0 83 -15q0 -2 3.5 -6.5t3.5 -13.5q0 -5 -5 -17q-9 -18 -14.5 -22.5t-22.5 -4.5l-14 1q-14 1 -32 1h-11q-42 0 -54 -5.5t-22 -29.5q-45 -104 -136.5 -390.5t-114.5 -351.5q-14 -37 -14 -60q0 -10 8 -13.5t40 -3.5q28 0 53 2t32 2q10 0 16 -10t6 -17
q0 -13 -3.5 -23t-7 -14t-9.5 -9l-6 -5q-5 -5 -54 -5h-19q-51 0 -94 3q-18 2 -39 26.5t-21 45.5q0 28 21 88l222 670q23 70 43.5 110t28.5 47t18 11q26 9 78 9z" />
    <glyph glyph-name="backslash" unicode="\" horiz-adv-x="374" 
d="M266 645q0 -3 -4.5 -20t-4.5 -33q0 -29 5 -69q8 -66 32.5 -215t39.5 -261q7 -55 7 -84q0 -31 -5 -31q-3 0 -11.5 -5t-19.5 -5q-24 0 -32 15q-14 26 -14 49q0 36 -4 61l-77 517q-3 19 -3 60v25q0 11 2 17q4 19 16 27q5 3 17 3q4 0 8.5 -1t6.5 -1q20 0 30.5 -10.5
t10.5 -38.5z" />
    <glyph glyph-name="bracketright" unicode="]" horiz-adv-x="326" 
d="M7 -200h-37q-79 0 -83 15q0 2 -3.5 6.5t-3.5 13.5q0 5 5 17q9 18 14.5 22.5t22.5 4.5l14 -1q14 -1 32 -1h11q41 0 53.5 5.5t22.5 29.5q34 79 77 205.5t95.5 293.5t78.5 243q13 37 13 60q0 6 -2 9t-15 5.5t-40 2.5t-48 -2t-27 -2q-10 0 -16 10t-6 17q0 38 29 51q11 5 60 5
q61 0 104 -3q16 0 38 -27t22 -45q0 -27 -21 -88l-222 -670q-24 -72 -43 -110.5t-26.5 -45t-20.5 -12.5q-26 -9 -78 -9z" />
    <glyph glyph-name="asciicircum" unicode="^" horiz-adv-x="550" 
d="M500 655l88 -189q8 -18 8 -26q0 -7 -1 -8.5t-3.5 -2t-5.5 -3.5q-9 -12 -13 -14.5t-13 -2.5q-4 0 -12 6t-13 15l-87 163q-6 10 -13 10q-5 0 -12 -4q-146 -84 -167 -105q-4 -4 -10 -4t-12 3t-9 6t-7 8l-4 5q-4 4 -4 32q0 5 4 14l4 8q1 6 51 30l173 85q12 5 17 5
q22 0 26 -12q2 -3 6.5 -7t8.5 -12z" />
    <glyph glyph-name="underscore" unicode="_" horiz-adv-x="626" 
d="M-119 -96h700v-64h-700v64z" />
    <glyph glyph-name="grave" unicode="`" 
d="M465 677l-102 66q-24 17 -66 33q-12 4 -12 33q0 15 11 26q12 12 24 12q4 0 8 -1.5t6 -1.5t55 -38l102 -70q26 -18 26 -25q0 -5 -5 -17q-2 -4 -2.5 -9.5t-0.5 -6.5q-3 -10 -13 -10q-18 0 -31 9z" />
    <glyph glyph-name="a" unicode="a" horiz-adv-x="468" 
d="M492 435q7 -19 24 -19q19 0 28 -13q2 -4 2 -6q0 -6 -4 -11q-96 -130 -116 -212q-14 -56 -14 -89q0 -43 21 -75l2 -6q0 -10 -21 -14q-3 0 -9 -2t-10 -2q-32 0 -43 20q-17 38 -17 86q0 14 1 25.5t2 18.5l1 6q0 5 -4 5q-6 0 -24 -18l-54 -50q-64 -58 -119 -75q-9 -4 -16 -4
q-9 0 -20 7.5t-50 37.5q-22 18 -22 59q0 59 60 148q28 40 58.5 73.5t46.5 46.5t39 30q72 53 160 79q11 3 22 3q32 0 61 -29q11 -11 15 -20zM428 422q-12 0 -31 -10q-146 -78 -225 -174q-32 -38 -53.5 -77.5t-21.5 -61.5q0 -27 22 -27q18 0 49 28q27 26 88.5 77t99.5 90
t61 82q10 19 29 38q5 5 5 15q0 7 -6 13.5t-17 6.5z" />
    <glyph glyph-name="b" unicode="b" horiz-adv-x="386" 
d="M450 738q0 -15 -24 -37.5t-29 -30.5q-13 -21 -53 -82t-63 -100t-37 -69q-11 -25 -34.5 -74t-36.5 -79t-25 -75t-12 -85q0 -20 3 -28t14 -8q19 0 35 21q42 53 62 95.5t37 105.5q6 22 6 26q0 11 -5 33t-15 30q-5 4 -5 18t10 29.5t22 15.5t35 -25q21 -25 28.5 -30t23.5 -5
q52 0 155 29q22 6 23 6q2 0 5 -1t7 -1q13 0 20 -6q12 -9 12 -22q0 -15 -9 -17q-33 -5 -98 -28.5t-105 -23.5q-3 0 -14 3t-15 3t-4 -9q0 -3 1 -10t1 -11q0 -6 -2.5 -16t-4.5 -22q-3 -19 -10 -36.5t-18 -39t-15 -31.5q-10 -24 -28 -51q-70 -100 -131 -100q-15 0 -27 4
q-13 2 -35.5 18t-27.5 34q-7 30 -7 50q0 50 21 111l5 15q18 55 26 72q23 54 55.5 117t49 93.5t66.5 117.5t59 102q23 42 60 42q12 0 29 -6q19 -9 19 -32z" />
    <glyph glyph-name="c" unicode="c" horiz-adv-x="346" 
d="M272 123q91 68 122 68q9 0 21 -11t12 -15q0 -2 -2 -5t-2 -5q0 -9 -8 -12q-34 -14 -110 -76q-92 -74 -148 -74q-36 0 -65.5 18t-35.5 31q-12 24 -12 47q0 18 16 75q1 2 4.5 16t7.5 23q105 217 208 268q7 3 16 3q62 0 104 -42q4 -4 4 -14q0 -6 1 -10t1 -5q0 -4 -1 -7
q0 -1 -17 -37t-17 -57q0 -15 -19 -15q-13 0 -20 7l-26 19q-11 8 -11 22q0 11 11 32t11 28q0 10 -8 10q-6 0 -16 -10q-67 -67 -122 -161q-25 -46 -41.5 -89.5t-16.5 -63.5q0 -21 17 -21q59 0 142 63z" />
    <glyph glyph-name="d" unicode="d" horiz-adv-x="496" 
d="M724 747q0 -24 -21 -55q-4 -6 -10.5 -20t-12.5 -23q-12 -20 -57 -87t-70.5 -112t-39.5 -86l-16 -44q-76 -208 -76 -277q0 -21 4 -38t4 -18q0 -3 -4 -7q-3 -3 -7.5 -8.5t-7 -7.5t-7.5 -3.5t-14 -1.5q-7 0 -21 7t-15 12q-6 35 -6 65q0 56 26 148q4 12 11.5 29.5t13.5 29.5
t6 13q0 2 -2 2t-10 -9l-60 -70q-111 -130 -196 -180q-11 -7 -30 -7q-14 0 -41.5 12.5t-29.5 18.5q-17 29 -17 57q0 39 35 107q67 129 211 225q26 19 72 19q15 0 28 -5q6 -3 23 -9t24 -10q7 0 8 1q55 59 123 176l52 90q22 40 58 87q10 12 23 12q11 0 30 -11t19 -22zM378 369
q0 10 -23 10q-13 0 -25 -5q-73 -36 -138 -109.5t-95 -155.5q-3 -9 -3 -13q0 -23 7 -23q6 0 10 4q3 2 9.5 5t11.5 7q106 83 225 244q3 4 10 11.5t9 12t2 12.5z" />
    <glyph glyph-name="e" unicode="e" horiz-adv-x="366" 
d="M253 -3q-17 -10 -36 -10q-22 0 -38 7q-45 17 -64 28q-33 18 -50 69q-12 34 -12 77q0 14 5 33q34 123 172 271q15 17 44.5 31t62.5 14q30 0 61 -11q11 -4 21.5 -19.5t10.5 -42.5q0 -26 -23 -72q-17 -31 -32 -47q-46 -52 -74 -82t-73 -69t-85 -61q-6 -5 -6 -8
q0 -11 8 -24.5t16 -17.5q16 -8 31 -8q24 0 77 28q38 20 91 66.5t80 62.5q11 7 20 7q6 0 13 -6t7 -14q0 -5 -0.5 -8.5t-0.5 -4.5q0 -10 -5 -14q-13 -11 -33.5 -32.5t-38.5 -39.5t-57 -46t-92 -57zM328 398q18 25 18 46q0 12 -6 12q-8 0 -21 -9q-19 -12 -20 -13
q-130 -120 -157 -229q0 -5 2 -5t7 3q70 52 153 154q7 8 10 13.5t6 12.5t8 15z" />
    <glyph glyph-name="f" unicode="f" horiz-adv-x="268" 
d="M415 724q8 -11 8 -20q0 -11 -14.5 -30t-15.5 -28q-2 -10 -4 -16q-9 -17 -53.5 -75t-54.5 -96q-5 -19 -11 -30l-6 -12q-17 -36 -17 -47q0 -5 5 -5q28 0 93 24t101 24q16 0 24.5 -6.5t8.5 -12.5q0 -12 -9 -16l-17 -8l-11 -6q-6 -2 -54.5 -23.5t-75.5 -26.5q-5 -1 -7 -2
l-6 -3t-11 -5t-21.5 -7t-24.5 -8.5t-19 -11.5q-6 -5 -9 -13q-5 -16 -22 -65t-24 -69.5t-20 -64t-19.5 -72t-13.5 -67.5t-10 -75q-2 -20 -28 -29q-30 -11 -31 -11q-10 0 -25 12q-7 7 -7 39q0 14 3 29t6 25.5t9 27.5t9 25q2 4 10 40q4 27 41.5 140t37.5 125q0 3 -2 7
q-5 9 -23.5 27t-22.5 31q-6 16 -6 24t4.5 14t9.5 6q7 0 27 -7t30 -7q17 0 23 14q94 230 160 336q6 9 22 15.5t29 6.5q20 0 34 -17z" />
    <glyph glyph-name="g" unicode="g" horiz-adv-x="422" 
d="M438 361q-125 -224 -125 -254q0 -4 4 -4q76 64 167 118q15 10 24 10q16 0 26 -10q6 -6 6 -15q0 -10 -8 -17q-148 -111 -223 -187.5t-111 -162.5q-59 -139 -83 -190q-15 -28 -28.5 -35t-43.5 -7q-16 0 -32.5 8t-19.5 21q-3 10 -3 22q0 30 68 135q20 30 56 76.5t64.5 98.5
t77.5 167q1 4 -2 4q-2 0 -3 -1q-4 -3 -26 -24.5t-29 -27.5t-24 -18.5t-30.5 -16.5t-28.5 -4q-17 0 -30 6q-25 10 -60 46q-7 7 -7 29q0 12 1.5 23.5t5.5 22t6.5 16.5t8.5 17t7 14q14 34 98 130q46 53 94.5 84.5t68 37t28.5 5.5q71 0 103 -43q11 -15 11 -35q0 -24 -8 -39z
M374 391q3 5 3 7t-1 3t-1 3q0 6 -10 10q-7 3 -17 3q-17 0 -46 -21q-10 -8 -22 -15.5t-20 -14.5q-43 -40 -90 -99t-63 -94q-12 -26 -12 -38q0 -3 4.5 -5.5t7.5 -2.5q12 0 20 5q64 40 131 112t116 147z" />
    <glyph glyph-name="h" unicode="h" horiz-adv-x="418" 
d="M395 -26q-32 -8 -35 -8q-13 0 -29 7q-54 21 -54 95q0 49 19 112q14 47 37 103q4 8 4 12q0 2 -2 2t-13 -11q-37 -42 -103.5 -137t-92.5 -126q-4 -6 -11 -10q-20 -13 -38 -13q-5 0 -23 8.5t-29 19.5q-4 4 -4 11q0 6 3.5 12.5t5.5 14.5q17 71 44 138.5t77.5 170t61.5 126.5
l16 32q15 27 42 75.5t50 91t45 86.5q8 14 26 14q6 0 12.5 -1t8.5 -1q13 0 28 -15q9 -9 9 -25q0 -10 -4.5 -19.5t-8 -14.5t-16.5 -19.5t-18 -20.5t-10.5 -14.5t-8.5 -12.5q-31 -44 -66.5 -109.5t-60 -118t-62 -136.5t-55.5 -123q-9 -19 -9 -20q0 -2 2 -2q1 0 7 8
q98 136 227 278l16 16q6 6 12 7q17 5 23 5q18 0 37 -7q15 -6 15 -19q0 -31 -30 -80q-7 -11 -11.5 -21.5t-8 -22t-6.5 -17.5q-52 -123 -52 -214q0 -33 6 -46t19 -20q4 -2 12.5 -3.5t12.5 -2.5q7 -1 7 -8q0 -2 -2 -6l-3 -7q-3 -7 -19 -14z" />
    <glyph glyph-name="i" unicode="i" horiz-adv-x="220" 
d="M278 72l-41 -38q-53 -48 -103 -48q-21 0 -43.5 25t-31.5 54q-5 19 -5 42q0 34 16 81q3 7 8 24.5t9 25.5q74 173 97 222q14 27 50 27q22 0 30 -8q8 -6 8 -16q0 -24 -10 -43.5t-28 -43t-26 -40.5q-49 -112 -59 -142q-24 -64 -24 -98q0 -32 18 -32q17 0 30.5 6.5t42.5 27.5
q31 22 47 22q15 0 25 -7q6 -4 6 -14q0 -11 -16 -27zM364 691q12 -12 12 -33q0 -12 -5 -18q-40 -49 -64 -49q-29 0 -40 20q-7 15 -7 34q0 26 13 42q16 17 49 17q31 0 42 -13z" />
    <glyph glyph-name="j" unicode="j" horiz-adv-x="238" 
d="M249 448q8 -14 8 -20q0 -8 -8 -19q-29 -59 -86 -205q-4 -8 -4 -15q0 -3 2 -3q6 0 16 10q72 60 100 76q19 12 30 12q18 0 18 -13q0 -11 -3.5 -19t-8 -12.5t-16 -13.5t-18.5 -16q-81 -72 -183 -215q-17 -23 -34 -59q-30 -77 -55 -147l-26 -72q-13 -36 -27 -75
q-18 -37 -45 -37q-2 0 -4.5 1t-7.5 3.5t-12 4.5q-27 9 -27 44q0 13 5 25q20 53 82.5 175.5t83.5 193.5l4 12q4 12 19 54q12 34 36.5 96t43.5 113.5t33 98.5q4 14 17 23q8 7 16 7q6 0 12.5 0.5t10.5 0.5q23 0 28 -9zM369 646q0 -16 -15.5 -31.5t-16.5 -23.5q-3 -17 -27 -17
q-35 0 -56 32q-5 8 -5 24q0 4 -1 11.5t-1 9.5q0 4 6 11q22 27 52 27q24 0 47 -19q17 -15 17 -24z" />
    <glyph glyph-name="k" unicode="k" horiz-adv-x="376" 
d="M381 698q0 -27 -30 -70q-6 -8 -25 -39q-21 -34 -39 -73.5t-38.5 -92t-30.5 -76.5q-3 -6 -3 -9t3 -3q4 0 12 5q122 75 170 150q8 12 20 21q13 10 30 10q12 0 27 -9q18 -10 18 -18q0 -11 -14.5 -32.5t-30.5 -34.5q-8 -8 -15 -16.5t-13 -13.5q-51 -43 -160 -115
q-7 -4 -7 -13q0 -1 21 -69q4 -13 26 -59t29 -55q23 -32 37 -44t45 -25q4 -2 10 -2t8.5 -2t2.5 -11q0 -8 -10 -16t-11 -9q-8 -11 -24 -11q-48 0 -77 29q-15 15 -18 17q-12 8 -19 20q-25 46 -43.5 89t-31 78.5t-14.5 40.5q-3 8 -8 8q-3 0 -4 -4q-43 -98 -56 -175
q-1 -3 -2.5 -10t-3 -12.5t-3.5 -13t-4.5 -13t-5.5 -10.5t-7 -7.5t-8 -2.5t-11.5 -1.5t-13.5 -1.5q-5 0 -11.5 1.5t-15 9.5t-8.5 21q0 11 7 30q2 3 3 9l1 5q24 73 57 158.5t58.5 145t69 159t64.5 149.5l11 26q7 19 16 19q1 0 33 -4q37 -4 37 -28z" />
    <glyph glyph-name="l" unicode="l" horiz-adv-x="232" 
d="M141 -18q-16 0 -55 21t-45 56q-3 16 -3 34q0 8 0.5 15.5t2.5 16.5t3 14.5t4.5 16.5t5 15.5t6.5 17.5t6 16.5t7.5 18.5t7.5 18q54 142 208 402q4 6 13.5 32.5t20 39.5t28.5 13q8 0 18 1t15 1q18 0 26 -11q8 -13 8 -28q0 -19 -10 -35q-21 -34 -86.5 -132.5t-103.5 -166.5
t-65 -138q-4 -9 -12.5 -29.5t-13 -32t-8.5 -29t-4 -32.5q0 -21 5 -37q4 -12 20 -12q10 0 17 4q14 8 63.5 60t75.5 52q9 0 21.5 -6t12.5 -17q0 -5 -2 -8.5t-4 -6t-6.5 -6.5t-7.5 -7q-10 -10 -36 -42t-40 -46t-40 -28.5t-53 -14.5z" />
    <glyph glyph-name="m" unicode="m" horiz-adv-x="684" 
d="M276 462q5 -3 5 -19q0 -19 -12 -35q-130 -184 -169 -332q0 -4 3 -7.5t6 -3.5q4 0 11 4q78 39 143 115t100 162q6 16 21 26q19 14 39 14q26 0 46 -20q4 -4 4 -7q0 -6 -3 -15q-10 -26 -42.5 -71t-43.5 -66q-43 -83 -43 -125q0 -4 3 -10t6 -6q28 0 58 33q23 26 71 70
t81.5 83.5t50.5 84.5q3 12 15.5 24.5t32.5 12.5q11 0 18 -3.5t12 -4.5q17 -2 22 -5t11 -15q4 -7 4 -14q0 -10 -15.5 -22.5t-20.5 -20.5q-38 -64 -54 -105t-16 -78q0 -51 32 -100q4 -7 9 -9q14 -6 14 -20q0 -16 -24 -16q-7 0 -12.5 1.5t-13 3.5t-12.5 3q-22 6 -47 57
q-25 52 -25 89q0 6 -4 6t-8 -4q-15 -11 -46.5 -44t-61 -52t-65.5 -19q-26 0 -51 11q-29 14 -38 24.5t-9 24.5q0 15 -3 15q-2 0 -7 -5q-38 -38 -104 -70q-14 -6 -16 -6q-47 0 -84 29q-4 3 -8 13q-6 26 -6 48q0 41 15.5 81.5t46 92t40.5 73.5q13 29 28.5 56.5t23.5 47.5
q4 11 20.5 22t40.5 11q17 0 31 -8z" />
    <glyph glyph-name="n" unicode="n" horiz-adv-x="420" 
d="M91 266q44 106 97 184q13 19 16 22q10 10 35 10q33 0 40 -15q5 -8 5 -18q0 -22 -22 -47q-38 -42 -64 -90q-32 -57 -71 -156q-5 -12 -12.5 -39.5t-7.5 -30.5q0 -10 3 -10q8 0 17 13q58 82 112.5 143t82.5 89.5t36 46.5q14 29 19.5 35t15.5 6q8 0 18 -5t18 -5q8 -1 14 -9.5
t6 -17.5q0 -10 -10 -26q-51 -84 -70 -148q-12 -50 -12 -90q0 -14 8 -43q1 -7 6 -13.5t9.5 -9.5t11.5 -8l8 -5q15 -13 15 -23q0 -7 -6.5 -15.5t-19.5 -8.5q-37 0 -52 14q-4 4 -10 8.5t-10 7t-9 7.5t-10 12q-17 23 -17 62q0 17 1 30.5t2.5 22t2.5 14t2 8.5t1 4q0 4 -3 4t-6 -4
q-15 -20 -46.5 -61t-45.5 -61q-13 -17 -26 -27.5t-17 -16.5q-10 -11 -37 -11q-9 0 -35.5 17t-36.5 29q-7 9 -7 29q0 18 5.5 36t6.5 24q2 18 49 136z" />
    <glyph glyph-name="o" unicode="o" horiz-adv-x="368" 
d="M344 460q20 -55 51 -55q22 0 49.5 1.5t36.5 1.5q25 0 43.5 -7t18.5 -19q0 -8 -14 -14t-14 -7q-1 -4 -11 -6q-9 -1 -35 -8t-40 -9q-20 -3 -39 -3q-10 0 -12 -8q-46 -183 -126 -268q-53 -59 -90 -59q-12 0 -24 5q-62 30 -75 63q-15 38 -15 83q0 95 87 223q7 11 13 17l5 5
l6 8q65 92 118 92q31 0 53 -19q11 -10 14 -17zM293 394q-6 6 -8 15q-5 17 -10 17q-8 0 -15 -10q-2 -2 -9 -7.5t-10 -9.5q-125 -156 -125 -280q0 -7 3 -14q8 -20 24 -33q4 -2 9 -2q8 0 19 8q7 3 17 18q40 60 57.5 88.5t36 79.5t18.5 98v10q0 8 -1 11q-1 6 -6 11z" />
    <glyph glyph-name="p" unicode="p" horiz-adv-x="440" 
d="M240 472q0 -19 -5 -41.5t-14.5 -53t-13.5 -45.5q-1 -2 0 -3t2 1q83 97 139 125q13 6 16 6q31 0 84 -34q20 -16 20 -40q0 -37 -7 -70q-1 -3 -1 -12.5t-4 -19.5q-41 -114 -69 -169.5t-74 -95.5q-7 -7 -28 -7q-16 0 -37.5 10t-30.5 19q-30 28 -52 73q-2 5 -6 5t-6 -5
q-48 -91 -77 -167.5t-54 -183.5q-2 -7 -2 -18t-1.5 -16.5t-8.5 -7.5q-16 -6 -35 -6q-17 0 -31 14q-1 1 -4.5 4t-5 4.5t-3 5.5t-1.5 9q0 6 5 22q8 28 104.5 294t117.5 392q1 8 3 12t3.5 5t5.5 3q33 11 38 11q12 0 22.5 -6t10.5 -14zM375 387q-89 -56 -160 -170q-7 -11 -7 -29
q0 -20 20 -63.5t37 -43.5q4 0 8 4q21 21 45.5 73t28.5 69q39 116 39 159q0 3 -4 3q-1 0 -7 -2z" />
    <glyph glyph-name="q" unicode="q" horiz-adv-x="386" 
d="M449 410q0 -16 -16 -40l-11 -17q-5 -8 -5 -12q0 -7 5.5 -13t5.5 -10t-7 -12q-177 -235 -279 -598q-2 -8 -4 -32t-6 -37q-12 -32 -27 -32q-28 0 -54 21q-5 4 -5 8q0 7 1 10q15 76 65 222q11 31 14 43q8 31 24 64t24 63q0 6 -7 6q-35 -7 -48 -7q-25 0 -47 12l-14 9
q-34 22 -34 75q0 13 9 38q39 99 119.5 179.5t170.5 108.5q26 8 45 8q31 0 56 -15t25 -42zM366 392q0 7 -14 7q-9 0 -21 -7q-5 -3 -12 -4.5t-16 -7.5q-56 -35 -108.5 -88.5t-78.5 -103.5q-23 -47 -23 -80q0 -12 16 -12l16 4q7 1 20 10q96 72 152 155q8 13 8 15q0 4 -3 7t-3 7
q0 5 22 30q38 39 43 56q2 6 2 12z" />
    <glyph glyph-name="r" unicode="r" horiz-adv-x="300" 
d="M200 438q15 -25 15 -56q0 -16 -6 -34l-4 -16q0 -4 3 -4q4 0 13 8q80 61 139 82q8 2 12 2q49 0 73 -28q7 -7 7 -17q0 -20 -13 -32t-22 -12q-7 0 -22 5t-23 5q-7 0 -16 -4q-92 -43 -162 -116.5t-92 -178.5q-8 -29 -23 -40q-6 -9 -18 -9q-5 0 -8.5 1.5t-7 4.5t-5.5 4.5
t-5 5.5t-4 5q-17 17 -19 38q0 19 24.5 54.5t29.5 50.5l38 114q18 53 31 117l1 10q1 3 1 6t-4 10.5t-5 12.5q0 7 11.5 14.5t27.5 7.5q26 0 33 -11z" />
    <glyph glyph-name="s" unicode="s" horiz-adv-x="296" 
d="M347 464q19 -19 19 -65t-29 -83q-8 -11 -14 -11q-22 0 -35 13q-15 12 -15 32q0 4 3 8q17 28 17 46q0 15 -7 27q-8 14 -22 14q-4 0 -17 -15.5t-26.5 -41t-17.5 -46.5q-2 -14 -2 -26q0 -22 7 -64q3 -33 17.5 -119.5t14.5 -108.5q0 -10 -8 -18q-36 -36 -63 -36q-16 0 -25 4
q-88 35 -146 134q-6 10 -6 15q0 12 10.5 24.5t25.5 12.5q28 0 38 -14q8 -11 16 -25l14 -25q17 -31 35 -46q13 -11 20 -11q10 0 10 8q0 6 -5 31q-9 48 -20.5 133t-11.5 103q0 23 9.5 59.5t26.5 62.5q20 32 45.5 48t43.5 16q62 0 98 -36z" />
    <glyph glyph-name="t" unicode="t" horiz-adv-x="262" 
d="M360 637q-6 -35 -20.5 -69.5t-40 -81.5t-32.5 -63q-23 -48 -23 -62q0 -3 4 -3q10 0 25 4q78 16 134 50q8 5 11 5q13 0 31 -9t18 -17q0 -25 -33 -38q-15 -6 -26.5 -12t-18.5 -9q-28 -11 -88 -26.5t-67 -18.5q-13 -4 -19 -15q-8 -16 -17 -48q-2 -6 -6 -16.5t-5 -15.5
q-2 -10 -22.5 -74.5t-23.5 -93.5q-1 -9 -8 -23t-17 -19q-4 -3 -15 -3q-23 0 -36 11q-11 8 -11 24q0 18 4 30q7 20 31.5 106.5t43.5 131.5q1 2 1 5q1 1 1 2q0 3 -5 6q-22 11 -39 33.5t-26 29.5q-5 4 -5 12q0 7 12 13q12 5 20 5q12 0 34 -8t31 -8q14 0 17 14q3 11 16 47
q6 16 23 61t31.5 81.5t30.5 69.5q7 13 11 13q9 0 16 2.5t12 2.5q19 0 38 -8q9 -5 9 -7v-4q0 -4 -1 -7z" />
    <glyph glyph-name="u" unicode="u" horiz-adv-x="420" 
d="M237 451q1 -2 4 -6.5t5 -9t2 -9.5q0 -14 -20 -29q-20 -13 -29 -47q-5 -20 -37 -119t-38 -141q-2 -14 -2 -15v-8q0 -4 4.5 -9t9.5 -5q12 0 22 10q20 19 53 58q108 117 149 224q6 15 18 22q11 6 23 6q1 0 24 -10q20 -6 20 -18q0 -15 -6 -29q-57 -119 -73 -226
q-6 -42 -6 -74q0 -13 9 -34.5t9 -32.5q0 -13 -6 -18q-4 -3 -14 -3q-14 0 -38 15q-7 4 -13.5 6t-8 4t-3.5 9q-10 25 -10 60q0 14 1.5 39t1.5 29q0 6 -4 6t-14 -12q-65 -74 -112 -97q-8 -4 -13 -4q-28 0 -60 19q-27 16 -30 31q-5 25 -5 43q0 41 23 114q4 13 8.5 31t8.5 32
q7 19 18 57.5t23 70t29 60.5q15 26 43 26q27 0 34 -16z" />
    <glyph glyph-name="v" unicode="v" horiz-adv-x="378" 
d="M198 329q-8 -40 -26.5 -120.5t-26.5 -120.5q-3 -15 -3 -19q0 -6 8 -6q14 0 26 13q59 70 105 182q4 10 7 22.5t7 20.5q8 22 8 53q0 17 -11 28q-14 14 -14 28q0 10 8.5 17t22.5 7q21 0 32.5 -5t20.5 -22q19 -32 48 -32q22 0 63.5 16.5t63.5 16.5q27 0 47 -14q13 -8 13 -22
q0 -4 -7 -8q-32 -18 -80 -31t-52 -15l-12 -4q-8 -2 -11 -2q-8 0 -22.5 3t-20.5 3q-9 0 -14 -4q-3 -3 -12 -32q-31 -117 -132 -244q-11 -14 -24 -26.5t-15 -14.5q-14 -16 -36 -16q-9 0 -15 2.5t-16 11t-15 11.5q-25 16 -30.5 22t-9.5 20q-3 7 -3 24q0 26 9 61q5 27 17 76
q42 169 52 241q2 10 10.5 16t13.5 6q3 0 11 -1t12 -1q20 0 29 -8q5 -5 5 -15q0 -36 -14 -69.5t-17 -48.5z" />
    <glyph glyph-name="w" unicode="w" horiz-adv-x="540" 
d="M257 462q0 -6 -8 -20l-13 -30q-14 -34 -28.5 -74t-24 -68.5t-25 -77.5t-23.5 -72q-4 -11 -4 -16q0 -3 3 -3q7 0 38 36q103 122 150 233q6 14 26 14q6 0 13 -1t10 -1q11 0 21 -9.5t10 -20.5q0 -19 -33 -73q-7 -11 -11 -20.5t-6 -18t-4 -11.5q-37 -79 -37 -162
q0 -9 5.5 -14t9.5 -5q20 0 43 29q26 34 43.5 83.5t21.5 77.5t4 40q0 8 2.5 19.5t2.5 17.5q0 15 -10 43t-10 39q0 15 11 24q8 6 42 6q9 0 14 -5l8 -8q2 -2 16 -12q24 -15 76 -15q20 0 63.5 6t70.5 6q7 0 10.5 -1t8 -7.5t4.5 -19.5q0 -21 -48 -31q-19 -5 -39.5 -10.5t-30 -8.5
t-21 -5t-21.5 -2q-19 0 -33 2t-21.5 4t-9.5 2q-9 0 -9 -13v-20q0 -16 -1 -21q-8 -160 -117 -269q-17 -17 -44 -17q-35 0 -85 28q-28 16 -28 46q0 10 1.5 22t1.5 17q0 8 -3 8t-16 -13q-6 -6 -25 -29.5t-34 -33.5t-34 -10q-7 0 -12 2t-13 6.5t-17 7.5q-24 10 -31 20
q-7 9 -7 29q0 18 4 27q12 47 55.5 168t52.5 187q2 12 19 19q9 3 24 3q5 0 14 -0.5t14 -0.5q6 0 15 -7t9 -16z" />
    <glyph glyph-name="x" unicode="x" horiz-adv-x="334" 
d="M190 432q15 -18 22 -38t15 -76q3 -19 7 -19q2 0 15 10q31 26 90 70t65 48q8 7 23 7q18 0 28 -11q2 -3 6.5 -8.5t6.5 -8t4 -8t2 -11.5q0 -2 -15 -11q-90 -52 -203 -152q-15 -13 -17.5 -18t-2.5 -20q0 -40 6 -108t6 -101q0 -29 -6 -72q-2 -11 -22 -11q-4 0 -10.5 1t-9.5 1
q-2 0 -19 11q-17 9 -20 21q-2 14 -2 18q0 20 9 40q4 7 4 10q0 1 -2 19q-2 16 -4.5 47.5t-4.5 47.5q-3 16 -5 16q-1 0 -10 -11q-3 -5 -18 -21t-27.5 -33t-16.5 -29q-4 -10 -18 -21t-32 -11q-6 0 -24 18q-15 15 -15 27q0 6 10 17q24 28 72 81t68 76q8 9 8 24q0 100 -22 147
q-5 10 -9.5 13t-5.5 5q-4 5 -4 18q0 11 12.5 16.5t26.5 5.5q23 0 39 -16z" />
    <glyph glyph-name="y" unicode="y" horiz-adv-x="436" 
d="M252 460q0 -23 -10 -42q-9 -16 -16 -24t-10 -14q-16 -34 -26.5 -65t-22.5 -71.5t-21 -67.5q-2 -7 -4.5 -17.5t-3.5 -14.5q-5 -18 -5 -32q0 -16 5 -16q10 0 22 6q37 18 79 66q1 1 14 14.5t23 25.5q5 6 25.5 27.5t33 37.5t32.5 51.5t37 80.5q3 8 11.5 19t14.5 11
q5 0 13.5 -3.5t17.5 -3.5q35 0 35 -36q0 -18 -23 -51l-19 -30q-36 -57 -61 -129q-5 -14 -28.5 -78t-26.5 -72q-12 -37 -12 -40q0 -2 4 -2q2 0 5 0.5t4 0.5q18 0 18 -11q0 -17 -6 -25q-86 -116 -121 -282q-1 -3 -4.5 -24.5t-6 -29.5t-9 -22.5t-17 -21.5t-25.5 -9
q-1 0 -10.5 -2t-16.5 -2q-10 0 -17 1.5t-14 10.5t-7 26q0 30 21 79q49 111 86 171q6 34 60 201q18 61 18 63q0 4 -3 4t-14 -11q-25 -25 -63.5 -51t-46.5 -26q-62 0 -95 40q-6 8 -6 24q0 62 15.5 119.5t45.5 131t42 113.5q5 13 16.5 21t18.5 8q2 0 12 -2.5t16 -2.5
q9 0 17.5 -6.5t8.5 -15.5z" />
    <glyph glyph-name="z" unicode="z" horiz-adv-x="384" 
d="M428 410q4 -9 4 -21q0 -9 -2.5 -16.5t-9.5 -15t-13.5 -12.5t-21 -16.5t-24.5 -19.5q-6 -5 -6 -8t11 -3q55 0 79 -27q8 -9 8 -15q-5 -15 -23 -15q-84 0 -169 -28q-28 -8 -43 -22q-17 -16 -51 -53.5t-45 -47.5q-12 -10 -12 -27q0 -9 14 -15q18 -8 29 -8q10 0 32 6t34 6
q21 0 59 19.5t58 19.5q26 0 45 -18q7 -6 7 -19q0 -6 -10 -10q-3 -1 -19 -8t-20.5 -9t-20 -8t-22 -8t-20.5 -7t-22.5 -7t-21.5 -5.5t-22.5 -5t-21.5 -2.5t-23 -1q-61 0 -105 26q-30 19 -30 62q0 20 3 25q10 22 57 73q17 17 17 23q0 5 -13 9q-24 8 -31 21q-12 21 -12 33
q0 7 8 13t18 6t33 -7t41 -7q29 0 53 16.5t46.5 40.5t39.5 33q20 11 33.5 26t13.5 24q0 7 -16 7q-8 0 -21.5 -4t-28.5 -6q-55 -6 -93 -50q-2 -2 -9 -2q-6 0 -15.5 9t-13.5 20q-5 17 -5 24q0 25 20 30q8 2 46.5 13t64 15.5t49.5 4.5q28 0 54.5 -7.5t32.5 -16.5q2 -2 8 -6.5
t11 -9.5t7 -11z" />
    <glyph glyph-name="braceleft" unicode="{" horiz-adv-x="346" 
d="M531 733h-12q-54 0 -77 -18t-39 -60q-34 -92 -76 -233q-17 -55 -38 -83t-57 -34q-3 0 -3 -2t3 -2q28 -16 28 -52q0 -37 -10 -66l-68 -218q-8 -22 -8 -44q0 -42 52 -42h40q10 0 16 -8t6 -15q0 -14 -2.5 -22t-6 -10.5t-7 -6t-5.5 -8.5q-3 -9 -33 -9q-73 0 -113.5 26.5
t-40.5 74.5q0 29 10 62l65 206q18 54 18 69q0 27 -40 27q-26 0 -32 3t-6 13q0 1 -2.5 1.5t-4.5 2.5t-2 7q0 10 6 26q6 17 13.5 21.5t25.5 4.5h12q43 0 63 22t43 90l59 177q33 101 75 138.5t109 37.5h20q54 0 54 -14q0 -3 3.5 -7t3.5 -13q0 -7 -5 -17q-8 -17 -14 -21t-23 -4z
" />
    <glyph glyph-name="bar" unicode="|" horiz-adv-x="270" 
d="M417 768q0 -22 -5 -31q-8 -13 -18.5 -23t-13.5 -16q-45 -103 -147 -421t-125 -384q-32 -91 -46 -91q-21 0 -35 10q-6 4 -13.5 7t-10.5 6t-3 8q0 23 7 46q2 6 10.5 23t12.5 27l261 782q18 55 32 75t37 20q24 0 34 -12q3 -4 9.5 -8.5t10 -8.5t3.5 -9z" />
    <glyph glyph-name="braceright" unicode="}" horiz-adv-x="346" 
d="M-72 -122h15q58 0 75 12t30 54l80 242q19 55 40 83.5t57 36.5q3 0 3 2t-3 2q-29 14 -29 50q0 32 11 65l70 221q12 36 12 59q0 27 -57 27h-41q-23 0 -23 21q0 11 2 17.5t7 15t8 14.5q3 9 62 9h24q36 0 72 -24.5t36 -73.5q0 -38 -10 -65l-69 -206q-17 -53 -17 -69
q0 -27 40 -27h19q30 0 30 -14q0 -15 -2.5 -24.5t-8 -18.5t-6.5 -10q-5 -12 -42 -12q-34 0 -59 -22t-47 -90l-59 -177q-35 -107 -70.5 -141.5t-118.5 -34.5h-15q-38 0 -51 3.5t-13 14.5q0 16 8.5 30.5t8.5 15.5q4 14 31 14z" />
    <glyph glyph-name="asciitilde" unicode="~" horiz-adv-x="550" 
d="M115 270q-3 16 -9 19.5t-6 10.5q0 15 10 23q57 36 87.5 49t63.5 13q25 0 47.5 -15t36.5 -33t33.5 -33t39.5 -15q25 0 48.5 14.5t39 28.5t19.5 14q12 0 22 -7.5t11 -16.5q0 -4 4.5 -6t4.5 -11q0 -8 -11 -18q-32 -30 -70 -53.5t-65 -23.5q-35 0 -56.5 10.5t-53.5 42.5
q-5 5 -12.5 12t-10.5 9.5t-7.5 6.5t-7 5t-6.5 3t-7.5 2.5t-8 1t-11.5 0.5q-15 0 -63 -37q-13 -11 -38 -11q-23 0 -24 15z" />
    <glyph glyph-name="uni00A0" unicode="&#xa0;" horiz-adv-x="246" 
 />
    <glyph glyph-name="exclamdown" unicode="&#xa1;" horiz-adv-x="320" 
d="M91 -80q5 14 11.5 18.5t9.5 16.5q15 60 44 152t49 163q5 19 17 19q20 0 28 -8q28 -28 28 -43q0 -11 -7 -30q-4 -11 -5 -21t-3 -18q-27 -79 -43 -134t-19.5 -75t-6.5 -36.5t-8 -29.5q-26 -70 -29 -87q-3 -9 -24 -9q-8 0 -11.5 2t-10 8t-17.5 12q-15 7 -15 33q0 38 12 67z
M322 468q8 -1 14.5 -7.5t6.5 -16.5q0 -6 -11 -37q-14 -32 -31 -32q-3 0 -12 -1t-17 -1q-33 0 -33 58q0 12 8 26q1 2 2 5.5t2.5 6l3 5t5 4t7.5 1.5q14 0 29.5 -5t25.5 -6z" />
    <glyph glyph-name="cent" unicode="&#xa2;" horiz-adv-x="434" 
d="M351 389q-8 -21 -56.5 -171t-48.5 -161q0 -3 5 -3q23 0 57 22l13 13t14 13q43 28 68 28q12 0 24 -9q13 -9 13 -18q0 -11 -19 -24q-105 -73 -172 -85q-21 -4 -23 -9q-8 -27 -20 -54q-13 -31 -29 -31q-5 0 -8.5 2t-11 7.5t-15.5 10.5q-13 7 -13 19q0 7 9 24t16 37
q0 4 -10 8q-38 17 -63 53.5t-25 72.5q0 60 18 102q56 135 132 188q32 24 50.5 31.5t45.5 7.5q5 0 8 8q13 41 22.5 55.5t24.5 14.5q3 0 10.5 -1t13.5 -1q7 0 17.5 -5t10.5 -10q0 -2 -2.5 -5.5t-8 -11.5t-10.5 -19q-14 -31 -14 -35q0 -5 6 -6q27 -15 35 -21q21 -18 30.5 -32
t9.5 -35q0 -10 -17 -77q-2 -7 -3.5 -17.5t-3 -14.5t-7 -7.5t-16.5 -3.5q-17 0 -35.5 13.5t-18.5 20.5q0 9 2 19t7 24.5t7 21.5q6 23 6 34q0 24 -19 24q-5 0 -6 -7zM168 242q-4 -13 -10.5 -29.5t-9.5 -24t-5 -21.5t-2 -32q0 -29 6 -42q12 -29 23 -29q6 0 9 8l11 35
q15 46 37.5 113t37 110.5t21.5 67.5q0 5 -5 5q-12 0 -54 -57.5t-59 -103.5z" />
    <glyph glyph-name="sterling" unicode="&#xa3;" horiz-adv-x="490" 
d="M229 233q-65 -157 -69 -179q0 -4 1.5 -4.5t9.5 -0.5q13 0 117 22t112 30q6 6 46 6h11q13 0 19 -2.5t17 -14.5q3 -4 6 -8.5t7 -8.5q10 -10 12 -13.5t2 -13.5q0 -21 -27 -21q-5 0 -13 0.5t-20 0.5q-8 0 -55.5 -10t-112.5 -23t-106 -19q-47 -8 -112 -8h-13q-9 0 -12 1
q-15 2 -20.5 9.5t-7.5 20.5t-7 21q-4 4 -4 13q0 8 7 15q5 5 26 5q5 0 13 -1.5t16 -1.5t8 4q-4 5 -4 18q0 10 59 157q2 6 2 7q0 3 -14 5t-19.5 3.5t-9.5 9t-4 22.5q0 4 -4 14t-4 21q0 5 5 6t27 1q13 0 51 5q12 3 17 11l12 27q42 95 81.5 157t75 90.5t63.5 38t61 9.5
q40 0 57 -21q6 -7 17 -19t15.5 -17.5t8.5 -15.5t4 -20t-15.5 -54t-15.5 -52q0 -9 -8.5 -18t-20.5 -9q-5 0 -14.5 3.5t-16.5 4.5q-12 2 -16 4t-7.5 9.5t-3.5 22.5q0 7 11.5 28.5t11.5 33.5q0 6 5 18.5t5 23.5q0 18 -11 18q-37 0 -86 -50t-89 -137l-25 -54q-4 -7 -4 -11
q0 -5 6 -5l38 8q33 8 50 8q19 0 36 -17q16 -16 16 -31q0 -23 -9 -23q-6 0 -18 -3t-25 -4q-18 -1 -109 -20q-19 -3 -23.5 -6t-9.5 -16z" />
    <glyph glyph-name="currency" unicode="&#xa4;" horiz-adv-x="508" 
d="M380 49q0 22 -28 85q-3 6 -6 6q-1 0 -11 -2q-33 -7 -52 -7q-33 0 -61 16q-4 2 -6 2q-3 0 -6 -3q-5 -5 -16 -16.5t-19 -19.5q-87 -84 -101 -84q-18 0 -29 11t-11 20q0 7 7.5 25.5t15.5 19.5q14 2 68 56l36 36q4 4 4 8l-2 6q-14 23 -14 55q0 34 16 79.5t55 84.5q5 5 5 9
t-3 11q-12 28 -22 62.5t-10 47.5q0 23 7 35q6 11 17 17t18 6q8 0 19 -7q13 -7 16 -10.5t3 -11.5q0 -15 1 -18q3 -13 3 -29q0 -15 18 -63q2 -6 8 -6q22 6 42 6q29 0 65 -14q7 -3 10 -3q4 0 11 7q49 54 105 94q14 10 34 10q7 0 17 -7.5t10 -18.5q0 -4 -3 -17q-4 -18 -9.5 -25
t-13.5 -10t-11 -6q-3 -2 -11 -7t-23 -17t-42 -35q-10 -9 -10 -13q0 -5 4 -10q13 -28 13 -45q0 -110 -66 -176q-5 -5 -5 -8q0 -4 1 -5q8 -20 15.5 -42.5t11 -32.5t7.5 -19t9 -13q8 -6 8 -19q0 -8 -5 -12.5t-27 -17.5q-7 -4 -13 -4q-7 0 -21 8q-9 5 -16 15t-7 16zM268 360
q-40 -61 -40 -111q0 -15 7 -16q8 -1 16 -20q4 -7 4 -12t1 -7.5t7 -7.5q8 -6 22 -6q13 0 25 6t20 11.5t16.5 15t12 13t15 20.5t15.5 23q23 32 23 80q0 10 -2.5 14.5t-11 11.5t-15.5 16q-1 2 -2.5 11t-8.5 13q-12 5 -35 5q-29 0 -69 -60z" />
    <glyph glyph-name="yen" unicode="&#xa5;" horiz-adv-x="474" 
d="M179 144q9 21 9 30q0 5 -7 5q-5 0 -17 -0.5t-18 -0.5q-51 0 -58 3q-16 7 -16 52q0 3 1 4t3 2.5t4 4.5q5 8 18 8q3 0 32 -4t46 -4q22 0 26.5 3t4.5 12v31q0 13 -0.5 37t-0.5 33v23q0 34 1.5 74.5t1.5 49.5q0 14 -2 31t-2 21v27q0 2 -0.5 9t-0.5 11q0 11 6 18.5t14 7.5
q4 0 15 2t17 2q20 0 26 -7q8 -8 8 -18q0 -3 2.5 -11t2.5 -11q-1 -30 -3 -77t-3.5 -81.5t-1.5 -61.5q0 -18 5 -18q6 0 18 12l66 66q36 36 79 83q27 29 39.5 48.5t20.5 46.5q4 16 4 25q0 10 24 10q3 0 14 -2t14 -2q4 0 9.5 -4t11.5 -4q12 0 12 -25q0 -19 -21.5 -57.5
t-51.5 -68.5q-202 -202 -207 -206q-11 -8 -11 -14q0 -4 7 -4q2 0 40 5t43 5q21 0 30 -7q5 -4 5 -14q-1 -22 -9 -34q-1 -2 -2.5 -7t-3.5 -7.5t-5 -2.5t-12.5 1t-17.5 1q-2 0 -49.5 -3.5t-51.5 -3.5q-11 0 -12 -6q-12 -33 -12 -35q0 -5 6 -5q4 0 50.5 4.5t51.5 4.5q20 0 27 -5
q8 -8 8 -13q0 -14 -8 -40q-4 -11 -10 -11q-5 0 -17 2t-22 2q-67 -9 -101 -9q-5 0 -7 -2t-6 -12q-22 -66 -22 -84q0 -4 1 -7t1 -4q0 -4 -8 -21t-10 -33q-2 -19 -38 -19q-3 0 -8 3.5t-8 3.5q-7 0 -15 3.5t-13 7.5t-5 6q0 4 8 30t12 36q2 3 8 28l5 18q2 6 6 16q6 16 6 20t-5 4
q-1 0 -23 -1t-31 -1q-26 0 -32 3q-9 4 -18 18t-9 31q0 2 1 3.5t3 4t3 5.5q1 7 16 7q1 0 13 -1.5t29.5 -3t33.5 -1.5q27 0 34 1.5t9 7.5z" />
    <glyph glyph-name="brokenbar" unicode="&#xa6;" horiz-adv-x="292" 
d="M171 55l-93 -242q-4 -13 -13 -13q-11 0 -15 2.5t-6 7t-7 7.5q-23 13 -23 28q0 12 10 36q6 16 8.5 30.5t4.5 19.5l71 213q19 56 40 56q13 0 23.5 -4t16.5 -5q27 -4 27 -26q0 -41 -16 -60q-16 -18 -28 -50zM220 485l51 149q28 72 38 89q5 8 23 8q4 0 13.5 -4t19.5 -7
q10 -2 18.5 -8.5t8.5 -12.5q0 -14 -3 -25.5t-3 -16.5q0 -4 -10 -18q-26 -32 -45 -85q-10 -27 -16 -42l-19 -52l-25 -73q-12 -37 -15 -42t-10 -5q-22 0 -27 11q-5 10 -11.5 17t-10.5 9.5t-6.5 4.5t-2.5 5q0 8 32 98z" />
    <glyph glyph-name="section" unicode="&#xa7;" horiz-adv-x="406" 
d="M234 29q-8 -2 -9.5 -4t-1.5 -6q0 -1 0.5 -6t1.5 -14.5t1 -21.5q0 -50 -15 -76q-25 -41 -68 -74q-25 -19 -71 -19q-49 0 -82.5 32.5t-33.5 89.5q0 30 13 36q5 3 19.5 13t20.5 10q23 0 23 -17q0 -5 3.5 -15.5t3.5 -20.5q0 -20 13 -42t40 -22q17 0 35 20q21 25 21 56
q0 56 -33 143q-28 80 -28 144q0 66 19 97q24 41 55.5 66.5t58.5 33.5q19 6 19 10q0 1 -0.5 3t-1 5t-0.5 6q-4 15 -4 46q0 74 65 134q38 36 113 36q29 0 44 -15q11 -9 21.5 -33t10.5 -48q0 -25 -11 -27q-5 -1 -19 -9t-28 -8q-6 0 -9 7q-5 12 -6 25t-2 15q-6 19 -12 26t-20 7
q-23 0 -44.5 -21t-21.5 -61q0 -44 29 -116l14 -31q34 -74 34 -148q0 -56 -17 -90q-16 -34 -56 -70l-28 -24q-17 -14 -56 -22zM204 108q2 -6 11 -6t30.5 10t35.5 26q27 33 27 75q0 40 -40 146q-3 8 -9 8q-17 0 -42 -18.5t-36 -42.5q-12 -27 -12 -50q0 -11 4 -38
q8 -43 31 -110z" />
    <glyph glyph-name="dieresis" unicode="&#xa8;" 
d="M358 822q11 -17 11 -32t-11.5 -31t-11.5 -18q0 -7 -14.5 -12t-24.5 -5h-8q-5 0 -7 2q-7 5 -12.5 13t-7.5 10t-2 29q0 12 13 41q9 16 35 16q32 0 40 -13zM543 764q1 -3 4 -9.5t5 -12t2 -10.5q0 -10 -2 -16q-15 -31 -25 -36q-9 -4 -29 -4q-16 0 -24 15q-1 2 -11 16.5
t-10 26.5q0 10 9 29.5t22 19.5q1 0 8.5 -0.5t11.5 -0.5q34 0 39 -18z" />
    <glyph glyph-name="copyright" unicode="&#xa9;" horiz-adv-x="796" 
d="M422 -20q-40 0 -93 13.5t-81 34.5q-26 19 -42 33.5t-40 44.5t-36 72.5t-12 95.5q0 96 43 185.5t126 150t185 60.5q77 0 125 -13t89 -54q5 -5 26 -23.5t35 -35.5t28 -40q36 -66 36 -134q0 -38 -8.5 -80t-27.5 -90t-57 -94t-90 -78q-78 -48 -206 -48zM498 603
q-94 0 -165.5 -54t-106.5 -134t-35 -169q0 -55 20 -96.5t53 -64t70.5 -33.5t79.5 -11q76 0 138.5 30.5t100 80t58 109t20.5 120.5q0 112 -63 167t-170 55zM564 258h23q26 0 26 -17q0 -1 2.5 -4t2.5 -6q0 -9 -6 -12q-8 -4 -23 -22q-43 -52 -76 -77.5t-72 -25.5q-24 0 -45 4
q-72 14 -105 64q-21 32 -21 77q0 103 79 209q71 96 165 96q24 0 41 -4q35 -9 71 -45q9 -9 9 -25q0 -14 -7.5 -36.5t-7.5 -34.5q0 -4 -8.5 -8t-21.5 -4q-23 0 -35 5q-20 6 -20 15q0 15 8.5 34.5t8.5 29.5q0 15 -30 15q-36 0 -72 -41.5t-57 -83.5q-43 -83 -43 -156
q0 -24 14 -40.5t45 -16.5q42 0 88 58q24 30 38.5 41t28.5 11z" />
    <glyph glyph-name="ordfeminine" unicode="&#xaa;" horiz-adv-x="442" 
d="M481 602q4 -4 17.5 -7t16.5 -6q11 -9 11 -17q0 -17 -12 -24q-2 -1 -15 -19q-25 -34 -45.5 -83.5t-20.5 -89.5t22 -66q0 -18 -12 -18q-22 -8 -37 -8q-17 0 -27 15q-9 15 -12 28.5t-4.5 38t-1.5 26.5q0 6 -7 6q-4 -3 -22 -18.5t-33.5 -28t-34.5 -26.5t-34.5 -22.5
t-24.5 -8.5q-18 0 -49 16.5t-42 42.5q-5 15 -5 25q0 26 12.5 56t25 49t38.5 54q35 48 103 88t109 40q19 0 35.5 -7t25 -14t23.5 -22zM104 157h-24q-7 0 -19 2q-18 5 -22 25q-1 5 -5 12t-4 24q0 11 6.5 14t34.5 3q7 0 14 -2.5t13 -2.5q25 0 33 -2.5t19 -2.5q30 0 90 2t91 2
q11 0 30.5 1t28.5 1q35 0 46 -3q6 -2 7.5 -8.5t6.5 -10.5q7 -6 7 -16q0 -17 -8 -30q-4 -7 -40 -7q-6 0 -43.5 0.5t-66.5 0.5q-18 0 -78.5 -1t-116.5 -1zM430 572q0 11 -15 11q-20 0 -49 -11q-48 -13 -117 -91t-69 -132q0 -6 8 -6q23 0 110 71t99 102q2 9 17.5 28.5
t15.5 27.5z" />
    <glyph glyph-name="guillemotleft" unicode="&#xab;" horiz-adv-x="410" 
d="M336 181l-69 95q-9 14 -9 28l4 16q7 18 11 24l79 89q17 21 26.5 30t13.5 10.5t13 1.5q19 0 31 -27q3 -7 8.5 -13t5.5 -11q0 -8 -7 -15q-8 -9 -19.5 -17t-18.5 -15l-54 -51q-7 -7 -7 -13t3 -12l45 -83q4 -7 4 -27q0 -10 -7 -14q-10 -10 -14 -13q-7 -7 -14 -7q-9 0 -12 4
q-7 12 -13 20zM106 276q-4 5 -4 23q0 5 -1 11t-1 7q0 12 11 27l77 84q42 47 52 47q20 0 25 -11q2 -5 6 -9.5t6 -8.5q9 -16 9 -25q0 -7 -6.5 -14.5t-35.5 -30.5q-15 -11 -31.5 -27.5t-23.5 -21.5q-6 -5 -6 -13q0 -4 3 -12q28 -62 37 -74q8 -9 8 -29q0 -19 -3 -22
q-14 -20 -37 -20q-10 0 -19 22q-1 3 -12.5 20t-28.5 40.5t-25 36.5z" />
    <glyph glyph-name="logicalnot" unicode="&#xac;" horiz-adv-x="590" 
d="M519 357q7 0 20 -11.5t13 -17.5v-2q-1 -1 -1.5 -3.5t-0.5 -5.5q0 -2 -4 -13q-27 -108 -33 -126q-1 -4 -2.5 -14t-4.5 -20q-5 -17 -9 -21.5t-12 -4.5h-20q-2 0 -8.5 -1t-10.5 -1q-20 0 -20 12q0 8 4 20t12.5 38t16.5 54q4 13 4 25q0 9 -5.5 11t-26.5 2q-24 0 -85 2t-107 2
q-3 0 -31 -4q-18 -2 -30 -2h-31q-14 0 -14 6q0 4 -1.5 9t-1.5 8q0 15 14 41l4 8q4 6 21.5 7.5t89.5 1.5h89q23 0 67.5 -1.5t66.5 -1.5q9 0 20.5 1.5t16.5 1.5z" />
    <glyph glyph-name="uni00AD" unicode="&#xad;" horiz-adv-x="456" 
d="M423 243q-3 -3 -11 -4.5t-21 -3t-23 -4.5q-12 -3 -51 -3h-19q-35 0 -91 4t-60 4q-11 0 -23 28q-6 16 -6 26q0 7 3 13q7 12 36 12q30 0 84 -2t84 -2q11 0 38.5 2t36.5 2q37 0 37 -18q0 -40 -14 -54z" />
    <glyph glyph-name="registered" unicode="&#xae;" horiz-adv-x="658" 
d="M387 138q-72 0 -130 38q-49 32 -72 58.5t-34 74.5q-9 36 -9 55q0 53 19 110t53.5 107.5t89.5 83.5t119 33q69 0 106.5 -10.5t65.5 -41.5q6 -6 22 -19t31 -28.5t27 -34.5q33 -56 33 -114q0 -32 -9 -69.5t-32.5 -81.5t-58.5 -79t-92.5 -58.5t-128.5 -23.5zM635 493
q-8 72 -59.5 108.5t-126.5 36.5q-72 0 -127 -44.5t-80.5 -106.5t-25.5 -127q0 -72 47 -118t120 -46q99 0 160 55q93 83 93 216v13q0 8 -1 13zM427 273q-35 41 -55 100q-4 -6 -6 -12.5t-4 -14t-3 -11.5q-12 -37 -12 -73q0 -6 -4 -7q-7 -4 -18 -4q-12 0 -19 4q-3 3 -9 5
t-9 3.5t-3 5.5q0 1 3 24q8 55 46 171q1 5 10 28l7 18q4 8 4 10q0 1 -3 4q-15 15 -15 27q0 3 6 6q60 41 119 41q32 0 60 -12q17 -6 28 -25q5 -18 5 -38q0 -50 -46 -96q-25 -25 -82 -38q24 -50 39 -66t37 -23q3 -1 6 -4q6 -10 6 -24q0 -4 -0.5 -7t-1.5 -5.5t-1.5 -3.5
t-2.5 -2.5t-2.5 -2t-3.5 -1.5l-3 -1q-8 -2 -22 -2q-30 0 -51 26zM487 548q-4 6 -14 6q-5 0 -25 -5q-7 -1 -12 -9q-23 -42 -45 -107q26 0 46 13q52 34 52 86q0 10 -2 16z" />
    <glyph glyph-name="overscore" unicode="&#xaf;" 
d="M424 783q23 0 71 1.5t59 1.5q5 0 7 -2t3 -5.5t4 -6.5q4 -4 4 -7q0 -1 -1 -5t-1 -6q0 -22 -6 -31q-5 -8 -16 -8q-4 0 -17.5 0.5t-19.5 0.5t-66.5 -1t-90.5 -1q-69 0 -78 4q-22 7 -22 55q0 14 34 14q9 0 46 -2t90 -2z" />
    <glyph glyph-name="degree" unicode="&#xb0;" horiz-adv-x="384" 
d="M382 376q-27 -23 -70 -23q-26 0 -47 10q-49 22 -68 55q-23 41 -23 73q0 29 15 57.5t47 72.5q14 20 45 38t52 18q20 0 29.5 -1t27 -7.5t36.5 -20.5q21 -15 36 -42.5t15 -53.5q0 -31 -24.5 -84t-70.5 -92zM400 600q-12 29 -27 29q-18 0 -32 -13q-95 -89 -95 -160
q0 -30 14 -43t28 -13q16 0 29 15q52 67 71 99t19 56q0 11 -7 30z" />
    <glyph glyph-name="plusminus" unicode="&#xb1;" horiz-adv-x="590" 
d="M407 398q4 1 11 1h11q10 0 56.5 5.5t53.5 5.5q23 0 37 -14q4 -4 4 -12q0 -6 -13 -40q-4 -10 -10 -10q-3 0 -8 1t-7 1q-10 0 -26 -2q-10 -1 -55 -4.5t-78 -8.5q-5 0 -7 -3q-21 -72 -30 -140q-2 -13 -4 -18.5t-9 -10.5t-21 -5q-3 0 -8.5 -1.5t-7.5 -1.5q-11 0 -18 3t-9.5 6
t-2.5 5q0 14 3 29.5t9 41.5t10 45l7 36q0 6 -5 6h-38q-71 0 -91 10q-18 7 -18 57q0 6 9 13q7 7 18 7h6q2 0 8 -2q18 -6 69 -6h45q23 0 24 7q20 53 29 94q12 50 23 55q9 3 18.5 6.5t14.5 5t9 1.5q21 0 27 -6q5 -5 5 -10q0 -2 -2 -7t-2 -6l-11 -35q-23 -75 -30 -94q0 -5 4 -5z
M511 86q0 -21 -8 -42q-3 -8 -8 -8q-4 0 -13.5 1t-13.5 1q-13 0 -104 -4t-136 -4q-30 0 -78 3.5t-51 3.5q-9 0 -15 23t-6 39t34 16q5 0 26 -2t56.5 -4t75.5 -2q16 0 97 4t113 4q14 0 28 -14q3 -7 3 -15z" />
    <glyph glyph-name="twosuperior" unicode="&#xb2;" horiz-adv-x="364" 
d="M354 596q-9 0 -17.5 -3t-14.5 -7t-14 -11.5t-12 -12t-10.5 -13t-8.5 -10.5q-18 -20 -19 -23q-6 -13 -20 -15q-5 -1 -10.5 -2t-6.5 -1q-19 0 -29 10q-13 13 -13 32q0 14 19 36q17 24 64 52q36 22 91 22q25 0 53.5 -24t28.5 -41q0 -90 -95 -191l-42 -42
q-103 -103 -103 -111q0 -1 5 -3q10 -2 21 -2h20q45 0 60 7.5t26 30.5q9 21 12 24q11 11 32 11q19 0 35 -17q5 -5 5 -15q0 -18 -10 -45t-15 -32q-11 -14 -38.5 -18.5t-92.5 -4.5q-109 0 -130 17q-29 23 -29 48q0 11 24 37q7 8 29 30l68 68q53 53 99 112.5t46 94.5q0 12 -8 12
z" />
    <glyph glyph-name="threesuperior" unicode="&#xb3;" horiz-adv-x="364" 
d="M332 581q-59 -33 -59 -46q0 -7 -3 -10t-8 -6t-8 -7q-4 -6 -26 -6q-16 0 -22 6q-17 17 -17 30t5.5 21.5t21.5 21.5t19 16t13.5 5.5t13.5 4.5q57 33 90 33q23 0 37 -10q7 -4 9 -4q20 -6 27 -22q4 -7 4 -16t-7 -25q-1 -2 -3 -8t-4 -9q-33 -58 -73 -100q67 -14 67 -85
q0 -40 -26 -90q-48 -107 -132 -107q-60 0 -134 84q-11 11 -11 25q0 17 23 17q10 0 18 1t11 1q14 0 21 -9q3 -4 10 -10t10.5 -11t3.5 -10q0 -6 14.5 -17.5t26.5 -11.5q5 0 12 4q38 27 60 77q19 42 19 58q0 12 -8 26q-5 6 -12 6q-6 0 -15 -4q-3 -1 -10 -3t-11 -4
q-46 -25 -65 -25q-10 0 -19 3t-14.5 12.5t-5.5 18.5q0 6 3 9q4 3 30 20q7 4 18 15q70 47 112 132q3 6 3 9q0 2 -2 2q-1 0 -7 -2z" />
    <glyph glyph-name="acute" unicode="&#xb4;" 
d="M313 760l89 34q46 14 77 35q3 3 14 3t19 -8q11 -11 11 -28q0 -20 -5 -26q-10 -13 -72 -32l-118 -37q-10 -3 -20 -3q-5 0 -11 2q-12 8 -15 14q-4 6 -5 7l-4 4q-3 3 -3 8q0 7 5 14q4 5 13 5q3 0 25 8z" />
    <glyph glyph-name="mu" unicode="&#xb5;" 
d="M139 122q-4 0 -52 -105q-40 -85 -125 -259q-4 -12 -15 -27t-17 -15t-17 1t-14 1q-4 0 -12 7.5t-14 8.5q-9 1 -9 26q0 17 8.5 30.5t40.5 47.5q9 10 39 66q127 232 256 516q14 30 21 30q9 0 15.5 4.5t10.5 4.5q32 0 39 -11q5 -9 5 -31q0 -6 -9.5 -19t-11.5 -20
q-2 -6 -18.5 -38.5t-21.5 -53.5q-4 -17 -12 -47.5t-10 -42.5t-4.5 -38.5t-2.5 -63.5q0 -41 12 -41q10 0 20 10q11 9 80 97q41 51 57 81t47 111q4 11 7 16t10.5 8.5t21.5 3.5q5 0 14 -5t13 -5q18 0 18 -13q0 -18 -7 -34q-57 -119 -73 -226q-6 -42 -6 -74q0 -8 8 -24t8 -47
q0 -15 -31 -15q-8 0 -18 5t-17 5q-2 0 -3.5 0.5t-2.5 2l-2 3t-2 3.5t-1.5 4t-1.5 5t-1 5t-1 5t-1 5q-3 21 -3 52q0 14 1 27.5t1 17.5q0 9 -5 9t-31 -41q-24 -32 -51 -51t-38 -19q-32 0 -56 14t-29 28q-5 12 -5 55v19q0 14 1 22q0 9 -3 9z" />
    <glyph glyph-name="paragraph" unicode="&#xb6;" horiz-adv-x="544" 
d="M472 589v-589h-50v589h-52v-589h-50v353q-70 0 -112 38t-42 103t42 103t112 38h210v-46h-58z" />
    <glyph glyph-name="middot" unicode="&#xb7;" horiz-adv-x="344" 
d="M272 340q17 -23 17 -44q0 -12 -3 -24q-21 -71 -65 -71q-19 0 -43.5 8t-27.5 20q-6 18 -6 44q0 46 12 58q23 23 78 23q27 0 38 -14z" />
    <glyph glyph-name="cedilla" unicode="&#xb8;" horiz-adv-x="338" 
d="M126 28h54l33 -52q10 -14 10 -38t-17 -47q-41 -60 -91 -60q-24 0 -59 13t-49 35q-7 10 -7 16q0 8 15 23q4 4 8 4q2 0 5.5 -1.5t5.5 -1.5q5 0 11.5 -4.5t7.5 -9.5q1 -7 11.5 -13.5t24.5 -6.5q21 0 34.5 14.5t29.5 48.5q5 11 5 19q0 11 -5 19z" />
    <glyph glyph-name="onesuperior" unicode="&#xb9;" horiz-adv-x="364" 
d="M277 269q32 116 50 194q0 2 -2 2q-1 0 -7 -7q-33 -42 -60.5 -73.5t-42 -46t-25 -24t-14.5 -13t-5 -6.5q-5 -7 -22 -7q-15 0 -22 7q-2 2 -8 5.5t-8 6.5q-11 13 -11 18t13 18q21 21 43 35q18 13 31 28q55 60 138 159q24 29 54 79q5 6 18 6q19 0 37.5 -10t18.5 -25
q0 -1 -2 -9q-16 -40 -30.5 -88.5t-23.5 -84t-23 -94t-22 -88.5q-7 -26 -7 -43q0 -34 -23 -34q-4 0 -10 -1t-9 -1q-23 0 -40 14q-4 4 -4 15q0 10 4 26q2 11 7.5 24t6.5 18z" />
    <glyph glyph-name="ordmasculine" unicode="&#xba;" horiz-adv-x="408" 
d="M465 526q0 -47 -26.5 -104t-65.5 -103q-27 -32 -51.5 -41t-62.5 -9q-63 0 -94 43q-33 45 -33 86q0 56 57 154q26 45 66.5 74.5t88.5 29.5q22 0 35 -10t20 -10q22 0 44 -34t22 -76zM372 572q-7 9 -7 16q0 8 -3 10t-15 2q-26 0 -47 -30q-92 -127 -92 -189q0 -28 13.5 -45.5
t36.5 -17.5q24 0 49 40q79 125 79 170q0 29 -14 44zM133 154h-16l-20 1q-26 2 -31 3q-16 4 -21.5 7.5t-7.5 12.5q-2 5 -3 8.5t-2 4.5t-1.5 4t-0.5 7.5v13.5q0 11 6.5 14t34.5 3q7 0 29 -3.5t28 -3.5h45q35 0 74.5 1t65 2.5t27.5 1.5q35 0 56 -4q7 -1 7 -4q0 -2 -2 -4t-2 -3
q0 -3 9.5 -10.5t9.5 -12.5q0 -11 -12 -28q-5 -7 -44 -7q-6 0 -39.5 1t-62.5 1q-18 0 -45 -3t-82 -3z" />
    <glyph glyph-name="guillemotright" unicode="&#xbb;" horiz-adv-x="410" 
d="M417 276l-100 -100q-18 -18 -43 -18q-5 0 -11.5 8t-6.5 16q0 1 -3 3.5t-3 6.5q0 6 4 10l94 102q7 7 7 14q0 8 -4 12q-8 12 -13 26l-4 7q-1 3 -5.5 10.5t-8.5 15.5q-3 4 -8.5 12t-9 13.5t-3.5 8.5q0 7 3.5 11.5t13 12.5t16.5 17q8 10 25 10q7 0 13 -2q8 -5 27 -44l38 -78
q4 -7 4 -33q0 -19 -22 -41zM256 276l-121 -108q-12 -12 -20 -12q-4 0 -14 8l-5 5q-3 3 -3 8q0 28 9 39l85 88q8 10 8 18q0 5 -4 12l-26 48q-14 26 -17 33q-5 8 -5 12t11.5 20t18.5 20q10 7 19 7q6 0 10.5 2.5t8.5 2.5q8 0 13 -11l48 -115q6 -16 6 -36q0 -21 -22 -41z" />
    <glyph glyph-name="onequarter" unicode="&#xbc;" horiz-adv-x="950" 
d="M722 91q0 3 -5 3q-68 0 -106 15q-14 5 -28 28t-14 29q0 15 8 24t42.5 48.5t53 59.5t51 53t61.5 58q12 11 15 15q11 17 28 17q11 0 20 -4q28 -11 28 -30q0 -9 -6 -24.5t-6 -20.5q0 -15 -6 -36q-1 -3 -7 -22.5t-13.5 -45t-12.5 -44.5q-10 -35 -10 -45q0 -3 3 -3
q1 0 7.5 1.5t17 3t21.5 1.5q26 0 37 -11q1 -1 7 -11q6 -13 6 -20q0 -5 -3 -8t-9 -4.5t-12.5 -2t-17 -1t-17.5 -1.5q-4 -1 -22 -4t-27 -5q-7 -15 -10 -33.5t-5.5 -41t-4.5 -34.5q-2 -16 -14 -16q-19 0 -52 20q-10 6 -10 20q0 9 6 41l4 20q0 3 0.5 5.5t1.5 4.5v1zM797 632
q0 -18 -1.5 -23t-7.5 -7l-6 -3q-4 -1 -9 -8q-10 -11 -21.5 -19t-15.5 -14q-69 -90 -182 -273.5t-137 -220.5q-28 -43 -49.5 -69.5t-27.5 -26.5q-22 0 -33 8q-7 5 -9.5 7t-4.5 7t-2 12q0 33 11 38q12 4 29 30l22 33l305 470q17 26 40 53t31 33q20 14 32 14q13 0 27 -12
q9 -6 9 -29zM277 269q32 116 50 194q0 2 -2 2q-1 0 -7 -7q-33 -42 -60.5 -73.5t-42 -46t-25 -24t-14.5 -13t-5 -6.5q-5 -7 -22 -7q-15 0 -22 7q-2 2 -8 5.5t-8 6.5q-11 13 -11 18t13 18q21 21 43 35q18 13 31 28q55 60 138 159q24 29 54 79q5 6 18 6q19 0 37.5 -10t18.5 -25
q0 -1 -2 -9q-16 -40 -30.5 -88.5t-23.5 -84t-23 -94t-22 -88.5q-7 -26 -7 -43q0 -34 -23 -34q-4 0 -10 -1t-9 -1q-23 0 -40 14q-4 4 -4 15q0 10 4 26q2 11 7.5 24t6.5 18zM761 293q-48 -55 -108 -128q-3 -5 -3 -6q0 -5 10 -6q10 -2 19 -2h22q6 0 28 2q7 1 8 8q7 34 30 115
q7 22 7 25t-1 3t-12 -11z" />
    <glyph glyph-name="onehalf" unicode="&#xbd;" horiz-adv-x="950" 
d="M822 403q-9 0 -17.5 -3t-14.5 -7t-14 -11.5t-12 -12t-10.5 -13t-8.5 -10.5q-18 -20 -19 -23q-6 -13 -20 -15q-5 -1 -10.5 -2t-6.5 -1q-19 0 -29 10q-13 13 -13 32q0 14 19 36q17 24 64 52q36 22 91 22q25 0 53.5 -24t28.5 -41q0 -90 -95 -191l-42 -42
q-103 -103 -103 -111q0 -1 5 -3q10 -2 21 -2h20q45 0 60 7.5t26 30.5q9 21 12 24q11 11 32 11q19 0 35 -17q5 -5 5 -15q0 -18 -10 -45t-15 -32q-11 -14 -38.5 -18.5t-92.5 -4.5q-109 0 -130 17q-29 23 -29 48q0 11 24 37q7 8 29 30l68 68q53 53 99 112.5t46 94.5q0 12 -8 12
zM786 632q0 -18 -1.5 -23t-7.5 -7l-6 -3q-4 -1 -9 -8q-10 -11 -21.5 -19t-15.5 -14q-69 -90 -182 -273.5t-137 -220.5q-28 -43 -49.5 -69.5t-27.5 -26.5q-22 0 -33 8q-7 5 -9.5 7t-4.5 7t-2 12q0 33 11 38q12 4 29 30l22 33l305 470q17 26 40 53t31 33q20 14 32 14
q14 0 27 -12q9 -6 9 -29zM277 269q32 116 50 194q0 2 -2 2q-1 0 -7 -7q-33 -42 -60.5 -73.5t-42 -46t-25 -24t-14.5 -13t-5 -6.5q-5 -7 -22 -7q-15 0 -22 7q-2 2 -8 5.5t-8 6.5q-11 13 -11 18t13 18q21 21 43 35q18 13 31 28q55 60 138 159q24 29 54 79q5 6 18 6
q19 0 37.5 -10t18.5 -25q0 -1 -2 -9q-16 -40 -30.5 -88.5t-23.5 -84t-23 -94t-22 -88.5q-7 -26 -7 -43q0 -34 -23 -34q-4 0 -10 -1t-9 -1q-23 0 -40 14q-4 4 -4 15q0 10 4 26q2 11 7.5 24t6.5 18z" />
    <glyph glyph-name="threequarters" unicode="&#xbe;" horiz-adv-x="950" 
d="M722 91q0 3 -5 3q-68 0 -106 15q-14 5 -28 28t-14 29q0 15 8 24t42.5 48.5t53 59.5t51 53t61.5 58q12 11 15 15q11 17 28 17q11 0 20 -4q28 -11 28 -30q0 -9 -6 -24.5t-6 -20.5q0 -15 -6 -36q-1 -3 -7 -22.5t-13.5 -45t-12.5 -44.5q-10 -35 -10 -45q0 -3 3 -3
q1 0 7.5 1.5t17 3t21.5 1.5q26 0 37 -11q1 -1 7 -11q6 -13 6 -20q0 -5 -3 -8t-9 -4.5t-12.5 -2t-17 -1t-17.5 -1.5q-4 -1 -22 -4t-27 -5q-7 -15 -10 -33.5t-5.5 -41t-4.5 -34.5q-2 -16 -14 -16q-19 0 -52 20q-10 6 -10 20q0 9 6 41l4 20q0 3 0.5 5.5t1.5 4.5v1zM332 581
q-59 -33 -59 -46q0 -7 -3 -10t-8 -6t-8 -7q-4 -6 -26 -6q-16 0 -22 6q-17 17 -17 30t5.5 21.5t21.5 21.5t19 16t13.5 5.5t13.5 4.5q57 33 90 33q23 0 37 -10q7 -4 9 -4q20 -6 27 -22q4 -7 4 -16t-7 -25q-1 -2 -3 -8t-4 -9q-33 -58 -73 -100q67 -14 67 -85q0 -40 -26 -90
q-48 -107 -132 -107q-60 0 -134 84q-11 11 -11 25q0 17 23 17q10 0 18 1t11 1q14 0 21 -9q3 -4 10 -10t10.5 -11t3.5 -10q0 -6 14.5 -17.5t26.5 -11.5q5 0 12 4q38 27 60 77q19 42 19 58q0 12 -8 26q-5 6 -12 6q-6 0 -15 -4q-3 -1 -10 -3t-11 -4q-46 -25 -65 -25
q-10 0 -19 3t-14.5 12.5t-5.5 18.5q0 6 3 9q4 3 30 20q7 4 18 15q70 47 112 132q3 6 3 9q0 2 -2 2q-1 0 -7 -2zM797 632q0 -18 -1.5 -23t-7.5 -7l-6 -3q-4 -1 -9 -8q-10 -11 -21.5 -19t-15.5 -14q-69 -90 -182 -273.5t-137 -220.5q-28 -43 -49.5 -69.5t-27.5 -26.5
q-22 0 -33 8q-7 5 -9.5 7t-4.5 7t-2 12q0 33 11 38q12 4 29 30l22 33l305 470q17 26 40 53t31 33q20 14 32 14q13 0 27 -12q9 -6 9 -29zM761 293q-48 -55 -108 -128q-3 -5 -3 -6q0 -5 10 -6q10 -2 19 -2h22q6 0 28 2q7 1 8 8q7 34 30 115q7 22 7 25t-1 3t-12 -11z" />
    <glyph glyph-name="questiondown" unicode="&#xbf;" horiz-adv-x="360" 
d="M50 -90q0 37 15.5 60t93.5 105q77 80 85 93q6 11 6 21t-13 16.5t-27 6.5q-29 0 -39 -8q-17 -11 -29 -11q-21 0 -26 13q-1 3 -5 10t-4 10q0 18 15 29q29 21 75 21q50 0 88 -20q44 -24 44 -62q0 -33 -19 -59.5t-113 -120.5q-42 -42 -56 -62t-14 -35q0 -11 14.5 -21.5
t26.5 -10.5q21 0 35 9.5t14 29.5q0 2 -1 10t-1 12q0 21 23 21t36 -15q13 -13 13 -35q0 -38 -28 -64q-31 -28 -79 -28q-49 0 -82 20q-48 27 -48 65zM364 429q0 -25 -9 -34q-25 -25 -48 -25q-25 0 -35 14q-2 3 -8 9t-9 10.5t-3 8.5q0 15 5 27q12 41 38 41q11 0 40 -19.5
t29 -31.5z" />
    <glyph glyph-name="Agrave" unicode="&#xc0;" 
d="M460 -73q0 -4 -2 -8t-4.5 -6t-7 -6t-6.5 -5q-5 -4 -11 -4q-33 0 -51 18q-19 19 -19 127q0 22 2 66t2 68q0 4 -6 4q-142 -53 -203 -61q-9 -1 -15 -14q-16 -36 -16 -70q0 -15 0.5 -26t1 -15.5t1 -8.5t0.5 -6q0 -3 -5 -6q-3 -2 -11 -9t-14 -10t-13 -3q-3 0 -19 9
q-17 10 -22.5 23.5t-5.5 44.5q0 18 3 38.5t6.5 34t3.5 14.5q0 4 -6 7q-20 11 -26 16.5t-6 14.5q0 15 6 33.5t9 21.5q4 4 11 4q8 0 22.5 -8.5t20.5 -8.5q4 0 12 14q120 222 272 451q17 25 22 25q4 0 27.5 6t36.5 6q29 0 34 -9q2 -6 5 -9t3 -7t-7.5 -48.5t-7.5 -46.5
q0 -14 -3 -33q-6 -34 -11.5 -95t-8 -103t-2.5 -47q0 -6 6 -6q1 0 18 2t34 2q44 0 61 -19q6 -7 6 -11q0 -6 -4 -13q-16 -26 -72 -26q-28 0 -44 -10q-10 -8 -11 -20l-5 -100q0 -3 -0.5 -13.5t-0.5 -17.5v-32q0 -36 5 -61.5t10 -36.5zM365 267q24 178 24 268q0 16 -3 16
q-4 0 -9 -8q-100 -159 -180 -309q-12 -21 -12 -26q0 -4 6 -4q8 0 43 9.5t57 18.5q16 6 32 11.5t24.5 8.5t10.5 4q6 4 7 11zM527 707l-102 66q-24 17 -66 33q-12 4 -12 33q0 15 11 26q12 12 24 12q4 0 8 -1.5t6 -1.5t55 -38l102 -70q26 -18 26 -25q0 -5 -5 -17
q-2 -4 -2.5 -9.5t-0.5 -6.5q-3 -10 -13 -10q-18 0 -31 9z" />
    <glyph glyph-name="Aacute" unicode="&#xc1;" 
d="M460 -73q0 -4 -2 -8t-4.5 -6t-7 -6t-6.5 -5q-5 -4 -11 -4q-33 0 -51 18q-19 19 -19 127q0 22 2 66t2 68q0 4 -6 4q-142 -53 -203 -61q-9 -1 -15 -14q-16 -36 -16 -70q0 -15 0.5 -26t1 -15.5t1 -8.5t0.5 -6q0 -3 -5 -6q-3 -2 -11 -9t-14 -10t-13 -3q-3 0 -19 9
q-17 10 -22.5 23.5t-5.5 44.5q0 18 3 38.5t6.5 34t3.5 14.5q0 4 -6 7q-20 11 -26 16.5t-6 14.5q0 15 6 33.5t9 21.5q4 4 11 4q8 0 22.5 -8.5t20.5 -8.5q4 0 12 14q120 222 272 451q17 25 22 25q4 0 27.5 6t36.5 6q29 0 34 -9q2 -6 5 -9t3 -7t-7.5 -48.5t-7.5 -46.5
q0 -14 -3 -33q-6 -34 -11.5 -95t-8 -103t-2.5 -47q0 -6 6 -6q1 0 18 2t34 2q44 0 61 -19q6 -7 6 -11q0 -6 -4 -13q-16 -26 -72 -26q-28 0 -44 -10q-10 -8 -11 -20l-5 -100q0 -3 -0.5 -13.5t-0.5 -17.5v-32q0 -36 5 -61.5t10 -36.5zM365 267q24 178 24 268q0 16 -3 16
q-4 0 -9 -8q-100 -159 -180 -309q-12 -21 -12 -26q0 -4 6 -4q8 0 43 9.5t57 18.5q16 6 32 11.5t24.5 8.5t10.5 4q6 4 7 11zM349 798l89 34q46 14 77 35q3 3 14 3t19 -8q11 -11 11 -28q0 -20 -5 -26q-10 -13 -72 -32l-118 -37q-11 -3 -20 -3q-5 0 -11 2q-12 8 -15 14
q-4 6 -5 7l-4 4q-3 3 -3 8q0 7 5 14q4 5 13 5q3 0 25 8z" />
    <glyph glyph-name="Acircumflex" unicode="&#xc2;" 
d="M460 -73q0 -4 -2 -8t-4.5 -6t-7 -6t-6.5 -5q-5 -4 -11 -4q-33 0 -51 18q-19 19 -19 127q0 22 2 66t2 68q0 4 -6 4q-142 -53 -203 -61q-9 -1 -15 -14q-16 -36 -16 -70q0 -15 0.5 -26t1 -15.5t1 -8.5t0.5 -6q0 -3 -5 -6q-3 -2 -11 -9t-14 -10t-13 -3q-3 0 -19 9
q-17 10 -22.5 23.5t-5.5 44.5q0 18 3 38.5t6.5 34t3.5 14.5q0 4 -6 7q-20 11 -26 16.5t-6 14.5q0 15 6 33.5t9 21.5q4 4 11 4q8 0 22.5 -8.5t20.5 -8.5q4 0 12 14q120 222 272 451q17 25 22 25q4 0 27.5 6t36.5 6q29 0 34 -9q2 -6 5 -9t3 -7t-7.5 -48.5t-7.5 -46.5
q0 -14 -3 -33q-6 -34 -11.5 -95t-8 -103t-2.5 -47q0 -6 6 -6q1 0 18 2t34 2q44 0 61 -19q6 -7 6 -11q0 -6 -4 -13q-16 -26 -72 -26q-28 0 -44 -10q-10 -8 -11 -20l-5 -100q0 -3 -0.5 -13.5t-0.5 -17.5v-32q0 -36 5 -61.5t10 -36.5zM365 267q24 178 24 268q0 16 -3 16
q-4 0 -9 -8q-100 -159 -180 -309q-12 -21 -12 -26q0 -4 6 -4q8 0 43 9.5t57 18.5q16 6 32 11.5t24.5 8.5t10.5 4q6 4 7 11zM527 841l60 -103q11 -18 11 -25q0 -5 -2.5 -8t-6 -6t-5.5 -5q-13 -10 -18 -11q-9 0 -18 14l-63 86q-4 6 -8 6q-3 0 -10 -3q-90 -36 -105 -51
q-1 -1 -5 -1q-7 0 -15 6t-9 6q-5 3 -5 24q0 15 2 21q2 4 9 11q6 8 55 25l89 31q9 3 13 3q15 0 19 -7q1 -3 4.5 -5t7.5 -8z" />
    <glyph glyph-name="Atilde" unicode="&#xc3;" 
d="M460 -73q0 -4 -2 -8t-4.5 -6t-7 -6t-6.5 -5q-5 -4 -11 -4q-33 0 -51 18q-19 19 -19 127q0 22 2 66t2 68q0 4 -6 4q-142 -53 -203 -61q-9 -1 -15 -14q-16 -36 -16 -70q0 -15 0.5 -26t1 -15.5t1 -8.5t0.5 -6q0 -3 -5 -6q-3 -2 -11 -9t-14 -10t-13 -3q-3 0 -19 9
q-17 10 -22.5 23.5t-5.5 44.5q0 18 3 38.5t6.5 34t3.5 14.5q0 4 -6 7q-20 11 -26 16.5t-6 14.5q0 15 6 33.5t9 21.5q4 4 11 4q8 0 22.5 -8.5t20.5 -8.5q4 0 12 14q120 222 272 451q17 25 22 25q4 0 27.5 6t36.5 6q29 0 34 -9q2 -6 5 -9t3 -7t-7.5 -48.5t-7.5 -46.5
q0 -14 -3 -33q-6 -34 -11.5 -95t-8 -103t-2.5 -47q0 -6 6 -6q1 0 18 2t34 2q44 0 61 -19q6 -7 6 -11q0 -6 -4 -13q-16 -26 -72 -26q-28 0 -44 -10q-10 -8 -11 -20l-5 -100q0 -3 -0.5 -13.5t-0.5 -17.5v-32q0 -36 5 -61.5t10 -36.5zM365 267q24 178 24 268q0 16 -3 16
q-4 0 -9 -8q-100 -159 -180 -309q-12 -21 -12 -26q0 -4 6 -4q8 0 43 9.5t57 18.5q16 6 32 11.5t24.5 8.5t10.5 4q6 4 7 11zM333 785q0 5 -4 18t-4 19q0 10 9 14l63 23q24 9 45 9q13 0 22 -9t26 -33q16 -24 22.5 -29.5t18.5 -5.5q2 0 39 11l26 9q11 4 15 4q18 0 20 -19
q0 -3 2 -9t2 -12q0 -5 -8 -10q-73 -45 -98 -45q-30 0 -53 18q-10 9 -23.5 29.5t-17.5 23.5q-5 3 -9 3q-14 0 -49 -21q-5 -3 -10 -3q-34 0 -34 15z" />
    <glyph glyph-name="Adieresis" unicode="&#xc4;" 
d="M460 -73q0 -4 -2 -8t-4.5 -6t-7 -6t-6.5 -5q-5 -4 -11 -4q-33 0 -51 18q-19 19 -19 127q0 22 2 66t2 68q0 4 -6 4q-142 -53 -203 -61q-9 -1 -15 -14q-16 -36 -16 -70q0 -15 0.5 -26t1 -15.5t1 -8.5t0.5 -6q0 -3 -5 -6q-3 -2 -11 -9t-14 -10t-13 -3q-3 0 -19 9
q-17 10 -22.5 23.5t-5.5 44.5q0 18 3 38.5t6.5 34t3.5 14.5q0 4 -6 7q-20 11 -26 16.5t-6 14.5q0 15 6 33.5t9 21.5q4 4 11 4q8 0 22.5 -8.5t20.5 -8.5q4 0 12 14q120 222 272 451q17 25 22 25q4 0 27.5 6t36.5 6q29 0 34 -9q2 -6 5 -9t3 -7t-7.5 -48.5t-7.5 -46.5
q0 -14 -3 -33q-6 -34 -11.5 -95t-8 -103t-2.5 -47q0 -6 6 -6q1 0 18 2t34 2q44 0 61 -19q6 -7 6 -11q0 -6 -4 -13q-16 -26 -72 -26q-28 0 -44 -10q-10 -8 -11 -20l-5 -100q0 -3 -0.5 -13.5t-0.5 -17.5v-32q0 -36 5 -61.5t10 -36.5zM365 267q24 178 24 268q0 16 -3 16
q-4 0 -9 -8q-100 -159 -180 -309q-12 -21 -12 -26q0 -4 6 -4q8 0 43 9.5t57 18.5q16 6 32 11.5t24.5 8.5t10.5 4q6 4 7 11zM388 826q11 -17 11 -32t-11.5 -31t-11.5 -18q0 -7 -14.5 -12t-24.5 -5h-8q-5 0 -7 2q-7 5 -12.5 13t-7.5 10t-2 29q0 12 13 41q9 16 35 16
q32 0 40 -13zM603 780q1 -3 4 -9.5t5 -12t2 -10.5v-9q0 -1 -2 -7q-9 -27 -25 -36q-9 -4 -29 -4q-16 0 -24 15q-1 2 -11 16.5t-10 26.5q0 10 9 29.5t22 19.5q1 0 8.5 -0.5t11.5 -0.5q34 0 39 -18z" />
    <glyph glyph-name="Aring" unicode="&#xc5;" 
d="M460 -73q0 -4 -2 -8t-4.5 -6t-7 -6t-6.5 -5q-5 -4 -11 -4q-33 0 -51 18q-19 19 -19 127q0 22 2 66t2 68q0 4 -6 4q-142 -53 -203 -61q-9 -1 -15 -14q-16 -36 -16 -70q0 -15 0.5 -26t1 -15.5t1 -8.5t0.5 -6q0 -3 -5 -6q-3 -2 -11 -9t-14 -10t-13 -3q-3 0 -19 9
q-17 10 -22.5 23.5t-5.5 44.5q0 18 3 38.5t6.5 34t3.5 14.5q0 4 -6 7q-20 11 -26 16.5t-6 14.5q0 15 6 33.5t9 21.5q4 4 11 4q8 0 22.5 -8.5t20.5 -8.5q4 0 12 14q45 83 133.5 225t120.5 196q16 26 22 26q2 0 25.5 5.5t46.5 5.5q35 0 39 -9q1 -2 5 -6.5t4 -9.5t-7 -46.5
t-7 -44.5v-14q0 -2 -2 -16q-5 -34 -10 -89t-7.5 -92t-2.5 -41q0 -6 6 -6q1 0 18 2t34 2q44 0 61 -19q6 -7 6 -11q0 -6 -4 -13q-16 -26 -72 -26q-28 0 -44 -10q-10 -8 -11 -20l-5 -100q0 -3 -0.5 -13.5t-0.5 -17.5v-32q0 -36 5 -61.5t10 -36.5zM365 267q19 167 19 239
q0 16 -3 16t-15 -19q-6 -10 -72.5 -111t-96.5 -158q-12 -21 -12 -26q0 -4 6 -4q8 0 43 9.5t57 18.5q16 6 32 11.5t24.5 8.5t10.5 4q6 4 7 11zM552 818q2 -16 2 -24q0 -43 -26 -83q-20 -29 -58 -29q-43 0 -63 13q-36 25 -36 57q0 24 21 61t42 45q18 7 37 7q14 0 26 -3
q21 -5 36.5 -19t18.5 -25zM488 817q-5 9 -12 9q-10 0 -16 -7q-27 -36 -27 -63q0 -15 7 -25t16 -10q10 0 14 6q2 4 7 12t7.5 13l6 12t5 13t1.5 12q0 15 -9 28z" />
    <glyph glyph-name="AE" unicode="&#xc6;" horiz-adv-x="736" 
d="M366 210q-28 -10 -58.5 -18.5t-78.5 -18.5t-55 -12q-13 -3 -20 -17q-44 -94 -44 -142q0 -4 -6 -8.5t-8 -10.5q-3 -9 -5.5 -11.5t-10.5 -2.5q-37 0 -42 5q-22 20 -22 36q0 37 38 124q5 13 5 14q0 4 -11 4q-29 0 -29 14q0 34 10 53q8 15 11.5 17.5t15.5 2.5q3 0 16.5 -0.5
t20.5 -0.5q12 0 15.5 3t12.5 16q45 68 109.5 148t128.5 154.5t85 101.5q13 15 17 15q2 0 28 6l20 4q14 2 18 2q27 0 33 -8q8 -10 8 -15q0 -7 -4.5 -23t-4.5 -17q0 -6 8 -6q9 0 21 3l35 8q78 19 161 19q4 0 16 -2t15 -2q21 0 55 -49q4 -7 4 -16t-13 -20q-7 -5 -22 -5
q-3 0 -13.5 5.5t-17.5 5.5q-9 0 -16.5 2t-15.5 2q-26 0 -50 -2t-53 -8t-40.5 -9t-47 -13t-39.5 -11q-9 -2 -11.5 -5t-4.5 -15q-4 -19 -12 -55.5t-13.5 -63t-7.5 -42.5q2 -5 5 -5q1 0 16 5q14 7 61 15.5t82 8.5q36 0 53 -13q22 -18 22 -46q0 -15 -22 -15q-4 0 -12.5 -1.5
t-11.5 -1.5q-5 0 -12 1.5t-15 1.5q-29 0 -74 -14q-37 -12 -86 -30q-14 -5 -17 -7.5t-5 -10.5q-27 -135 -27 -202q0 -11 5 -18.5t11 -7.5q27 0 46.5 5.5t46 18.5t38.5 18q15 6 51 30t60 32q19 7 28 7q5 0 18 -5q40 -18 40 -26q0 -10 -1 -13q0 -8 -50 -36q-54 -32 -85.5 -48
t-95 -33.5t-130.5 -17.5q-41 0 -64 33q-9 14 -9 51q0 39 16 169q2 16 2 17q0 5 -4 5q-3 0 -11 -3zM405 325q11 60 49 214q5 22 5 23q0 3 -2 3t-16 -17q-23 -30 -69.5 -86.5t-81 -101.5t-61.5 -88q-8 -13 -8 -16t3 -3q4 0 31 7q55 14 125 40q17 6 20 9t5 16z" />
    <glyph glyph-name="Ccedilla" unicode="&#xc7;" horiz-adv-x="472" 
d="M214 -29q9 -9 9 -33t-17 -47q-41 -60 -91 -60q-22 0 -59 13q-35 13 -49 35q-7 10 -7 16q0 8 15 23q4 4 8 4q2 0 5.5 -1.5t5.5 -1.5q5 0 11.5 -4.5t7.5 -9.5q1 -7 11.5 -13.5t24.5 -6.5q21 0 34.5 14.5t29.5 48.5q5 11 5 19q0 15 -6 19l-43 28q-35 23 -42 54q-5 23 -5 61
q0 22 4.5 57t8.5 43q111 320 312 432q5 4 31 8.5t45 4.5q17 0 33.5 -5t19.5 -9q6 -8 20.5 -22t22.5 -25t8 -21v-12q0 -10 -1 -11q-1 -3 -10.5 -23.5t-18 -42.5t-12.5 -36q-5 -19 -31 -19q-1 0 -29 4q-9 3 -21 13t-12 18q0 20 16.5 44.5t18.5 35.5q0 3 6 12.5t6 18.5
q0 13 -9 13q-46 0 -90 -43t-107 -131q-69 -94 -126 -267q-6 -14 -6 -58q0 -7 4 -20.5t8 -17.5q4 -3 13.5 -12.5t16.5 -14t16 -4.5q21 0 59 19q21 10 43 26t36 28t38 34t35 32q10 8 20 8h19q21 0 34 -19q7 -9 7 -16q0 -1 -36 -37q-41 -40 -60.5 -57.5t-50 -40t-58 -31
t-59.5 -8.5q-12 -3 -12 -6z" />
    <glyph glyph-name="Egrave" unicode="&#xc8;" horiz-adv-x="508" 
d="M679 608q0 -19 -15 -19q-4 0 -12 -3t-13 -3q-3 0 -14 5t-22 5q-111 0 -252 -47q-9 -4 -12 -12q-9 -24 -27 -70t-28 -71q0 -4 4 -4q7 3 26.5 10t30.5 11t28 9t32 7t30 2q37 0 75 -20q13 -8 13 -32q0 -8 -19 -14t-29 -6q-6 0 -17.5 1.5t-15.5 1.5q-27 0 -57 -8t-63.5 -20.5
t-50.5 -16.5l-17 -6q-10 -3 -13 -10q-28 -63 -40.5 -92t-24 -67t-11.5 -63q0 -12 8.5 -23t16.5 -11q37 0 81 19l37.5 15t30.5 13q17 8 49 28t59 32t54 12q9 0 10 -3q1 -1 16 -12.5t15 -18.5q0 -11 -6 -13q-13 -4 -22 -13q-19 -15 -27 -20q-47 -25 -72.5 -37.5t-70.5 -30.5
t-89 -25.5t-92 -7.5q-11 0 -38 11t-39 30q-8 13 -8 51q0 29 7 62t13.5 52.5t22.5 59.5t20 52q-13 13 -13 31v6q0 4 2 6q2 4 29 12q10 4 15 14q42 94 50 126q0 5 -4 5q-2 0 -15 -4t-22 -4q-12 0 -19 4q-10 6 -18 22.5t-8 27.5q0 6 6 7q55 14 181 62q38 16 121 33.5t150 17.5
q20 0 34 -6q49 -24 49 -50zM435 701l-102 66q-24 16 -66 33q-12 4 -12 33q0 15 11 26q12 12 24 12q4 0 8 -1.5t6 -1.5t55 -38l102 -70q26 -18 26 -25q0 -5 -5 -17q-2 -4 -2.5 -9.5t-0.5 -6.5q-3 -10 -13 -10q-18 0 -31 9z" />
    <glyph glyph-name="Eacute" unicode="&#xc9;" horiz-adv-x="508" 
d="M679 608q0 -19 -15 -19q-4 0 -12 -3t-13 -3q-3 0 -14 5t-22 5q-111 0 -252 -47q-9 -4 -12 -12q-9 -24 -27 -70t-28 -71q0 -4 4 -4q7 3 26.5 10t30.5 11t28 9t32 7t30 2q37 0 75 -20q13 -8 13 -32q0 -8 -19 -14t-29 -6q-6 0 -17.5 1.5t-15.5 1.5q-27 0 -57 -8t-63.5 -20.5
t-50.5 -16.5l-17 -6q-10 -3 -13 -10q-28 -63 -40.5 -92t-24 -67t-11.5 -63q0 -12 8.5 -23t16.5 -11q37 0 81 19l37.5 15t30.5 13q17 8 49 28t59 32t54 12q9 0 10 -3q1 -1 16 -12.5t15 -18.5q0 -11 -6 -13q-13 -4 -22 -13q-19 -15 -27 -20q-47 -25 -72.5 -37.5t-70.5 -30.5
t-89 -25.5t-92 -7.5q-11 0 -38 11t-39 30q-8 13 -8 51q0 29 7 62t13.5 52.5t22.5 59.5t20 52q-13 13 -13 31v6q0 4 2 6q2 4 29 12q10 4 15 14q42 94 50 126q0 5 -4 5q-2 0 -15 -4t-22 -4q-12 0 -19 4q-10 6 -18 22.5t-8 27.5q0 6 6 7q55 14 181 62q38 16 121 33.5t150 17.5
q20 0 34 -6q49 -24 49 -50zM345 718l78 55q48 34 66 52q7 7 21 7q5 0 12 -4q14 -9 18 -24q3 -15 3 -19q0 -11 -11 -20q-14 -12 -53 -36l-105 -65q-14 -9 -27 -9q-10 0 -21 11q-4 4 -7.5 5.5t-4.5 2.5q-5 5 -5 8v7q0 3 2 7q3 5 11 8l7 3q9 6 16 11z" />
    <glyph glyph-name="Ecircumflex" unicode="&#xca;" horiz-adv-x="508" 
d="M679 608q0 -19 -15 -19q-4 0 -12 -3t-13 -3q-3 0 -14 5t-22 5q-111 0 -252 -47q-9 -4 -12 -12q-9 -24 -27 -70t-28 -71q0 -4 4 -4q7 3 26.5 10t30.5 11t28 9t32 7t30 2q37 0 75 -20q13 -8 13 -32q0 -8 -19 -14t-29 -6q-6 0 -17.5 1.5t-15.5 1.5q-27 0 -57 -8t-63.5 -20.5
t-50.5 -16.5l-17 -6q-10 -3 -13 -10q-28 -63 -40.5 -92t-24 -67t-11.5 -63q0 -12 8.5 -23t16.5 -11q37 0 81 19l37.5 15t30.5 13q17 8 49 28t59 32t54 12q9 0 10 -3q1 -1 16 -12.5t15 -18.5q0 -11 -6 -13q-13 -4 -22 -13q-19 -15 -27 -20q-47 -25 -72.5 -37.5t-70.5 -30.5
t-89 -25.5t-92 -7.5q-11 0 -38 11t-39 30q-8 13 -8 51q0 29 7 62t13.5 52.5t22.5 59.5t20 52q-13 13 -13 31v6q0 4 2 6q2 4 29 12q10 4 15 14q42 94 50 126q0 5 -4 5q-2 0 -15 -4t-22 -4q-12 0 -19 4q-10 6 -18 22.5t-8 27.5q0 6 6 7q55 14 181 62q38 16 121 33.5t150 17.5
q20 0 34 -6q49 -24 49 -50zM466 847l60 -89q11 -15 11 -22q0 -5 -1.5 -8.5t-4.5 -7t-4 -5.5q-5 -8 -7 -9.5t-9 -1.5q-9 0 -18 9l-55 58q-5 5 -10 5q-3 0 -11 -5q-79 -57 -93 -71l-7 -7q-8 -8 -14 -8q-9 0 -13 3.5t-6 3.5q-5 1 -11 9t-6 18q0 16 2 22q1 2 9 13q5 8 55 41
l89 57q12 7 21 7q10 0 12 -2l4 -3q4 -2 7 -7z" />
    <glyph glyph-name="Edieresis" unicode="&#xcb;" horiz-adv-x="508" 
d="M679 608q0 -19 -15 -19q-4 0 -12 -3t-13 -3q-3 0 -14 5t-22 5q-111 0 -252 -47q-9 -4 -12 -12q-9 -24 -27 -70t-28 -71q0 -4 4 -4q7 3 26.5 10t30.5 11t28 9t32 7t30 2q37 0 75 -20q13 -8 13 -32q0 -8 -19 -14t-29 -6q-6 0 -17.5 1.5t-15.5 1.5q-27 0 -57 -8t-63.5 -20.5
t-50.5 -16.5l-17 -6q-10 -3 -13 -10q-28 -63 -40.5 -92t-24 -67t-11.5 -63q0 -12 8.5 -23t16.5 -11q37 0 81 19l37.5 15t30.5 13q17 8 49 28t59 32t54 12q9 0 10 -3q1 -1 16 -12.5t15 -18.5q0 -11 -6 -13q-13 -4 -22 -13q-19 -15 -27 -20q-47 -25 -72.5 -37.5t-70.5 -30.5
t-89 -25.5t-92 -7.5q-11 0 -38 11t-39 30q-8 13 -8 51q0 29 7 62t13.5 52.5t22.5 59.5t20 52q-13 13 -13 31v6q0 4 2 6q2 4 29 12q10 4 15 14q42 94 50 126q0 5 -4 5q-2 0 -15 -4t-22 -4q-12 0 -19 4q-10 6 -18 22.5t-8 27.5q0 6 6 7q55 14 181 62q38 16 121 33.5t150 17.5
q20 0 34 -6q49 -24 49 -50zM351 820q11 -17 11 -32t-11.5 -31t-11.5 -18q0 -7 -14.5 -12t-24.5 -5h-8q-5 0 -7 2q-7 5 -12.5 13t-7.5 10t-2 29q0 12 13 41q9 16 35 16q32 0 40 -13zM552 805q1 -3 4 -9.5t5 -12t2 -10.5v-9q0 -1 -2 -7q-9 -27 -25 -36q-9 -4 -29 -4
q-17 0 -24 15q-1 2 -11 16.5t-10 26.5q0 10 9 29.5t22 19.5q1 0 8.5 -0.5t11.5 -0.5q35 0 39 -18z" />
    <glyph glyph-name="Igrave" unicode="&#xcc;" horiz-adv-x="254" 
d="M352 609q0 -25 -5.5 -37.5t-24.5 -31.5q-7 -7 -13 -24q-41 -105 -156 -453q-2 -8 -2 -10t1 -6.5t1 -8.5q0 -26 -19 -61q-3 -4 -13 -4q-6 0 -12 -10q-5 -8 -9 -8t-8 5t-9 5q-7 0 -18 7.5t-13 7.5q-6 0 -6 6t6.5 35t12.5 40q5 9 9 24q24 93 78.5 255t62.5 188
q3 8 15.5 33.5t24.5 64.5q3 12 40 12q17 0 37 -9t20 -20zM365 677l-102 66q-24 17 -66 33q-12 4 -12 33q0 15 11 26q12 12 24 12q4 0 8 -1.5t6 -1.5t55 -38l102 -70q26 -18 26 -25q0 -5 -5 -17q-2 -4 -2.5 -9.5t-0.5 -6.5q-3 -10 -13 -10q-18 0 -31 9z" />
    <glyph glyph-name="Iacute" unicode="&#xcd;" horiz-adv-x="254" 
d="M352 609q0 -25 -5.5 -37.5t-24.5 -31.5q-7 -7 -13 -24q-41 -105 -156 -453q-2 -8 -2 -10t1 -6.5t1 -8.5q0 -26 -19 -61q-3 -4 -13 -4q-6 0 -12 -10q-5 -8 -9 -8t-8 5t-9 5q-7 0 -18 7.5t-13 7.5q-6 0 -6 6t6.5 35t12.5 40q5 9 9 24q24 93 78.5 255t62.5 188
q3 8 15.5 33.5t24.5 64.5q3 12 40 12q17 0 37 -9t20 -20zM313 752l89 34q46 14 77 35q3 3 14 3t19 -8q11 -11 11 -28q0 -20 -5 -26q-10 -13 -72 -32l-118 -37q-10 -3 -20 -3q-5 0 -11 2q-12 8 -15 14q-4 6 -5 7l-4 4q-3 3 -3 8q0 7 5 14q4 5 13 5q3 0 25 8z" />
    <glyph glyph-name="Icircumflex" unicode="&#xce;" horiz-adv-x="254" 
d="M352 609q0 -25 -5.5 -37.5t-24.5 -31.5q-7 -7 -13 -24q-41 -105 -156 -453q-2 -8 -2 -10t1 -6.5t1 -8.5q0 -26 -19 -61q-3 -4 -13 -4q-6 0 -12 -10q-5 -8 -9 -8t-8 5t-9 5q-7 0 -18 7.5t-13 7.5q-6 0 -6 6t6.5 35t12.5 40q5 9 9 24q24 93 78.5 255t62.5 188
q3 8 15.5 33.5t24.5 64.5q3 12 40 12q17 0 37 -9t20 -20zM413 821l60 -103q11 -18 11 -25q0 -5 -2.5 -8t-6 -6t-5.5 -5q-13 -10 -18 -11q-9 0 -18 14l-63 86q-4 6 -8 6q-3 0 -10 -3q-90 -36 -105 -51q-1 -1 -5 -1q-7 0 -15 6t-9 6q-5 3 -5 24q0 15 2 21q2 4 9 11q6 8 55 25
l89 31q9 3 13 3q15 0 19 -7q1 -3 4.5 -5t7.5 -8z" />
    <glyph glyph-name="Idieresis" unicode="&#xcf;" horiz-adv-x="254" 
d="M352 609q0 -25 -5.5 -37.5t-24.5 -31.5q-7 -7 -13 -24q-41 -105 -156 -453q-2 -8 -2 -10t1 -6.5t1 -8.5q0 -26 -19 -61q-3 -4 -13 -4q-6 0 -12 -10q-5 -8 -9 -8t-8 5t-9 5q-7 0 -18 7.5t-13 7.5q-6 0 -6 6t6.5 35t12.5 40q5 9 9 24q24 93 78.5 255t62.5 188
q3 8 15.5 33.5t24.5 64.5q3 12 40 12q17 0 37 -9t20 -20zM296 816q11 -17 11 -32t-11.5 -31t-11.5 -18q0 -7 -14.5 -12t-24.5 -5h-8q-5 0 -7 2q-7 5 -12.5 13t-7.5 10t-2 29q0 12 13 41q9 16 35 16q32 0 40 -13zM481 758q1 -3 4 -9.5t5 -12t2 -10.5v-9q0 -1 -2 -7
q-9 -27 -25 -36q-9 -4 -29 -4q-16 0 -24 15q-1 2 -11 16.5t-10 26.5q0 10 9 29.5t22 19.5q1 0 8.5 -0.5t11.5 -0.5q34 0 39 -18z" />
    <glyph glyph-name="Eth" unicode="&#xd0;" horiz-adv-x="562" 
d="M234 457q0 5 -4 5q-3 0 -20.5 -11.5t-27.5 -11.5q-7 0 -13.5 6.5t-6.5 15.5q0 36 9.5 50t61.5 50q111 74 211 74q63 0 96 -23l19.5 -13t21.5 -14.5t19 -15.5t20 -22q20 -26 20 -82q0 -44 -27 -95q-4 -7 -8 -19t-10 -23q-32 -66 -58 -112.5t-63 -97.5t-81.5 -86.5
t-96.5 -54.5q-11 -4 -32 -4q-32 0 -75 13q-1 -9 -27 -9q-13 0 -30 11.5t-25 25.5q-60 27 -75 45q-10 12 -10 26q0 17 20 17q4 0 16 -1.5t21 -1.5q7 0 15 -5.5t12 -5.5t6 3q14 63 45 157q0 4 -4 4q-11 0 -25 -3t-23 -3q-13 0 -13 12q0 43 25 63q7 7 63 16q8 2 11 8
q7 17 21 55t22 57zM281 347q10 0 40.5 5.5t37.5 5.5q11 0 12 -3q9 -16 9 -30q0 -7 -3 -15q-4 -9 -9.5 -17t-7.5 -12q-1 -2 -4.5 -4t-6.5 -2.5t-9.5 -1.5t-9.5 -2q-4 0 -37.5 -3t-36.5 -3q-8 0 -12 -10q-39 -105 -54 -204v-2q0 -4 5 -6q0 -1 1 -1q7 -3 31 -3q54 0 96 42
q126 126 207 326q23 59 23 81q0 31 -12 52q-25 35 -67 35q-23 0 -64 -14t-42 -14q4 -4 4 -7q0 -10 -8 -17.5t-11 -14.5q-61 -135 -72 -161z" />
    <glyph glyph-name="Ntilde" unicode="&#xd1;" horiz-adv-x="598" 
d="M426 -22q-15 0 -36 11q-26 13 -35.5 25t-16.5 34q-21 68 -43 215t-27 170q-4 14 -8 14q-3 0 -8 -14q-4 -14 -22.5 -73.5t-33 -107.5t-29 -113t-19.5 -112q-3 -31 -3 -36q0 -18 -37 -18q-11 0 -17.5 1t-9 2.5t-6 4t-6.5 4.5q-15 7 -15 15q0 12 10.5 54t26.5 98t30.5 104.5
t28.5 94.5l14 46l9 34q28 108 41 162q2 9 11 11t9 7q0 3 -7.5 20t-7.5 37q0 7 10 11q25 9 60 9q9 0 14 -14q34 -103 56 -296.5t47 -283.5q4 -15 8 -15q1 0 9 15q16 34 30 68.5t28 77.5t22.5 69t24.5 80.5t22 73.5q3 11 8.5 26.5t9.5 28.5q4 16 7.5 52.5t9.5 55.5q4 15 7 18
t14 3q8 0 22 -3t19 -3q9 0 22.5 -14t13.5 -19q0 -18 -11 -38l-14 -40q-7 -21 -64.5 -200t-106.5 -300q-8 -20 -14 -26q-26 -26 -47 -26zM319 749q0 5 -4 18t-4 19q0 10 9 14l63 23q24 9 45 9q13 0 22 -9t26 -33q16 -24 22.5 -29.5t18.5 -5.5q2 0 39 11l26 9q11 4 15 4
q18 0 20 -19q0 -3 2 -9t2 -12q0 -5 -8 -10q-73 -45 -98 -45q-30 0 -53 18q-10 9 -23.5 29.5t-17.5 23.5q-5 3 -9 3q-14 0 -49 -21q-5 -3 -10 -3q-34 0 -34 15z" />
    <glyph glyph-name="Ograve" unicode="&#xd2;" horiz-adv-x="490" 
d="M448 601q71 -64 71 -175v-15q0 -21 -10 -57q-52 -216 -133 -317q-49 -61 -139 -61q-30 0 -60 9q-32 10 -57 48q-32 49 -32 114q0 177 121 351q60 88 117 122q19 11 26 11q8 0 22 -6q32 -16 52 -16q13 0 22 -8zM381 546q0 10 -7 10q-12 0 -41 -30q-104 -109 -147 -247
l-8 -25q-4 -13 -4 -37q0 -2 -2.5 -29t-2.5 -40q0 -62 34 -96q9 -9 33 -9q19 0 38.5 10.5t30.5 26.5q67 103 96 209t29 152v21q0 8 -1 12q-9 53 -42 64q-6 2 -6 8zM475 661l-102 66q-24 17 -66 33q-12 4 -12 33q0 15 11 26q12 12 24 12q4 0 8 -1.5t6 -1.5t55 -38l102 -70
q26 -18 26 -25q0 -5 -5 -17q-2 -4 -2.5 -9.5t-0.5 -6.5q-3 -10 -13 -10q-17 0 -31 9z" />
    <glyph glyph-name="Oacute" unicode="&#xd3;" horiz-adv-x="490" 
d="M448 601q71 -64 71 -175v-15q0 -21 -10 -57q-52 -216 -133 -317q-49 -61 -139 -61q-30 0 -60 9q-32 10 -57 48q-32 49 -32 114q0 177 121 351q60 88 117 122q19 11 26 11q8 0 22 -6q32 -16 52 -16q13 0 22 -8zM381 546q0 10 -7 10q-12 0 -41 -30q-104 -109 -147 -247
l-8 -25q-4 -13 -4 -37q0 -2 -2.5 -29t-2.5 -40q0 -62 34 -96q9 -9 33 -9q19 0 38.5 10.5t30.5 26.5q67 103 96 209t29 152v21q0 8 -1 12q-9 53 -42 64q-6 2 -6 8zM361 742l89 34q46 14 77 35q3 3 14 3t19 -8q11 -11 11 -28q0 -20 -5 -26q-10 -13 -72 -32l-118 -37
q-10 -3 -20 -3q-5 0 -11 2q-12 8 -15 14q-4 6 -5 7l-4 4q-3 3 -3 8q0 7 5 14q4 5 13 5q3 0 25 8z" />
    <glyph glyph-name="Ocircumflex" unicode="&#xd4;" horiz-adv-x="490" 
d="M448 601q71 -64 71 -175v-15q0 -21 -10 -57q-52 -216 -133 -317q-49 -61 -139 -61q-30 0 -60 9q-32 10 -57 48q-32 49 -32 114q0 177 121 351q60 88 117 122q19 11 26 11q8 0 22 -6q32 -16 52 -16q13 0 22 -8zM381 546q0 10 -7 10q-12 0 -41 -30q-104 -109 -147 -247
l-8 -25q-4 -13 -4 -37q0 -2 -2.5 -29t-2.5 -40q0 -62 34 -96q9 -9 33 -9q19 0 38.5 10.5t30.5 26.5q67 103 96 209t29 152v21q0 8 -1 12q-9 53 -42 64q-6 2 -6 8zM497 801l60 -103q11 -18 11 -25q0 -5 -2.5 -8t-6 -6t-5.5 -5q-13 -10 -18 -11q-9 0 -18 14l-63 86q-4 6 -8 6
q-3 0 -10 -3q-90 -36 -105 -51q-1 -1 -5 -1q-7 0 -15 6t-9 6q-5 3 -5 24q0 15 2 21q2 4 9 11q6 8 55 25l89 31q9 3 13 3q15 0 19 -7q1 -3 4.5 -5t7.5 -8z" />
    <glyph glyph-name="Otilde" unicode="&#xd5;" horiz-adv-x="490" 
d="M448 601q71 -64 71 -175v-15q0 -21 -10 -57q-52 -216 -133 -317q-49 -61 -139 -61q-30 0 -60 9q-32 10 -57 48q-32 49 -32 114q0 177 121 351q60 88 117 122q19 11 26 11q8 0 22 -6q32 -16 52 -16q13 0 22 -8zM381 546q0 10 -7 10q-12 0 -41 -30q-104 -109 -147 -247
l-8 -25q-4 -13 -4 -37q0 -2 -2.5 -29t-2.5 -40q0 -62 34 -96q9 -9 33 -9q19 0 38.5 10.5t30.5 26.5q67 103 96 209t29 152v21q0 8 -1 12q-9 53 -42 64q-6 2 -6 8zM297 727q0 5 -4 18t-4 19q0 10 9 14l63 23q24 9 45 9q13 0 22 -9t26 -33q16 -24 22.5 -29.5t18.5 -5.5
q2 0 39 11l26 9q11 4 15 4q18 0 20 -19q0 -3 2 -9t2 -12q0 -5 -8 -10q-73 -45 -98 -45q-30 0 -53 18q-10 9 -23.5 29.5t-17.5 23.5q-5 3 -9 3q-14 0 -49 -21q-5 -3 -10 -3q-34 0 -34 15z" />
    <glyph glyph-name="Odieresis" unicode="&#xd6;" horiz-adv-x="490" 
d="M448 601q71 -64 71 -175v-15q0 -21 -10 -57q-52 -216 -133 -317q-49 -61 -139 -61q-30 0 -60 9q-32 10 -57 48q-32 49 -32 114q0 177 121 351q60 88 117 122q19 11 26 11q8 0 22 -6q32 -16 52 -16q13 0 22 -8zM381 546q0 10 -7 10q-12 0 -41 -30q-104 -109 -147 -247
l-8 -25q-4 -13 -4 -37q0 -2 -2.5 -29t-2.5 -40q0 -62 34 -96q9 -9 33 -9q19 0 38.5 10.5t30.5 26.5q67 103 96 209t29 152v21q0 8 -1 12q-9 53 -42 64q-6 2 -6 8zM367 786q11 -17 11 -32t-11.5 -31t-11.5 -18q0 -7 -14.5 -12t-24.5 -5h-8q-5 0 -7 2q-7 5 -12.5 13t-7.5 10
t-2 29q0 12 13 41q9 16 35 16q32 0 40 -13zM564 722q1 -3 4 -9.5t5 -12t2 -10.5q0 -6 -2 -16q-16 -31 -25 -36q-9 -4 -29 -4q-17 0 -24 15q-1 2 -11 16.5t-10 26.5q0 10 9 29.5t22 19.5q1 0 8.5 -0.5t11.5 -0.5q35 0 39 -18z" />
    <glyph glyph-name="multiply" unicode="&#xd7;" horiz-adv-x="590" 
d="M558 462q11 0 19 -10t9 -19q0 -4 -2 -8q-22 -26 -83 -66q-17 -11 -36 -25.5t-31.5 -25.5t-36.5 -31.5t-36 -30.5q-6 -4 -6 -9q0 -4 4 -13q25 -67 64 -131q3 -4 10 -14.5l12 -18t5 -10.5q0 -7 -10 -14l-10 -8q-5 -4 -11 -4q-19 0 -29 6q-4 2 -13 2.5t-13 6.5
q-34 51 -69 142q-1 7 -5 7t-10 -6q-10 -10 -34 -30.5t-35 -31t-26 -28.5t-23 -36q-9 -19 -25 -19q-3 0 -7 1t-11 1t-11 3t-8 8.5t-6 7.5l-12 12q-4 4 -4 8q0 27 44 66q17 16 127 112q13 12 13 17q0 6 -4 14q-2 5 -16 50q-9 28 -17 52t-11.5 33.5t-5.5 17.5t-2 14q0 5 3 14
q2 3 10 8q7 3 23 3q24 0 29 -3q3 -2 6 -5.5t6 -4.5q13 -4 13 -19q0 -32 30 -126q2 -2 3 -2q3 0 11 7q25 21 59 47.5t56.5 45.5t42.5 41q7 7 25 7q3 0 15 -2.5t20 -2.5z" />
    <glyph glyph-name="Oslash" unicode="&#xd8;" horiz-adv-x="540" 
d="M533 576q14 14 27 14q21 0 28 -16q1 -2 4 -5.5t5 -8t2 -11.5q0 -13 -15 -24l-23 -17q-9 -8 -9 -11q0 -1 3 -15q6 -66 6 -73q0 -43 -35.5 -157.5t-103.5 -203.5q-27 -36 -63 -55.5t-94 -19.5q-82 0 -118 45q-5 5 -6 5q-2 0 -6 -5q-9 -12 -19 -16q-8 -6 -15 -6t-17 3
q-1 0 -2.5 2t-2.5 3.5t-2.5 4t-2.5 4.5q-10 10 -10 23q0 6 36 42q6 6 6 9v3l-2 6q-7 21 -7 78q0 149 107 317q29 43 67.5 84t71.5 50q24 6 39 6q11 0 20.5 -5t25.5 -5q11 0 15.5 1.5t11.5 1.5q10 0 28 -13t34 -35q4 -7 7 -7q2 0 9 7zM464 410q-51 -58 -143 -169t-115 -138
q-7 -7 -7 -12q0 -4 4 -11q14 -26 28 -33l10 -5q6 -3 11 -3q35 0 55.5 8.5t35.5 31.5q88 136 123 265q12 44 12 74q0 3 -2 3t-12 -11zM465 515q-8 14 -20.5 23.5t-21.5 10.5q-22 3 -23 4q-7 10 -17 10q-7 0 -24 -17q-112 -115 -157 -249q-18 -50 -18 -103q0 -11 3 -11t23 24
l243 284q14 17 14 18z" />
    <glyph glyph-name="Ugrave" unicode="&#xd9;" horiz-adv-x="600" 
d="M336 624q5 -12 5 -26q0 -4 -9 -25q-17 -42 -60 -136.5t-67 -161t-33 -131.5q-4 -20 -4 -55q0 -15 5 -15q19 0 39 20q223 223 343 420q4 7 8.5 18.5t15.5 27.5q6 9 15.5 19t13.5 10l11 -2q11 -2 22 -2q7 0 11 -9l14 -22q6 -10 6 -14q0 -7 -7 -22q-8 -22 -31 -62t-31 -61
q-72 -195 -72 -397q0 -10 0.5 -17t0.5 -9.5v-3.5q0 -10 -14 -10q-7 0 -10 1t-6 3t-7 3q-6 2 -35 19l-6 3t-6 3.5t-4 4.5t-2 8q0 12 5 21q3 4 5 16q3 22 6 64t7 73.5t11 58.5q3 12 3 16q0 5 -5 5q-3 0 -8 -5q-159 -185 -233 -248q-18 -16 -46 -16q-26 0 -41 15q-8 8 -28 13.5
t-27 18.5q-5 12 -5 63q0 70 27 158q21 68 70 190.5t61 155.5q2 6 6 13t5 9q15 27 30 27q2 0 4 -1t4.5 -2t7.5 -3.5t12 -5.5q19 -7 23 -15zM557 667l-102 66q-24 17 -66 33q-12 4 -12 33q0 15 11 26q12 12 24 12q4 0 8 -1.5t6 -1.5t55 -38l102 -70q26 -18 26 -25q0 -5 -5 -17
q-2 -4 -2.5 -9.5t-0.5 -6.5q-3 -10 -13 -10q-18 0 -31 9z" />
    <glyph glyph-name="Uacute" unicode="&#xda;" horiz-adv-x="600" 
d="M336 624q5 -12 5 -26q0 -4 -9 -25q-17 -42 -60 -136.5t-67 -161t-33 -131.5q-4 -20 -4 -55q0 -15 5 -15q19 0 39 20q223 223 343 420q4 7 8.5 18.5t15.5 27.5q6 9 15.5 19t13.5 10l11 -2q11 -2 22 -2q7 0 11 -9l14 -22q6 -10 6 -14q0 -7 -7 -22q-8 -22 -31 -62t-31 -61
q-72 -195 -72 -397q0 -10 0.5 -17t0.5 -9.5v-3.5q0 -10 -14 -10q-7 0 -10 1t-6 3t-7 3q-6 2 -35 19l-6 3t-6 3.5t-4 4.5t-2 8q0 12 5 21q3 4 5 16q3 22 6 64t7 73.5t11 58.5q3 12 3 16q0 5 -5 5q-3 0 -8 -5q-159 -185 -233 -248q-18 -16 -46 -16q-26 0 -41 15q-8 8 -28 13.5
t-27 18.5q-5 12 -5 63q0 70 27 158q21 68 70 190.5t61 155.5q2 6 6 13t5 9q15 27 30 27q2 0 4 -1t4.5 -2t7.5 -3.5t12 -5.5q19 -7 23 -15zM463 734l89 34q46 14 77 35q3 3 14 3t19 -8q11 -11 11 -28q0 -20 -5 -26q-10 -13 -72 -32l-118 -37q-11 -3 -20 -3q-5 0 -11 2
q-12 8 -15 14q-4 6 -5 7l-4 4q-3 3 -3 8q0 7 5 14q4 5 13 5q3 0 25 8z" />
    <glyph glyph-name="Ucircumflex" unicode="&#xdb;" horiz-adv-x="600" 
d="M336 624q5 -12 5 -26q0 -4 -9 -25q-17 -42 -60 -136.5t-67 -161t-33 -131.5q-4 -20 -4 -55q0 -15 5 -15q19 0 39 20q223 223 343 420q4 7 8.5 18.5t15.5 27.5q6 9 15.5 19t13.5 10l11 -2q11 -2 22 -2q7 0 11 -9l14 -22q6 -10 6 -14q0 -7 -7 -22q-8 -22 -31 -62t-31 -61
q-72 -195 -72 -397q0 -10 0.5 -17t0.5 -9.5v-3.5q0 -10 -14 -10q-7 0 -10 1t-6 3t-7 3q-6 2 -35 19l-6 3t-6 3.5t-4 4.5t-2 8q0 12 5 21q3 4 5 16q3 22 6 64t7 73.5t11 58.5q3 12 3 16q0 5 -5 5q-3 0 -8 -5q-159 -185 -233 -248q-18 -16 -46 -16q-26 0 -41 15q-8 8 -28 13.5
t-27 18.5q-5 12 -5 63q0 70 27 158q21 68 70 190.5t61 155.5q2 6 6 13t5 9q15 27 30 27q2 0 4 -1t4.5 -2t7.5 -3.5t12 -5.5q19 -7 23 -15zM565 819l60 -103q11 -18 11 -25q0 -5 -2.5 -8t-6 -6t-5.5 -5q-13 -10 -18 -11q-9 0 -18 14l-63 86q-5 6 -8 6t-10 -3
q-90 -36 -105 -51q-1 -1 -5 -1q-7 0 -15 6t-9 6q-5 3 -5 24q0 15 2 21q2 4 9 11q6 8 55 25l89 31q9 3 13 3q15 0 19 -7q1 -3 4.5 -5t7.5 -8z" />
    <glyph glyph-name="Udieresis" unicode="&#xdc;" horiz-adv-x="600" 
d="M336 624q5 -12 5 -26q0 -4 -9 -25q-17 -42 -60 -136.5t-67 -161t-33 -131.5q-4 -20 -4 -55q0 -15 5 -15q19 0 39 20q223 223 343 420q4 7 8.5 18.5t15.5 27.5q6 9 15.5 19t13.5 10l11 -2q11 -2 22 -2q7 0 11 -9l14 -22q6 -10 6 -14q0 -7 -7 -22q-8 -22 -31 -62t-31 -61
q-72 -195 -72 -397q0 -10 0.5 -17t0.5 -9.5v-3.5q0 -10 -14 -10q-7 0 -10 1t-6 3t-7 3q-6 2 -35 19l-6 3t-6 3.5t-4 4.5t-2 8q0 12 5 21q3 4 5 16q3 22 6 64t7 73.5t11 58.5q3 12 3 16q0 5 -5 5q-3 0 -8 -5q-159 -185 -233 -248q-18 -16 -46 -16q-26 0 -41 15q-8 8 -28 13.5
t-27 18.5q-5 12 -5 63q0 70 27 158q21 68 70 190.5t61 155.5q2 6 6 13t5 9q15 27 30 27q2 0 4 -1t4.5 -2t7.5 -3.5t12 -5.5q19 -7 23 -15zM454 806q11 -17 11 -32t-11.5 -31t-11.5 -18q0 -7 -14.5 -12t-24.5 -5h-8q-5 0 -7 2q-7 5 -12.5 13t-7.5 10t-2 29q0 12 13 41
q9 16 35 16q32 0 40 -13zM639 748q1 -3 4 -9.5t5 -12t2 -10.5v-9q0 -1 -2 -7q-9 -27 -25 -36q-9 -4 -29 -4q-16 0 -24 15q-1 2 -11 16.5t-10 26.5q0 10 9 29.5t22 19.5q1 0 8.5 -0.5t11.5 -0.5q34 0 39 -18z" />
    <glyph glyph-name="Yacute" unicode="&#xdd;" horiz-adv-x="502" 
d="M257 668q5 -1 9 -10.5t4 -18.5q0 -15 -9.5 -35t-13.5 -37q-45 -229 -45 -320q0 -10 19 -10q17 0 30 8q71 46 113 88q51 51 109 165q41 80 64 110q7 10 11 10q38 0 60 -22q3 -3 7 -14t4 -15q0 -6 -6 -14q-204 -288 -282 -864q-2 -11 -4 -19t-2 -11q0 -8 -6 -8q-4 0 -26 5
q-42 6 -47 26q-2 10 -2 30t3.5 39t10 44.5t8.5 34.5t11 60q22 117 92 352l-8 -9q-59 -65 -133 -65q-6 0 -28 12t-40 28q-40 37 -40 58q0 37 5 107q0 5 2.5 15t2.5 21q0 12 4 25.5t5 19.5q17 109 47 214q3 9 8 9q6 0 63 -9zM385 728l89 34q46 14 77 35q3 3 14 3t19 -8
q11 -11 11 -28q0 -20 -5 -26q-10 -13 -72 -32l-118 -37q-11 -3 -20 -3q-5 0 -11 2q-12 8 -15 14q-4 6 -5 7l-4 4q-3 3 -3 8q0 7 5 14q4 5 13 5q3 0 25 8z" />
    <glyph glyph-name="Thorn" unicode="&#xde;" horiz-adv-x="500" 
d="M345 562q0 -5 3 -5t16 5q84 30 136 30q30 0 43 -3t26 -15q27 -23 27 -91q0 -40 -53 -128q-38 -61 -78 -105.5t-109 -98.5q-26 -19 -102 -19q-15 0 -25.5 3t-14.5 5t-13 10t-13 11q-5 -18 -18 -63t-19 -69t-6 -34q0 -9 -9 -15q-14 -8 -24 -8q-16 0 -20 4q-7 8 -18 12.5
t-17 11.5q-2 2 -2 9q0 3 4.5 22t15.5 55t24 70q18 47 18 67q-2 2 -5.5 4.5t-5.5 5t-4.5 5t-4 6t-1.5 6.5q0 10 4 11q2 1 18 15.5t29 14.5q3 9 9 24t8 22l7 20q4 8 7 22q-22 10 -31 29q-6 8 -6 11q0 16 27 36q10 8 30.5 19.5t24.5 14.5q10 23 35 83.5t41 93.5q7 15 31 15
q4 0 11 -3.5t19 -5.5q24 -2 24 -18t-6.5 -29t-7.5 -17q0 -6 -6 -17zM514 511q0 4 -1 6t-6.5 3t-17.5 1h-16q-1 0 -11 -2q-98 -21 -166 -73q-7 -18 -24.5 -59.5t-32 -78t-23.5 -68.5q28 -26 38 -33t20 -7t18 6q87 57 165 172q57 83 57 133z" />
    <glyph glyph-name="germandbls" unicode="&#xdf;" horiz-adv-x="434" 
d="M370 360q1 0 6.5 0.5t9.5 0.5q25 0 38.5 -22t13.5 -56q0 -41 -37 -124q-32 -72 -69 -115t-96 -60q-13 -4 -30 -4q-48 0 -95 42q-8 8 -11 8q-2 0 -13 -34q-71 -201 -78 -296q-1 -9 -9 -17t-19 -10q-5 -2 -12 -4.5t-11 -4.5t-6 -2q-11 0 -25 12q-5 3 -5 37q0 15 5 32.5
t13 37.5t11 31q1 5 5.5 17t7.5 24q13 56 138 394q16 40 48 119.5t38 94.5q2 6 11.5 14t15.5 18q25 51 82 107q61 59 111 59q13 0 23.5 -3.5t19.5 -9t14 -7.5q12 -4 17.5 -6t12.5 -9.5t7 -18.5q0 -16 -11 -36q-14 -43 -41 -89q-41 -73 -72 -104q-11 -14 -11 -15t3 -1z
M309 286q-13 -12 -22.5 -18t-19.5 -16q-47 -45 -74 -45q-7 0 -13.5 6.5t-8.5 6.5q-3 0 -6 -9q-9 -27 -31 -81q-12 -31 -12 -36q0 -3 3 -3l5 1q6 2 16 2q13 0 31 -22q3 -4 6.5 -11t7.5 -11q11 -8 22 -8q21 0 35 14q49 45 82 125q23 54 23 80q0 21 -8 32q-5 6 -12 6
q-11 0 -24 -13zM210 298l16 15q110 88 187 269q3 8 3 12q0 3 -4 3q-2 0 -11 -3.5t-28.5 -17.5t-37.5 -36q-46 -53 -70 -113q-12 -27 -21 -27q-5 0 -16 -27l-24 -64l-4 -12q-1 -2 -1 -4t2 -2t9 7z" />
    <glyph glyph-name="agrave" unicode="&#xe0;" horiz-adv-x="468" 
d="M492 435q7 -19 24 -19q19 0 28 -13q2 -4 2 -6q0 -6 -4 -11q-96 -130 -116 -212q-14 -56 -14 -89q0 -43 21 -75l2 -6q0 -10 -21 -14q-3 0 -9 -2t-10 -2q-32 0 -43 20q-17 38 -17 86q0 14 1 25.5t2 18.5l1 6q0 5 -4 5q-6 0 -24 -18l-54 -50q-64 -58 -119 -75q-9 -4 -16 -4
q-9 0 -20 7.5t-50 37.5q-22 18 -22 59q0 59 60 148q28 40 58.5 73.5t46.5 46.5t39 30q72 53 160 79q11 3 22 3q32 0 61 -29q11 -11 15 -20zM428 422q-12 0 -31 -10q-146 -78 -225 -174q-32 -38 -53.5 -77.5t-21.5 -61.5q0 -27 22 -27q18 0 49 28q27 26 88.5 77t99.5 90
t61 82q10 19 29 38q5 5 5 15q0 7 -6 13.5t-17 6.5zM549 497l-102 66q-24 17 -66 33q-12 4 -12 33q0 15 11 26q12 12 24 12q4 0 8 -1.5t6 -1.5t55 -38l102 -70q26 -18 26 -25q0 -5 -5 -17q-2 -4 -2.5 -9.5t-0.5 -6.5q-3 -10 -13 -10q-18 0 -31 9z" />
    <glyph glyph-name="aacute" unicode="&#xe1;" horiz-adv-x="468" 
d="M492 435q7 -19 24 -19q19 0 28 -13q2 -4 2 -6q0 -6 -4 -11q-96 -130 -116 -212q-14 -56 -14 -89q0 -43 21 -75l2 -6q0 -10 -21 -14q-3 0 -9 -2t-10 -2q-32 0 -43 20q-17 38 -17 86q0 14 1 25.5t2 18.5l1 6q0 5 -4 5q-6 0 -24 -18l-54 -50q-64 -58 -119 -75q-9 -4 -16 -4
q-9 0 -20 7.5t-50 37.5q-22 18 -22 59q0 59 60 148q28 40 58.5 73.5t46.5 46.5t39 30q72 53 160 79q11 3 22 3q32 0 61 -29q11 -11 15 -20zM428 422q-12 0 -31 -10q-146 -78 -225 -174q-32 -38 -53.5 -77.5t-21.5 -61.5q0 -27 22 -27q18 0 49 28q27 26 88.5 77t99.5 90
t61 82q10 19 29 38q5 5 5 15q0 7 -6 13.5t-17 6.5zM417 596l89 34q46 14 77 35q3 3 14 3t19 -8q11 -11 11 -28q0 -20 -5 -26q-10 -13 -72 -32l-118 -37q-10 -3 -20 -3q-5 0 -11 2q-12 8 -15 14q-4 6 -5 7l-4 4q-3 3 -3 8q0 7 5 14q4 5 13 5q3 0 25 8z" />
    <glyph glyph-name="acircumflex" unicode="&#xe2;" horiz-adv-x="468" 
d="M492 435q7 -19 24 -19q19 0 28 -13q2 -4 2 -6q0 -6 -4 -11q-96 -130 -116 -212q-14 -56 -14 -89q0 -43 21 -75l2 -6q0 -10 -21 -14q-3 0 -9 -2t-10 -2q-32 0 -43 20q-17 38 -17 86q0 14 1 25.5t2 18.5l1 6q0 5 -4 5q-6 0 -24 -18l-54 -50q-64 -58 -119 -75q-9 -4 -16 -4
q-9 0 -20 7.5t-50 37.5q-22 18 -22 59q0 59 60 148q28 40 58.5 73.5t46.5 46.5t39 30q72 53 160 79q11 3 22 3q32 0 61 -29q11 -11 15 -20zM428 422q-12 0 -31 -10q-146 -78 -225 -174q-32 -38 -53.5 -77.5t-21.5 -61.5q0 -27 22 -27q18 0 49 28q27 26 88.5 77t99.5 90
t61 82q10 19 29 38q5 5 5 15q0 7 -6 13.5t-17 6.5zM551 649l60 -103q11 -18 11 -25q0 -5 -2.5 -8t-6 -6t-5.5 -5q-13 -10 -18 -11q-9 0 -18 14l-63 86q-4 6 -8 6q-3 0 -10 -3q-90 -36 -105 -51q-1 -1 -5 -1q-7 0 -15 6t-9 6q-5 3 -5 24q0 15 2 21q2 4 9 11q6 8 55 25l89 31
q9 3 13 3q15 0 19 -7q1 -3 4.5 -5t7.5 -8z" />
    <glyph glyph-name="atilde" unicode="&#xe3;" horiz-adv-x="468" 
d="M492 435q7 -19 24 -19q19 0 28 -13q2 -4 2 -6q0 -6 -4 -11q-96 -130 -116 -212q-14 -56 -14 -89q0 -43 21 -75l2 -6q0 -10 -21 -14q-3 0 -9 -2t-10 -2q-32 0 -43 20q-17 38 -17 86q0 14 1 25.5t2 18.5l1 6q0 5 -4 5q-6 0 -24 -18l-54 -50q-64 -58 -119 -75q-9 -4 -16 -4
q-9 0 -20 7.5t-50 37.5q-22 18 -22 59q0 59 60 148q28 40 58.5 73.5t46.5 46.5t39 30q72 53 160 79q11 3 22 3q32 0 61 -29q11 -11 15 -20zM428 422q-12 0 -31 -10q-146 -78 -225 -174q-32 -38 -53.5 -77.5t-21.5 -61.5q0 -27 22 -27q18 0 49 28q27 26 88.5 77t99.5 90
t61 82q10 19 29 38q5 5 5 15q0 7 -6 13.5t-17 6.5zM373 581q0 5 -4 18t-4 19q0 10 9 14l63 23q24 9 45 9q13 0 22 -9t26 -33q16 -24 22.5 -29.5t18.5 -5.5q2 0 39 11l26 9q11 4 15 4q18 0 20 -19q0 -3 2 -9t2 -12q0 -5 -8 -10q-73 -45 -98 -45q-30 0 -53 18
q-10 9 -23.5 29.5t-17.5 23.5q-5 3 -9 3q-14 0 -49 -21q-5 -3 -10 -3q-34 0 -34 15z" />
    <glyph glyph-name="adieresis" unicode="&#xe4;" horiz-adv-x="468" 
d="M492 435q7 -19 24 -19q19 0 28 -13q2 -4 2 -6q0 -6 -4 -11q-96 -130 -116 -212q-14 -56 -14 -89q0 -43 21 -75l2 -6q0 -10 -21 -14q-3 0 -9 -2t-10 -2q-32 0 -43 20q-17 38 -17 86q0 14 1 25.5t2 18.5l1 6q0 5 -4 5q-6 0 -24 -18l-54 -50q-64 -58 -119 -75q-9 -4 -16 -4
q-9 0 -20 7.5t-50 37.5q-22 18 -22 59q0 59 60 148q28 40 58.5 73.5t46.5 46.5t39 30q72 53 160 79q11 3 22 3q32 0 61 -29q11 -11 15 -20zM428 422q-12 0 -31 -10q-146 -78 -225 -174q-32 -38 -53.5 -77.5t-21.5 -61.5q0 -27 22 -27q18 0 49 28q27 26 88.5 77t99.5 90
t61 82q10 19 29 38q5 5 5 15q0 7 -6 13.5t-17 6.5zM436 658q11 -17 11 -32t-11.5 -31t-11.5 -18q0 -7 -14.5 -12t-24.5 -5h-8q-5 0 -7 2q-7 5 -12.5 13t-7.5 10t-2 29q0 12 13 41q9 16 35 16q32 0 40 -13zM621 600q1 -3 4 -9.5t5 -12t2 -10.5q0 -10 -2 -16q-15 -31 -25 -36
q-9 -4 -29 -4q-16 0 -24 15q-1 2 -11 16.5t-10 26.5q0 10 9 29.5t22 19.5q1 0 8.5 -0.5t11.5 -0.5q34 0 39 -18z" />
    <glyph glyph-name="aring" unicode="&#xe5;" horiz-adv-x="468" 
d="M492 435q7 -19 24 -19q19 0 28 -13q2 -4 2 -6q0 -6 -4 -11q-96 -130 -116 -212q-14 -56 -14 -89q0 -43 21 -75l2 -6q0 -10 -21 -14q-3 0 -9 -2t-10 -2q-32 0 -43 20q-17 38 -17 86q0 14 1 25.5t2 18.5l1 6q0 5 -4 5q-6 0 -24 -18l-54 -50q-64 -58 -119 -75q-9 -4 -16 -4
q-9 0 -20 7.5t-50 37.5q-22 18 -22 59q0 59 60 148q28 40 58.5 73.5t46.5 46.5t39 30q72 53 160 79q11 3 22 3q32 0 61 -29q11 -11 15 -20zM428 422q-12 0 -31 -10q-146 -78 -225 -174q-32 -38 -53.5 -77.5t-21.5 -61.5q0 -27 22 -27q18 0 49 28q27 26 88.5 77t99.5 90
t61 82q10 19 29 38q5 5 5 15q0 7 -6 13.5t-17 6.5zM616 636q2 -16 2 -24q0 -43 -26 -83q-20 -29 -58 -29q-43 0 -63 13q-36 25 -36 57q0 24 21 61t42 45q18 7 37 7q14 0 26 -3q21 -5 36.5 -19t18.5 -25zM552 635q-5 9 -12 9q-10 0 -16 -7q-27 -36 -27 -63q0 -15 7 -25
t16 -10q10 0 14 6q2 4 7 12t7.5 13l6 12t5 13t1.5 12q0 15 -9 28z" />
    <glyph glyph-name="ae" unicode="&#xe6;" horiz-adv-x="607" 
d="M635 103q-47 -41 -139 -91q-38 -20 -93 -20q-29 0 -58 8q-61 18 -61 76q0 7 1 14l1.5 10.5t0.5 4.5q0 3 -2 3l-13 -13q-43 -49 -63 -62q-22 -17 -50 -26t-38 -9q-15 0 -71 39q-8 6 -17 24t-9 44q0 56 48 141q54 93 136 164q39 34 91 63t88 29q31 0 53 -16q4 -4 8 -4
q6 0 14 12l7 11q6 10 16 10q3 0 19 -6t22 -6q1 0 11 2q44 11 55 11q35 0 49 -16q21 -23 21 -56q0 -24 -13.5 -56t-22.5 -45q-46 -66 -124.5 -141t-131.5 -96q-6 -4 -6 -14q0 -15 11 -26t24 -11q49 0 108 39q24 16 46.5 33t50.5 39t44 34q17 13 43 25q15 7 20 7q6 0 13 -6
t7 -14q0 -5 -0.5 -8.5t-0.5 -4.5q0 -9 -8 -15q-11 -10 -38.5 -36.5t-48.5 -44.5zM383 347l30 56q10 19 10 27q0 17 -16 17q-11 0 -18 -4q-212 -118 -274 -280q-20 -54 -20 -72q0 -25 23 -25q11 0 26 5.5t20 10.5q65 64 105 102q29 27 61.5 75t52.5 88zM554 367q28 39 28 67
q0 22 -11 22q-14 0 -31 -17q-80 -78 -150 -232q-5 -13 -5 -14q0 -2 2 -2q3 0 4 1l10 8q86 69 153 167z" />
    <glyph glyph-name="ccedilla" unicode="&#xe7;" horiz-adv-x="346" 
d="M130 -4q-21 3 -45.5 19.5t-28.5 26.5q-12 24 -12 47q0 18 16 75q1 2 4.5 16t7.5 23q105 217 208 268q7 3 16 3q62 0 104 -42q4 -4 4 -14q0 -6 1 -10t1 -5q0 -4 -1 -7q0 -1 -17 -37t-17 -57q0 -15 -19 -15q-13 0 -20 7l-26 19q-11 8 -11 22q0 11 11 32t11 28q0 10 -8 10
q-6 0 -16 -10q-67 -67 -122 -161q-25 -46 -41.5 -89.5t-16.5 -63.5q0 -21 17 -21q59 0 142 63q91 68 122 68q9 0 21 -11t12 -15q0 -2 -2 -5t-2 -5q0 -9 -8 -12q-34 -14 -110 -76q-63 -51 -108 -67q-4 -1 -4 -4q0 -2 3 -4q15 -8 15 -30q0 -27 -22 -53q-38 -47 -89 -47
q-31 0 -64 18q-34 19 -34 35q0 8 16 23q5 5 11 5t9 -5q1 -2 7 -6t10 -8q9 -12 25 -12q22 0 34.5 12t32.5 45q5 10 5 14q0 9 -22 13z" />
    <glyph glyph-name="egrave" unicode="&#xe8;" horiz-adv-x="366" 
d="M253 -3q-17 -10 -36 -10q-22 0 -38 7q-45 17 -64 28q-33 18 -50 69q-12 34 -12 77q0 14 5 33q34 123 172 271q15 17 44.5 31t62.5 14q30 0 61 -11q11 -4 21.5 -19.5t10.5 -42.5q0 -26 -23 -72q-17 -31 -32 -47q-46 -52 -74 -82t-73 -69t-85 -61q-6 -5 -6 -8
q0 -11 8 -24.5t16 -17.5q16 -8 31 -8q24 0 77 28q38 20 91 66.5t80 62.5q11 7 20 7q6 0 13 -6t7 -14q0 -5 -0.5 -8.5t-0.5 -4.5q0 -10 -5 -14q-13 -11 -33.5 -32.5t-38.5 -39.5t-57 -46t-92 -57zM328 398q18 25 18 46q0 12 -6 12q-8 0 -21 -9q-19 -12 -20 -13
q-130 -120 -157 -229q0 -5 2 -5t7 3q70 52 153 154q7 8 10 13.5t6 12.5t8 15zM437 571l-102 66q-24 17 -66 33q-12 4 -12 33q0 15 11 26q12 12 24 12q4 0 8 -1.5t6 -1.5t55 -38l102 -70q26 -18 26 -25q0 -5 -5 -17q-2 -4 -2.5 -9.5t-0.5 -6.5q-3 -10 -13 -10q-18 0 -31 9z
" />
    <glyph glyph-name="eacute" unicode="&#xe9;" horiz-adv-x="366" 
d="M253 -3q-17 -10 -36 -10q-22 0 -38 7q-45 17 -64 28q-33 18 -50 69q-12 34 -12 77q0 14 5 33q34 123 172 271q15 17 44.5 31t62.5 14q30 0 61 -11q11 -4 21.5 -19.5t10.5 -42.5q0 -26 -23 -72q-17 -31 -32 -47q-46 -52 -74 -82t-73 -69t-85 -61q-6 -5 -6 -8
q0 -11 8 -24.5t16 -17.5q16 -8 31 -8q24 0 77 28q38 20 91 66.5t80 62.5q11 7 20 7q6 0 13 -6t7 -14q0 -5 -0.5 -8.5t-0.5 -4.5q0 -10 -5 -14q-13 -11 -33.5 -32.5t-38.5 -39.5t-57 -46t-92 -57zM328 398q18 25 18 46q0 12 -6 12q-8 0 -21 -9q-19 -12 -20 -13
q-130 -120 -157 -229q0 -5 2 -5t7 3q70 52 153 154q7 8 10 13.5t6 12.5t8 15zM361 640l89 34q46 14 77 35q3 3 14 3t19 -8q11 -11 11 -28q0 -20 -5 -26q-10 -13 -72 -32l-118 -37q-10 -3 -20 -3q-5 0 -11 2q-12 8 -15 14q-4 6 -5 7l-4 4q-3 3 -3 8q0 7 5 14q4 5 13 5
q3 0 25 8z" />
    <glyph glyph-name="ecircumflex" unicode="&#xea;" horiz-adv-x="366" 
d="M253 -3q-17 -10 -36 -10q-22 0 -38 7q-45 17 -64 28q-33 18 -50 69q-12 34 -12 77q0 14 5 33q34 123 172 271q15 17 44.5 31t62.5 14q30 0 61 -11q11 -4 21.5 -19.5t10.5 -42.5q0 -26 -23 -72q-17 -31 -32 -47q-46 -52 -74 -82t-73 -69t-85 -61q-6 -5 -6 -8
q0 -11 8 -24.5t16 -17.5q16 -8 31 -8q24 0 77 28q38 20 91 66.5t80 62.5q11 7 20 7q6 0 13 -6t7 -14q0 -5 -0.5 -8.5t-0.5 -4.5q0 -10 -5 -14q-13 -11 -33.5 -32.5t-38.5 -39.5t-57 -46t-92 -57zM328 398q18 25 18 46q0 12 -6 12q-8 0 -21 -9q-19 -12 -20 -13
q-130 -120 -157 -229q0 -5 2 -5t7 3q70 52 153 154q7 8 10 13.5t6 12.5t8 15zM461 697l60 -103q11 -18 11 -25q0 -5 -2.5 -8t-6 -6t-5.5 -5q-13 -10 -18 -11q-9 0 -18 14l-63 86q-4 6 -8 6q-3 0 -10 -3q-90 -36 -105 -51q-1 -1 -5 -1q-7 0 -15 6t-9 6q-5 3 -5 24q0 15 2 21
q2 4 9 11q6 8 55 25l89 31q9 3 13 3q15 0 19 -7q1 -3 4.5 -5t7.5 -8z" />
    <glyph glyph-name="edieresis" unicode="&#xeb;" horiz-adv-x="366" 
d="M253 -3q-17 -10 -36 -10q-22 0 -38 7q-45 17 -64 28q-33 18 -50 69q-12 34 -12 77q0 14 5 33q34 123 172 271q15 17 44.5 31t62.5 14q30 0 61 -11q11 -4 21.5 -19.5t10.5 -42.5q0 -26 -23 -72q-17 -31 -32 -47q-46 -52 -74 -82t-73 -69t-85 -61q-6 -5 -6 -8
q0 -11 8 -24.5t16 -17.5q16 -8 31 -8q24 0 77 28q38 20 91 66.5t80 62.5q11 7 20 7q6 0 13 -6t7 -14q0 -5 -0.5 -8.5t-0.5 -4.5q0 -10 -5 -14q-13 -11 -33.5 -32.5t-38.5 -39.5t-57 -46t-92 -57zM328 398q18 25 18 46q0 12 -6 12q-8 0 -21 -9q-19 -12 -20 -13
q-130 -120 -157 -229q0 -5 2 -5t7 3q70 52 153 154q7 8 10 13.5t6 12.5t8 15zM366 710q11 -17 11 -32t-11.5 -31t-11.5 -18q0 -7 -14.5 -12t-24.5 -5h-8q-5 0 -7 2q-7 5 -12.5 13t-7.5 10t-2 29q0 12 13 41q9 16 35 16q32 0 40 -13zM551 652q1 -3 4 -9.5t5 -12t2 -10.5
q0 -10 -2 -16q-15 -31 -25 -36q-9 -4 -29 -4q-16 0 -24 15q-1 2 -11 16.5t-10 26.5q0 10 9 29.5t22 19.5q1 0 8.5 -0.5t11.5 -0.5q34 0 39 -18z" />
    <glyph glyph-name="igrave" unicode="&#xec;" horiz-adv-x="220" 
d="M278 72l-41 -38q-53 -48 -103 -48q-21 0 -43.5 25t-31.5 54q-5 19 -5 42q0 34 16 81q3 7 8 24.5t9 25.5q74 173 97 222q14 27 50 27q22 0 30 -8q8 -6 8 -16q0 -24 -10 -43.5t-28 -43t-26 -40.5q-49 -112 -59 -142q-24 -64 -24 -98q0 -32 18 -32q17 0 30.5 6.5t42.5 27.5
q31 22 47 22q15 0 25 -7q6 -4 6 -14q0 -11 -16 -27zM327 527l-102 66q-24 17 -66 33q-12 4 -12 33q0 15 11 26q12 12 24 12q4 0 8 -1.5t6 -1.5t55 -38l102 -70q26 -18 26 -25q0 -5 -5 -17q-2 -4 -2.5 -9.5t-0.5 -6.5q-3 -10 -13 -10q-18 0 -31 9z" />
    <glyph glyph-name="iacute" unicode="&#xed;" horiz-adv-x="220" 
d="M278 72l-41 -38q-53 -48 -103 -48q-21 0 -43.5 25t-31.5 54q-5 19 -5 42q0 34 16 81q3 7 8 24.5t9 25.5q74 173 97 222q14 27 50 27q22 0 30 -8q8 -6 8 -16q0 -24 -10 -43.5t-28 -43t-26 -40.5q-49 -112 -59 -142q-24 -64 -24 -98q0 -32 18 -32q17 0 30.5 6.5t42.5 27.5
q31 22 47 22q15 0 25 -7q6 -4 6 -14q0 -11 -16 -27zM255 610l89 34q46 14 77 35q3 3 14 3t19 -8q11 -11 11 -28q0 -20 -5 -26q-10 -13 -72 -32l-118 -37q-11 -3 -20 -3q-5 0 -11 2q-12 8 -15 14q-4 6 -5 7l-4 4q-3 3 -3 8q0 7 5 14q4 5 13 5q3 0 25 8z" />
    <glyph glyph-name="icircumflex" unicode="&#xee;" horiz-adv-x="220" 
d="M278 72l-41 -38q-53 -48 -103 -48q-21 0 -43.5 25t-31.5 54q-5 19 -5 42q0 34 16 81q3 7 8 24.5t9 25.5q74 173 97 222q14 27 50 27q22 0 30 -8q8 -6 8 -16q0 -24 -10 -43.5t-28 -43t-26 -40.5q-49 -112 -59 -142q-24 -64 -24 -98q0 -32 18 -32q17 0 30.5 6.5t42.5 27.5
q31 22 47 22q15 0 25 -7q6 -4 6 -14q0 -11 -16 -27zM345 663l60 -103q11 -18 11 -25q0 -5 -2.5 -8t-6 -6t-5.5 -5q-13 -10 -18 -11q-9 0 -18 14l-63 86q-5 6 -8 6t-10 -3q-90 -36 -105 -51q-1 -1 -5 -1q-7 0 -15 6t-9 6q-5 3 -5 24q0 15 2 21q2 4 9 11q6 8 55 25l89 31
q9 3 13 3q15 0 19 -7q1 -3 4.5 -5t7.5 -8z" />
    <glyph glyph-name="idieresis" unicode="&#xef;" horiz-adv-x="220" 
d="M278 72l-41 -38q-53 -48 -103 -48q-21 0 -43.5 25t-31.5 54q-5 19 -5 42q0 34 16 81q3 7 8 24.5t9 25.5q74 173 97 222q14 27 50 27q22 0 30 -8q8 -6 8 -16q0 -24 -10 -43.5t-28 -43t-26 -40.5q-49 -112 -59 -142q-24 -64 -24 -98q0 -32 18 -32q17 0 30.5 6.5t42.5 27.5
q31 22 47 22q15 0 25 -7q6 -4 6 -14q0 -11 -16 -27zM238 692q11 -17 11 -32t-11.5 -31t-11.5 -18q0 -7 -14.5 -12t-24.5 -5h-8q-5 0 -7 2q-7 5 -12.5 13t-7.5 10t-2 29q0 12 13 41q9 16 35 16q32 0 40 -13zM423 634q1 -3 4 -9.5t5 -12t2 -10.5q0 -10 -2 -16q-15 -31 -25 -36
q-9 -4 -29 -4q-16 0 -24 15q-1 2 -11 16.5t-10 26.5q0 10 9 29.5t22 19.5q1 0 8.5 -0.5t11.5 -0.5q34 0 39 -18z" />
    <glyph glyph-name="eth" unicode="&#xf0;" horiz-adv-x="400" 
d="M292 528q-3 0 -31.5 -15.5t-37.5 -22.5q-20 -15 -35 -15q-4 0 -11 10q-8 11 -8 23q0 8 3 13.5t7.5 9t5.5 6.5q9 14 68 43q6 3 6 5q0 7 -38 48l-20 20q-11 11 -15 14q-18 16 -22 21.5t-4 15.5q0 26 15 26q2 0 12.5 7t14.5 7q6 0 36 -18q19 -13 23 -17.5t4 -10.5
q0 -4 14 -22q9 -10 24 -29t18 -23q3 -5 6 -5q2 0 8 3q22 10 41.5 22.5t29.5 18t15 5.5q14 0 27 -16q5 -5 5 -13q0 -9 -9 -19t-9 -13q0 -10 -60 -39q-11 -5 -11 -10q0 -3 11 -31q33 -84 33 -192q0 -67 -29.5 -151.5t-87.5 -142.5q-2 -2 -15 -15.5t-18 -17.5t-15.5 -12
t-20.5 -11t-21 -3q-16 0 -27.5 2t-16.5 4t-10.5 5.5t-8.5 4.5q-28 11 -42 21t-22 29q-16 34 -16 96q0 53 24 114.5t44 83.5q14 17 40 53q36 50 84 50q25 0 50 -17q22 -17 26 -17q3 0 3 4q0 43 -32 108q-3 5 -5 5zM327 290q-14 5 -16 14q-8 35 -15.5 54t-13 23.5t-12.5 4.5
q-26 0 -47 -33q-37 -57 -51.5 -82.5t-26.5 -66.5t-12 -90q0 -47 26 -61q10 -5 18 -5q19 0 44 24q49 47 76 110.5t30 107.5z" />
    <glyph glyph-name="ntilde" unicode="&#xf1;" horiz-adv-x="420" 
d="M91 266q44 106 97 184q13 19 16 22q10 10 35 10q33 0 40 -15q5 -8 5 -18q0 -22 -22 -47q-38 -42 -64 -90q-32 -57 -71 -156q-5 -12 -12.5 -39.5t-7.5 -30.5q0 -10 3 -10q8 0 17 13q58 82 112.5 143t82.5 89.5t36 46.5q14 29 19.5 35t15.5 6q8 0 18 -5t18 -5q8 -1 14 -9.5
t6 -17.5q0 -10 -10 -26q-51 -84 -70 -148q-12 -50 -12 -90q0 -14 8 -43q1 -7 6 -13.5t9.5 -9.5t11.5 -8l8 -5q15 -13 15 -23q0 -7 -6.5 -15.5t-19.5 -8.5q-37 0 -52 14q-4 4 -10 8.5t-10 7t-9 7.5t-10 12q-17 23 -17 62q0 17 1 30.5t2.5 22t2.5 14t2 8.5t1 4q0 4 -3 4t-6 -4
q-15 -20 -46.5 -61t-45.5 -61q-13 -17 -26 -27.5t-17 -16.5q-10 -11 -37 -11q-9 0 -35.5 17t-36.5 29q-7 9 -7 29q0 18 5.5 36t6.5 24q2 18 49 136zM253 587q0 5 -4 18t-4 19q0 10 9 14l63 23q24 9 45 9q13 0 22 -9t26 -33q16 -24 22.5 -29.5t18.5 -5.5q2 0 39 11l26 9
q11 4 15 4q18 0 20 -19q0 -3 2 -9t2 -12q0 -5 -8 -10q-72 -45 -98 -45q-30 0 -53 18q-10 9 -23.5 29.5t-17.5 23.5q-5 3 -9 3q-14 0 -49 -21q-5 -3 -10 -3q-34 0 -34 15z" />
    <glyph glyph-name="ograve" unicode="&#xf2;" horiz-adv-x="368" 
d="M344 460q20 -55 51 -55q22 0 49.5 1.5t36.5 1.5q25 0 43.5 -7t18.5 -19q0 -8 -14 -14t-14 -7q-1 -4 -11 -6q-9 -1 -35 -8t-40 -9q-20 -3 -39 -3q-10 0 -12 -8q-46 -183 -126 -268q-53 -59 -90 -59q-12 0 -24 5q-62 30 -75 63q-15 38 -15 83q0 95 87 223q7 11 13 17l5 5
l6 8q65 92 118 92q31 0 53 -19q11 -10 14 -17zM293 394q-6 6 -8 15q-5 17 -10 17q-8 0 -15 -10q-2 -2 -9 -7.5t-10 -9.5q-125 -156 -125 -280q0 -7 3 -14q8 -20 24 -33q4 -2 9 -2q8 0 19 8q7 3 17 18q40 60 57.5 88.5t36 79.5t18.5 98v10q0 8 -1 11q-1 6 -6 11zM391 521
l-102 66q-24 16 -66 33q-12 4 -12 33q0 15 11 26q12 12 24 12q4 0 8 -1.5t6 -1.5t55 -38l102 -70q26 -18 26 -25q0 -5 -5 -17q-2 -4 -2.5 -9.5t-0.5 -6.5q-3 -10 -13 -10q-17 0 -31 9z" />
    <glyph glyph-name="oacute" unicode="&#xf3;" horiz-adv-x="368" 
d="M344 460q20 -55 51 -55q22 0 49.5 1.5t36.5 1.5q25 0 43.5 -7t18.5 -19q0 -8 -14 -14t-14 -7q-1 -4 -11 -6q-9 -1 -35 -8t-40 -9q-20 -3 -39 -3q-10 0 -12 -8q-46 -183 -126 -268q-53 -59 -90 -59q-12 0 -24 5q-62 30 -75 63q-15 38 -15 83q0 95 87 223q7 11 13 17l5 5
l6 8q65 92 118 92q31 0 53 -19q11 -10 14 -17zM293 394q-6 6 -8 15q-5 17 -10 17q-8 0 -15 -10q-2 -2 -9 -7.5t-10 -9.5q-125 -156 -125 -280q0 -7 3 -14q8 -20 24 -33q4 -2 9 -2q8 0 19 8q7 3 17 18q40 60 57.5 88.5t36 79.5t18.5 98v10q0 8 -1 11q-1 6 -6 11zM287 612
l89 34q46 14 77 35q3 3 14 3t19 -8q11 -11 11 -28q0 -20 -5 -26q-10 -13 -72 -32l-118 -37q-11 -3 -20 -3q-5 0 -11 2q-12 8 -15 14q-4 6 -5 7l-4 4q-3 3 -3 8q0 7 5 14q4 5 13 5q3 0 25 8z" />
    <glyph glyph-name="ocircumflex" unicode="&#xf4;" horiz-adv-x="368" 
d="M344 460q20 -55 51 -55q22 0 49.5 1.5t36.5 1.5q25 0 43.5 -7t18.5 -19q0 -8 -14 -14t-14 -7q-1 -4 -11 -6q-9 -1 -35 -8t-40 -9q-20 -3 -39 -3q-10 0 -12 -8q-46 -183 -126 -268q-53 -59 -90 -59q-12 0 -24 5q-62 30 -75 63q-15 38 -15 83q0 95 87 223q7 11 13 17l5 5
l6 8q65 92 118 92q31 0 53 -19q11 -10 14 -17zM293 394q-6 6 -8 15q-5 17 -10 17q-8 0 -15 -10q-2 -2 -9 -7.5t-10 -9.5q-125 -156 -125 -280q0 -7 3 -14q8 -20 24 -33q4 -2 9 -2q8 0 19 8q7 3 17 18q40 60 57.5 88.5t36 79.5t18.5 98v10q0 8 -1 11q-1 6 -6 11zM385 665
l60 -103q11 -18 11 -25q0 -5 -2.5 -8t-6 -6t-5.5 -5q-13 -10 -18 -11q-9 0 -18 14l-63 86q-4 6 -8 6q-3 0 -10 -3q-90 -36 -105 -51q-1 -1 -5 -1q-7 0 -15 6t-9 6q-5 3 -5 24q0 15 2 21q2 4 9 11q6 8 55 25l89 31q9 3 13 3q15 0 19 -7q1 -3 4.5 -5t7.5 -8z" />
    <glyph glyph-name="otilde" unicode="&#xf5;" horiz-adv-x="368" 
d="M344 460q20 -55 51 -55q22 0 49.5 1.5t36.5 1.5q25 0 43.5 -7t18.5 -19q0 -8 -14 -14t-14 -7q-1 -4 -11 -6q-9 -1 -35 -8t-40 -9q-20 -3 -39 -3q-10 0 -12 -8q-46 -183 -126 -268q-53 -59 -90 -59q-12 0 -24 5q-62 30 -75 63q-15 38 -15 83q0 95 87 223q7 11 13 17l5 5
l6 8q65 92 118 92q31 0 53 -19q11 -10 14 -17zM293 394q-6 6 -8 15q-5 17 -10 17q-8 0 -15 -10q-2 -2 -9 -7.5t-10 -9.5q-125 -156 -125 -280q0 -7 3 -14q8 -20 24 -33q4 -2 9 -2q8 0 19 8q7 3 17 18q40 60 57.5 88.5t36 79.5t18.5 98v10q0 8 -1 11q-1 6 -6 11zM211 599
q0 5 -4 18t-4 19q0 10 9 14l63 23q24 9 45 9q13 0 22 -9t26 -33q16 -24 22.5 -29.5t18.5 -5.5q2 0 39 11l26 9q11 4 15 4q18 0 20 -19q0 -3 2 -9t2 -12q0 -5 -8 -10q-73 -45 -98 -45q-30 0 -53 18q-10 9 -23.5 29.5t-17.5 23.5q-5 3 -9 3q-14 0 -49 -21q-5 -3 -10 -3
q-34 0 -34 15z" />
    <glyph glyph-name="odieresis" unicode="&#xf6;" horiz-adv-x="368" 
d="M344 460q20 -55 51 -55q22 0 49.5 1.5t36.5 1.5q25 0 43.5 -7t18.5 -19q0 -8 -14 -14t-14 -7q-1 -4 -11 -6q-9 -1 -35 -8t-40 -9q-20 -3 -39 -3q-10 0 -12 -8q-46 -183 -126 -268q-53 -59 -90 -59q-12 0 -24 5q-62 30 -75 63q-15 38 -15 83q0 95 87 223q7 11 13 17l5 5
l6 8q65 92 118 92q31 0 53 -19q11 -10 14 -17zM293 394q-6 6 -8 15q-5 17 -10 17q-8 0 -15 -10q-2 -2 -9 -7.5t-10 -9.5q-125 -156 -125 -280q0 -7 3 -14q8 -20 24 -33q4 -2 9 -2q8 0 19 8q7 3 17 18q40 60 57.5 88.5t36 79.5t18.5 98v10q0 8 -1 11q-1 6 -6 11zM304 690
q11 -17 11 -32t-11.5 -31t-11.5 -18q0 -7 -14.5 -12t-24.5 -5h-8q-5 0 -7 2q-7 5 -12.5 13t-7.5 10t-2 29q0 12 13 41q9 16 35 16q32 0 40 -13zM489 632q1 -3 4 -9.5t5 -12t2 -10.5q0 -10 -2 -16q-15 -31 -25 -36q-9 -4 -29 -4q-16 0 -24 15q-1 2 -11 16.5t-10 26.5
q0 10 9 29.5t22 19.5q1 0 8.5 -0.5t11.5 -0.5q34 0 39 -18z" />
    <glyph glyph-name="divide" unicode="&#xf7;" horiz-adv-x="590" 
d="M553 287q0 -21 -8 -42q-3 -8 -8 -8q-4 0 -13.5 1t-13.5 1q-13 0 -104 -4t-136 -4q-30 0 -78 3.5t-51 3.5q-9 0 -15 23t-6 39t34 16q5 0 26 -2t56.5 -4t75.5 -2q17 0 98 4t112 4q14 0 28 -14q3 -3 3 -15zM423 460q0 -12 -3.5 -31.5t-16.5 -41t-32 -21.5q-12 0 -40.5 13
t-28.5 32q0 21 4.5 35.5t13.5 30t12 22.5q4 9 28 9q13 0 38 -19t25 -29zM323 150q23 -15 23 -50q0 -33 -11 -46.5t-43 -13.5q-10 0 -17 2.5t-9 3.5t-6.5 7.5t-5.5 7.5q-4 4 -12 11t-11 12t-3 14q0 21 12.5 50t33.5 29q13 0 30 -11q4 -2 9.5 -7.5t9.5 -8.5z" />
    <glyph glyph-name="oslash" unicode="&#xf8;" horiz-adv-x="406" 
d="M402 446q12 12 16 15.5t10.5 7t13.5 3.5q9 0 17.5 -13.5t8.5 -28.5q0 -2 -2.5 -4.5t-6 -4t-9 -4.5t-8.5 -6q-20 -16 -20 -22q0 -1 1 -10t1 -16q0 -13 -3 -34q-30 -163 -117 -277q-52 -64 -109 -64q-11 0 -28 6q-48 19 -65 36q-5 5 -7 5q-3 0 -11 -9q-6 -8 -21 -17t-21 -9
q-10 0 -11 6q-1 4 -7 16.5t-6 19.5q0 6 2 8t11.5 7t20.5 14q14 13 14 16q0 2 -3 11t-6 25t-3 35q0 83 83 201q14 19 29 37q2 3 18.5 23t25 29t24.5 23.5t31 21t30 6.5q33 0 69 -36q3 -3 12.5 -8t11.5 -9q5 -5 7 -5t7 5zM162 184q28 28 104 112.5t85 94.5q2 2 2 3q0 2 -3 2
q-13 0 -26 17q-12 15 -16 16q-21 0 -38 -22q-61 -76 -90 -123.5t-46 -104.5q-4 -9 -4 -19q0 -4 2 -4q3 0 30 28zM148 70q17 -15 30 -15q35 0 51 22q67 83 106 203q4 12 4 15q0 2 -2 2t-9 -7l-71 -78q-6 -7 -37.5 -40t-50.5 -56q-5 -7 -24 -26q-6 -6 -6 -9t9 -11z" />
    <glyph glyph-name="ugrave" unicode="&#xf9;" horiz-adv-x="420" 
d="M237 451q1 -2 4 -6.5t5 -9t2 -9.5q0 -14 -20 -29q-20 -13 -29 -47q-5 -20 -37 -119t-38 -141q-2 -14 -2 -15v-8q0 -4 4.5 -9t9.5 -5q12 0 22 10q20 19 53 58q108 117 149 224q6 15 18 22q11 6 23 6q1 0 24 -10q20 -6 20 -18q0 -15 -6 -29q-57 -119 -73 -226
q-6 -42 -6 -74q0 -13 9 -34.5t9 -32.5q0 -13 -6 -18q-4 -3 -14 -3q-14 0 -38 15q-7 4 -13.5 6t-8 4t-3.5 9q-10 25 -10 60q0 14 1.5 39t1.5 29q0 6 -4 6t-14 -12q-65 -74 -112 -97q-8 -4 -13 -4q-28 0 -60 19q-27 16 -30 31q-5 25 -5 43q0 41 23 114q4 13 8.5 31t8.5 32
q7 19 18 57.5t23 70t29 60.5q15 26 43 26q27 0 34 -16zM391 481l-102 66q-24 17 -66 33q-12 4 -12 33q0 15 11 26q12 12 24 12q4 0 8 -1.5t6 -1.5t55 -38l102 -70q26 -18 26 -25q0 -5 -5 -17q-2 -4 -2.5 -9.5t-0.5 -6.5q-3 -10 -13 -10q-17 0 -31 9z" />
    <glyph glyph-name="uacute" unicode="&#xfa;" horiz-adv-x="420" 
d="M237 451q1 -2 4 -6.5t5 -9t2 -9.5q0 -14 -20 -29q-20 -13 -29 -47q-5 -20 -37 -119t-38 -141q-2 -14 -2 -15v-8q0 -4 4.5 -9t9.5 -5q12 0 22 10q20 19 53 58q108 117 149 224q6 15 18 22q11 6 23 6q1 0 24 -10q20 -6 20 -18q0 -15 -6 -29q-57 -119 -73 -226
q-6 -42 -6 -74q0 -13 9 -34.5t9 -32.5q0 -13 -6 -18q-4 -3 -14 -3q-14 0 -38 15q-7 4 -13.5 6t-8 4t-3.5 9q-10 25 -10 60q0 14 1.5 39t1.5 29q0 6 -4 6t-14 -12q-65 -74 -112 -97q-8 -4 -13 -4q-28 0 -60 19q-27 16 -30 31q-5 25 -5 43q0 41 23 114q4 13 8.5 31t8.5 32
q7 19 18 57.5t23 70t29 60.5q15 26 43 26q27 0 34 -16zM301 576l89 34q46 14 77 35q3 3 14 3t19 -8q11 -11 11 -28q0 -20 -5 -26q-10 -13 -72 -32l-118 -37q-11 -3 -20 -3q-5 0 -11 2q-12 8 -15 14q-4 6 -5 7l-4 4q-3 3 -3 8q0 7 5 14q4 5 13 5q3 0 25 8z" />
    <glyph glyph-name="ucircumflex" unicode="&#xfb;" horiz-adv-x="420" 
d="M237 451q1 -2 4 -6.5t5 -9t2 -9.5q0 -14 -20 -29q-20 -13 -29 -47q-5 -20 -37 -119t-38 -141q-2 -14 -2 -15v-8q0 -4 4.5 -9t9.5 -5q12 0 22 10q20 19 53 58q108 117 149 224q6 15 18 22q11 6 23 6q1 0 24 -10q20 -6 20 -18q0 -15 -6 -29q-57 -119 -73 -226
q-6 -42 -6 -74q0 -13 9 -34.5t9 -32.5q0 -13 -6 -18q-4 -3 -14 -3q-14 0 -38 15q-7 4 -13.5 6t-8 4t-3.5 9q-10 25 -10 60q0 14 1.5 39t1.5 29q0 6 -4 6t-14 -12q-65 -74 -112 -97q-8 -4 -13 -4q-28 0 -60 19q-27 16 -30 31q-5 25 -5 43q0 41 23 114q4 13 8.5 31t8.5 32
q7 19 18 57.5t23 70t29 60.5q15 26 43 26q27 0 34 -16zM421 637l60 -103q11 -18 11 -25q0 -5 -2.5 -8t-6 -6t-5.5 -5q-13 -10 -18 -11q-9 0 -18 14l-63 86q-4 6 -8 6q-3 0 -10 -3q-90 -36 -105 -51q-1 -1 -5 -1q-7 0 -15 6t-9 6q-5 3 -5 24q0 15 2 21q2 4 9 11q6 8 55 25
l89 31q9 3 13 3q15 0 19 -7q1 -3 4.5 -5t7.5 -8z" />
    <glyph glyph-name="udieresis" unicode="&#xfc;" horiz-adv-x="420" 
d="M237 451q1 -2 4 -6.5t5 -9t2 -9.5q0 -14 -20 -29q-20 -13 -29 -47q-5 -20 -37 -119t-38 -141q-2 -14 -2 -15v-8q0 -4 4.5 -9t9.5 -5q12 0 22 10q20 19 53 58q108 117 149 224q6 15 18 22q11 6 23 6q1 0 24 -10q20 -6 20 -18q0 -15 -6 -29q-57 -119 -73 -226
q-6 -42 -6 -74q0 -13 9 -34.5t9 -32.5q0 -13 -6 -18q-4 -3 -14 -3q-14 0 -38 15q-7 4 -13.5 6t-8 4t-3.5 9q-10 25 -10 60q0 14 1.5 39t1.5 29q0 6 -4 6t-14 -12q-65 -74 -112 -97q-8 -4 -13 -4q-28 0 -60 19q-27 16 -30 31q-5 25 -5 43q0 41 23 114q4 13 8.5 31t8.5 32
q7 19 18 57.5t23 70t29 60.5q15 26 43 26q27 0 34 -16zM337 660q11 -17 11 -32t-11.5 -31t-11.5 -18q0 -7 -14.5 -12t-24.5 -5h-8q-5 0 -7 2q-7 5 -12.5 13t-7.5 10t-2 29q0 12 13 41q9 16 35 16q32 0 40 -13zM495 553q1 -3 4 -9.5t5 -12t2 -10.5v-9q0 -1 -2 -7
q-9 -27 -25 -36q-9 -4 -29 -4q-16 0 -24 15q-1 2 -11 16.5t-10 26.5q0 10 9 29.5t22 19.5q1 0 8.5 -0.5t11.5 -0.5q34 0 39 -18z" />
    <glyph glyph-name="yacute" unicode="&#xfd;" horiz-adv-x="436" 
d="M252 460q0 -23 -10 -42q-9 -16 -16 -24t-10 -14q-16 -34 -26.5 -65t-22.5 -71.5t-21 -67.5q-2 -7 -4.5 -17.5t-3.5 -14.5q-5 -18 -5 -32q0 -16 5 -16q10 0 22 6q37 18 79 66q1 1 14 14.5t23 25.5q5 6 25.5 27.5t33 37.5t32.5 51.5t37 80.5q3 8 11.5 19t14.5 11
q5 0 13.5 -3.5t17.5 -3.5q35 0 35 -36q0 -18 -23 -51l-19 -30q-36 -57 -61 -129q-5 -14 -28.5 -78t-26.5 -72q-12 -37 -12 -40q0 -2 4 -2q2 0 5 0.5t4 0.5q18 0 18 -11q0 -17 -6 -25q-86 -116 -121 -282q-1 -3 -4.5 -24.5t-6 -29.5t-9 -22.5t-17 -21.5t-25.5 -9
q-1 0 -10.5 -2t-16.5 -2q-10 0 -17 1.5t-14 10.5t-7 26q0 30 21 79q49 111 86 171q6 34 60 201q18 61 18 63q0 4 -3 4t-14 -11q-25 -25 -63.5 -51t-46.5 -26q-62 0 -95 40q-6 8 -6 24q0 62 15.5 119.5t45.5 131t42 113.5q5 13 16.5 21t18.5 8q2 0 12 -2.5t16 -2.5
q9 0 17.5 -6.5t8.5 -15.5zM313 564l89 34q46 14 77 35q3 3 14 3t19 -8q11 -11 11 -28q0 -20 -5 -26q-10 -13 -72 -32l-118 -37q-10 -3 -20 -3q-5 0 -11 2q-12 8 -15 14q-4 6 -5 7l-4 4q-3 3 -3 8q0 7 5 14q4 5 13 5q3 0 25 8z" />
    <glyph glyph-name="thorn" unicode="&#xfe;" horiz-adv-x="456" 
d="M327 665q0 -18 -22 -84.5t-51 -146.5t-35 -101q0 -2 3 -2q12 10 39 37t53.5 49.5t54.5 37.5q9 6 16 6q35 0 84 -34q16 -9 16 -40q0 -30 -10 -70q-1 -3 -2 -11.5t-4 -16.5q-77 -206 -166 -280q-10 -7 -28 -7q-16 0 -37 10t-30 19q-40 40 -50 88q-66 -101 -139 -333
q-3 -11 -4.5 -24t-2 -19t-4 -10.5t-11.5 -4.5t-17.5 2t-12.5 2q-22 0 -28 7q-1 1 -4.5 4t-5 4.5t-3 5.5t-1.5 9q0 6 9 33q19 56 122 318t171 488q11 36 11 60q0 17 18 17q8 0 19 3.5t18 3.5q21 0 27.5 -5t6.5 -15zM389 386q-47 -32 -96 -84t-76 -98q-5 -8 -5 -35
q0 -28 14.5 -63.5t32.5 -35.5q5 0 9 4q21 21 45.5 66t31.5 64q26 56 42 118q13 51 13 62q0 6 -3 6t-8 -4z" />
    <glyph glyph-name="ydieresis" unicode="&#xff;" horiz-adv-x="436" 
d="M252 460q0 -23 -10 -42q-9 -16 -16 -24t-10 -14q-16 -34 -26.5 -65t-22.5 -71.5t-21 -67.5q-2 -7 -4.5 -17.5t-3.5 -14.5q-5 -18 -5 -32q0 -16 5 -16q10 0 22 6q37 18 79 66q1 1 14 14.5t23 25.5q5 6 25.5 27.5t33 37.5t32.5 51.5t37 80.5q3 8 11.5 19t14.5 11
q5 0 13.5 -3.5t17.5 -3.5q35 0 35 -36q0 -18 -23 -51l-19 -30q-36 -57 -61 -129q-5 -14 -28.5 -78t-26.5 -72q-12 -37 -12 -40q0 -2 4 -2q2 0 5 0.5t4 0.5q18 0 18 -11q0 -17 -6 -25q-86 -116 -121 -282q-1 -3 -4.5 -24.5t-6 -29.5t-9 -22.5t-17 -21.5t-25.5 -9
q-1 0 -10.5 -2t-16.5 -2q-10 0 -17 1.5t-14 10.5t-7 26q0 30 21 79q49 111 86 171q6 34 60 201q18 61 18 63q0 4 -3 4t-14 -11q-25 -25 -63.5 -51t-46.5 -26q-62 0 -95 40q-6 8 -6 24q0 62 15.5 119.5t45.5 131t42 113.5q5 13 16.5 21t18.5 8q2 0 12 -2.5t16 -2.5
q9 0 17.5 -6.5t8.5 -15.5zM334 650q11 -17 11 -32t-11.5 -31t-11.5 -18q0 -7 -14.5 -12t-24.5 -5h-8q-5 0 -7 2q-7 5 -12.5 13t-7.5 10t-2 29q0 12 13 41q9 16 35 16q32 0 40 -13zM519 592q1 -3 4 -9.5t5 -12t2 -10.5q0 -10 -2 -16q-15 -31 -25 -36q-9 -4 -29 -4
q-16 0 -24 15q-1 2 -11 16.5t-10 26.5q0 10 9 29.5t22 19.5q1 0 8.5 -0.5t11.5 -0.5q34 0 39 -18z" />
    <glyph glyph-name="tilde" unicode="&#x2dc;" 
d="M265 755q0 5 -4 18t-4 19q0 10 9 14l63 23q24 9 45 9q13 0 22 -9t26 -33q16 -24 22.5 -29.5t18.5 -5.5q2 0 39 11l26 9q11 4 15 4q18 0 20 -19q0 -3 2 -9t2 -12q0 -5 -8 -10q-72 -45 -98 -45q-30 0 -53 18q-10 9 -23.5 29.5t-17.5 23.5q-5 3 -9 3q-14 0 -49 -21
q-5 -3 -10 -3q-34 0 -34 15z" />
    <glyph glyph-name="endash" unicode="&#x2013;" horiz-adv-x="590" 
d="M553 287q0 -21 -8 -42q-4 -7 -11 -7h-24q-37 0 -118 -3.5t-122 -3.5q-109 0 -128 8q-22 9 -22 61q0 16 34 16q5 0 26 -2t56.5 -4t75.5 -2q31 0 73.5 2t63.5 2q19 0 36.5 2.5t26.5 2.5q23 0 38 -15q3 -3 3 -15z" />
    <glyph glyph-name="emdash" unicode="&#x2014;" horiz-adv-x="670" 
d="M744 286q0 -23 -8 -45q-3 -5 -15 -5h-662q-14 0 -19 6q-14 19 -14 57q0 15 30 15h659q12 0 26 -14q3 -3 3 -14z" />
    <glyph glyph-name="quoteleft" unicode="&#x2018;" horiz-adv-x="192" 
d="M136 428l62 108q3 7 24.5 45.5t23.5 42.5q7 19 24 19q1 0 5 -0.5t8 -0.5q19 0 30 -11t11 -35q0 -13 -6 -24t-20.5 -30.5t-25.5 -38.5l-62 -105q-10 -16 -32 -16q-8 0 -15 1.5t-12 3.5t-6 2q-15 5 -15 24q0 4 6 15z" />
    <glyph glyph-name="quoteright" unicode="&#x2019;" horiz-adv-x="192" 
d="M136 428l62 108q3 7 24.5 45.5t23.5 42.5q7 19 24 19q1 0 5 -0.5t8 -0.5q19 0 30 -11t11 -35q0 -13 -6 -24t-20.5 -30.5t-25.5 -38.5l-62 -105q-10 -16 -32 -16q-8 0 -15 1.5t-12 3.5t-6 2q-15 5 -15 24q0 4 6 15z" />
    <glyph glyph-name="quotedblleft" unicode="&#x201c;" horiz-adv-x="340" 
d="M287 428l62 108q46 81 50 92q6 15 23 15q30 0 42 -12q11 -11 11 -34q0 -13 -7.5 -27.5t-23 -35t-21.5 -31.5l-61 -103q-11 -18 -34 -18q-9 0 -20 3.5t-12 3.5q-6 1 -10.5 7.5t-4.5 12.5q0 8 6 19zM216 568q12 21 40 83q9 21 27 21q19 0 35 -20q17 -19 17 -24
q0 -12 -3 -16q-25 -38 -50 -85l-52 -98q-5 -8 -17 -14t-19 -6q-11 0 -20 4q-10 3 -19 3q-5 0 -10.5 8t-5.5 14q0 3 1 4.5t4.5 5.5t7.5 10q27 44 64 110z" />
    <glyph glyph-name="quotedblright" unicode="&#x201d;" horiz-adv-x="340" 
d="M287 428l62 108q46 81 50 92q6 15 23 15q30 0 42 -12q11 -11 11 -34q0 -13 -7.5 -27.5t-23 -35t-21.5 -31.5l-61 -103q-11 -18 -34 -18q-9 0 -20 3.5t-12 3.5q-6 1 -10.5 7.5t-4.5 12.5q0 8 6 19zM216 568q12 21 40 83q9 21 27 21q19 0 35 -20q17 -19 17 -24
q0 -12 -3 -16q-25 -38 -50 -85l-52 -98q-5 -8 -17 -14t-19 -6q-11 0 -20 4q-10 3 -19 3q-5 0 -10.5 8t-5.5 14q0 3 1 4.5t4.5 5.5t7.5 10q27 44 64 110z" />
    <glyph glyph-name="quotedblbase" unicode="&#x201e;" horiz-adv-x="340" 
d="M105 -114l62 108q46 81 50 92q6 15 23 15q30 0 42 -12q11 -11 11 -34q0 -13 -7.5 -27.5t-23 -35t-21.5 -31.5l-61 -103q-11 -18 -34 -18q-9 0 -20 3.5t-12 3.5q-6 1 -10.5 7.5t-4.5 12.5q0 8 6 19zM34 26q12 21 40 83q9 21 27 21q19 0 35 -20q17 -19 17 -24q0 -12 -3 -16
q-25 -38 -50 -85l-52 -98q-5 -8 -17 -14t-19 -6q-11 0 -20 4q-11 3 -19 3q-5 0 -10.5 8t-5.5 14q0 3 1 4.5t4.5 5.5t7.5 10q27 44 64 110z" />
    <glyph glyph-name="bullet" unicode="&#x2022;" horiz-adv-x="490" 
d="M230 14q-55 0 -93 31q-32 25 -47 47t-18 61q-2 22 -2 32q0 40 18 90t48 95t76 75.5t95 30.5q44 0 72 -10.5t48 -39.5q5 -7 15 -17t18.5 -21t15.5 -27q16 -34 16 -66q0 -64 -30.5 -127.5t-92.5 -108.5t-139 -45z" />
    <glyph glyph-name="ellipsis" unicode="&#x2026;" horiz-adv-x="710" 
d="M632 68q0 -32 -29 -65q-9 -9 -37 -9q-15 0 -30 10t-20 25q-2 6 -2 7v8q0 1 -0.5 10t-0.5 21q0 21 4 29q2 6 10 13.5t9 9.5q4 6 22 6q51 0 68 -37q6 -13 6 -28zM327 130q7 4 17 4q39 0 64 -44q3 -5 3 -15q0 -15 -8 -29q-1 -3 -8 -12.5t-8 -13.5q-1 -8 -17 -20
q-4 -4 -13 -4q-16 0 -37 7q-27 9 -32 37q-3 15 -3 16q0 7 1.5 17t12 29t28.5 28zM180 68q0 -22 -9 -43.5t-20 -21.5q-1 0 -14.5 -4.5t-22.5 -4.5q-27 0 -50 35q-4 4 -4 15q0 5 1.5 14.5t1.5 13.5t6.5 12.5t7.5 14.5q2 15 10 25q6 8 37 8q14 0 25 -11l10 -9q3 -3 11 -7
q10 -4 10 -37z" />
    <glyph glyph-name="guilsinglleft" unicode="&#x2039;" horiz-adv-x="255" 
d="M106 276q-4 5 -4 23q0 5 -1 11t-1 7q0 16 11 27l77 84q42 47 52 47q20 0 25 -11q2 -5 6 -9.5t6 -8.5q9 -16 9 -25q0 -7 -6.5 -14.5t-35.5 -30.5q-15 -11 -31.5 -27.5t-23.5 -21.5q-6 -5 -6 -13q0 -4 3 -12q28 -62 37 -74q8 -9 8 -29q0 -19 -3 -22q-14 -20 -37 -20
q-10 0 -19 22q-1 3 -12.5 20t-28.5 40.5t-25 36.5z" />
    <glyph glyph-name="guilsinglright" unicode="&#x203a;" horiz-adv-x="255" 
d="M259 276l-100 -100q-18 -18 -43 -18q-5 0 -11.5 8t-6.5 16q0 1 -3 3.5t-3 6.5t5 11l93 101q7 7 7 14q0 8 -4 12q-8 12 -13 26l-4 7q-1 3 -5.5 10.5t-8.5 15.5q-2 5 -11.5 17.5t-9.5 16.5q0 7 3.5 11.5t13 12.5t16.5 17q8 10 25 10q7 0 13 -2q8 -5 27 -44l38 -78
q4 -9 4 -33q0 -19 -22 -41z" />
    <glyph glyph-name="Euro" unicode="&#x20ac;" horiz-adv-x="646" 
d="M198 360q52 98 84 139q18 22 39 43q7 7 16 18t15 17q21 19 191 59q119 28 185 28q26 0 45 -18.5t19 -33.5q0 -8 -7 -17.5t-19 -9.5q-6 0 -24 -2.5t-24 -2.5q-5 0 -13.5 1.5t-14.5 1.5q-22 0 -109 -20t-157 -40q-12 -3 -20 -12q-2 -2 -10 -11t-17 -18q-23 -23 -40 -45.5
t-23.5 -34t-6.5 -14.5q0 -4 4 -4q2 0 59 18.5t125 37t96 18.5q16 0 33 -19q14 -17 14 -30q0 -10 -20 -25q-21 -13 -42 -13l-6 1h-14q-34 0 -75 -11.5t-202 -64.5q-17 -6 -20 -16q-10 -30 -10 -43q0 -7 5 -7q2 0 20 6q46 15 106 34q108 35 125 35q31 0 43 -10
q15 -14 19.5 -21.5t4.5 -19.5q0 -13 -20 -20q-29 -11 -48 -11q-54 0 -239 -66q-12 -4 -14.5 -6t-2.5 -7q0 -12 6 -26q29 -68 119 -68q59 0 116 38q10 8 13 10l7 7q12 12 36 28q9 5 25 5q22 0 52 -17q11 -6 11 -25q0 -10 -6.5 -16t-50.5 -38q-90 -62 -198 -62
q-83 0 -135.5 33.5t-70.5 94.5q-3 12 -8 12q-2 0 -29 -8.5t-40 -8.5q-22 0 -37 16q-4 4 -4 21q0 32 12 36q34 12 48 12q13 0 32 6q15 5 17 19q4 25 4 35q0 5 -5 5q-1 0 -26.5 -8.5t-33.5 -8.5q-24 0 -29 4q-18 15 -18 26q0 37 21 48q28 15 44 15q24 0 53 10q16 5 25 21z" />
    <glyph glyph-name="trademark" unicode="&#x2122;" horiz-adv-x="776" 
d="M801 600q4 5 9 12.5t7.5 11t7 6.5t10.5 3q10 0 14.5 -2.5t6.5 -2.5t7 -2t11 -7.5t6 -14.5q0 -5 -6 -14q-60 -91 -95 -203t-35 -173q0 -12 -13 -12q-5 0 -11 1.5t-15 1.5q-10 0 -27 12q-5 4 -5 9q0 15 1 25t2 16t5 21.5t7 28.5q3 14 14.5 55.5t13.5 49.5q0 2 -2 2l-2 -1
q-2 -1 -3 -1q-69 -73 -76 -87q-6 -10 -23 -10q-5 0 -12 1.5t-15 1.5q-17 0 -29 20q-12 19 -12 53v11l1 15q0 4 0.5 9.5t1 8.5t0.5 4q0 4 -2 4q-1 0 -2 -3q-41 -62 -58 -117q-2 -6 -10.5 -26.5t-11.5 -32.5t-3 -25q0 -3 -6.5 -8t-9.5 -5q-6 0 -10 -3.5t-7 -3.5q-4 0 -13.5 6
t-11.5 6q-3 0 -7.5 8t-4.5 16q0 19 22 72q29 72 80 161t74 142q2 5 9 5q3 0 9 1.5t14 1.5q16 0 17 -4l4 -3q3 -3 7 -4q6 -4 6 -17q0 -8 -17 -64q-2 -6 -3 -17t-2 -18q-5 -27 -5 -111q0 -9 4 -9q3 0 4 3q32 39 108 113.5t82 82.5zM220 441q24 62 52 117q0 4 -5 4l-27 -3
q-24 -2 -34 -2q-35 0 -47 14q-3 3 -3 34q0 21 19 21q2 0 6.5 -1t8.5 -2l18 -1q8 -1 33 -1q43 0 110.5 12t92.5 12q80 0 80 -16q0 -6 -1.5 -14.5t-1.5 -14.5q0 -5 -2.5 -8.5t-7.5 -7.5t-6 -5q-4 -4 -28 -4l-13 5q-14 4 -36 4q-16 0 -35 -4.5t-43 -6.5q1 -1 1 -11l-4 -12
q-70 -123 -99 -236q-2 -22 -2 -40q0 -4 0.5 -10t0.5 -10q0 -26 -23 -26q-14 0 -44 16q-11 8 -11 19q0 4 6 29t18.5 67.5t26.5 81.5z" />
    <glyph glyph-name="NULL" horiz-adv-x="0" 
 />
    <glyph glyph-name="CR" horiz-adv-x="333" 
 />
    </font>
</defs>
</svg>
